<svg xmlns="http://www.w3.org/2000/svg" width="112.445" height="121.418" viewBox="0 0 112.445 121.418">
  <g id="app-development" transform="translate(-18.92)">
    <g id="Group_290" data-name="Group 290" transform="translate(18.92)">
      <path id="Path_773" data-name="Path 773" d="M146.738,460.315h3.89a1.779,1.779,0,1,0,0-3.559h-3.89a1.779,1.779,0,1,0,0,3.559Z" transform="translate(-115.07 -348.439)" fill="#f62d2d"/>
      <path id="Path_774" data-name="Path 774" d="M127.953,51.475h-8.033a35.439,35.439,0,0,0-3.607-8.686l5.676-5.665a3.411,3.411,0,0,0,0-4.829l-8.253-8.237a3.416,3.416,0,0,0-4.82,0l-5.683,5.672a35.563,35.563,0,0,0-8.707-3.6V18.117a3.415,3.415,0,0,0-3.412-3.411H86.148V8.748A8.758,8.758,0,0,0,77.4,0H27.668A8.758,8.758,0,0,0,18.92,8.748V20.423a1.779,1.779,0,0,0,3.559,0V8.748a5.2,5.2,0,0,1,5.19-5.19H77.4a5.2,5.2,0,0,1,5.19,5.19V98.775H22.479V28.6a1.779,1.779,0,0,0-3.559,0V112.67a8.758,8.758,0,0,0,8.748,8.748H77.4a8.758,8.758,0,0,0,8.748-8.748v-5.957h4.966a3.415,3.415,0,0,0,3.412-3.411V95.29a35.559,35.559,0,0,0,8.707-3.6l5.683,5.673a3.417,3.417,0,0,0,4.82,0l8.253-8.237a3.411,3.411,0,0,0,0-4.829l-5.675-5.665a35.434,35.434,0,0,0,3.607-8.686h8.033a3.415,3.415,0,0,0,3.411-3.411V54.887a3.415,3.415,0,0,0-3.411-3.412ZM82.59,112.67a5.2,5.2,0,0,1-5.19,5.19H27.668a5.2,5.2,0,0,1-5.19-5.19V102.333H82.59Zm45.216-46.285h-9.281a1.779,1.779,0,0,0-1.736,1.39,31.929,31.929,0,0,1-4.224,10.171,1.779,1.779,0,0,0,.245,2.214l6.561,6.549-8.044,8.029-6.566-6.553a1.779,1.779,0,0,0-2.209-.244,32.052,32.052,0,0,1-10.193,4.216,1.779,1.779,0,0,0-1.392,1.737v9.26H86.148V82.818a22.2,22.2,0,0,0,13.469-5.233,1.779,1.779,0,1,0-2.3-2.715,18.635,18.635,0,0,1-11.168,4.388v-37.1a18.609,18.609,0,0,1,17.738,18.548,18.337,18.337,0,0,1-2,8.382,1.779,1.779,0,0,0,3.173,1.611,21.869,21.869,0,0,0,2.384-9.993,22.173,22.173,0,0,0-21.3-22.11V18.264h4.819v9.26a1.779,1.779,0,0,0,1.392,1.737,32.06,32.06,0,0,1,10.193,4.216,1.779,1.779,0,0,0,2.209-.244l6.566-6.553,8.044,8.029-6.561,6.549a1.78,1.78,0,0,0-.245,2.214,31.923,31.923,0,0,1,4.224,10.172,1.779,1.779,0,0,0,1.736,1.39h9.281V66.385Z" transform="translate(-18.92)" fill="#f62d2d"/>
      <path id="Path_775" data-name="Path 775" d="M52.648,61.618H63.471a2.367,2.367,0,0,0,2.364-2.364V48.431a2.366,2.366,0,0,0-2.364-2.364H52.648a2.367,2.367,0,0,0-2.364,2.364V59.254A2.366,2.366,0,0,0,52.648,61.618Zm1.195-11.992h8.434v8.434H53.843Z" transform="translate(-42.846 -35.142)" fill="#f62d2d"/>
      <path id="Path_776" data-name="Path 776" d="M130.24,61.618h10.824a2.367,2.367,0,0,0,2.364-2.364V48.431a2.366,2.366,0,0,0-2.364-2.364H130.24a2.366,2.366,0,0,0-2.364,2.364V59.254A2.366,2.366,0,0,0,130.24,61.618Zm1.195-11.992h8.434v8.434h-8.434Z" transform="translate(-102.038 -35.142)" fill="#f62d2d"/>
      <path id="Path_777" data-name="Path 777" d="M207.834,61.618h10.824a2.366,2.366,0,0,0,2.364-2.364V48.431a2.366,2.366,0,0,0-2.364-2.364H207.834a2.367,2.367,0,0,0-2.364,2.364V59.254A2.366,2.366,0,0,0,207.834,61.618Zm1.195-11.992h8.434v8.434h-8.434Z" transform="translate(-161.231 -35.142)" fill="#f62d2d"/>
      <path id="Path_778" data-name="Path 778" d="M50.284,144.083a2.367,2.367,0,0,0,2.364,2.364H63.471a2.367,2.367,0,0,0,2.364-2.364V133.26a2.366,2.366,0,0,0-2.364-2.364H52.648a2.367,2.367,0,0,0-2.364,2.364Zm3.559-9.629h8.434v8.434H53.843Z" transform="translate(-42.846 -99.855)" fill="#f62d2d"/>
      <path id="Path_779" data-name="Path 779" d="M127.876,144.083a2.366,2.366,0,0,0,2.364,2.364h10.824a2.367,2.367,0,0,0,2.364-2.364V133.26a2.366,2.366,0,0,0-2.364-2.364H130.24a2.366,2.366,0,0,0-2.364,2.364Zm3.559-9.629h8.434v8.434h-8.434Z" transform="translate(-102.038 -99.855)" fill="#f62d2d"/>
      <path id="Path_780" data-name="Path 780" d="M205.469,144.083a2.367,2.367,0,0,0,2.364,2.364h10.824a2.367,2.367,0,0,0,2.364-2.364V133.26a2.366,2.366,0,0,0-2.364-2.364H207.833a2.367,2.367,0,0,0-2.364,2.364Zm3.559-9.629h8.434v8.434h-8.434Z" transform="translate(-161.23 -99.855)" fill="#f62d2d"/>
    </g>
  </g>
</svg>
