<?xml version="1.0" encoding="UTF-8"?>
<svg version="1.1" xmlns="http://www.w3.org/2000/svg" width="160" height="110">
<path d="M0 0 C8.34204635 8.34204635 12.33180507 16.79006488 12.5 28.5 C12.43126776 35.34184581 11.39304341 40.95872758 8 47 C7.443125 48.03125 6.88625 49.0625 6.3125 50.125 C-0.90237145 59.09484018 -9.32078369 65.14675374 -20.97265625 66.44140625 C-32.86374833 67.00009526 -42.1012562 63.97371846 -51 56 C-58.63055873 48.89999136 -62.00633351 41.14108127 -62.52172852 30.77124023 C-62.73818116 19.04520978 -59.57576454 9.55931499 -51.30078125 0.97265625 C-36.22781593 -11.95068413 -15.59868914 -12.28752461 0 0 Z M-49.97265625 4.81640625 C-56.64886709 11.83280618 -59.19892026 18.85573591 -59.5 28.5 C-59.16887269 39.11743712 -55.58159063 47.47595465 -48 55 C-38.59806301 61.95832738 -29.6353524 64.21047191 -18 63 C-5.64238287 59.53069218 0.83118546 53.07930345 7.04296875 42.16796875 C10.34965238 35.0422984 10.23443012 25.79823684 8.30859375 18.3125 C7.36986007 16.05011255 6.31069599 14.0678061 5 12 C4.56429687 11.30390625 4.12859375 10.6078125 3.6796875 9.890625 C-2.06079047 1.54654227 -9.65861028 -3.55634257 -19.5625 -5.50390625 C-31.49324086 -7.11387838 -41.22983747 -3.23391203 -49.97265625 4.81640625 Z " fill="#EB5D33" transform="translate(104,26)"/>
<path d="M0 0 C0.66 0 1.32 0 2 0 C2.33 -0.33 2.66 -0.66 3 -1 C8.52941176 -1.23529412 8.52941176 -1.23529412 11 0 C11.4140625 2.06640625 11.4140625 2.06640625 11.625 4.5625 C11.69976562 5.38878906 11.77453125 6.21507812 11.8515625 7.06640625 C11.90054688 7.70449219 11.94953125 8.34257813 12 9 C12.66 8.67 13.32 8.34 14 8 C14.46651207 5.87423218 14.46651207 5.87423218 14.625 3.4375 C14.69976562 2.61121094 14.77453125 1.78492188 14.8515625 0.93359375 C14.90054688 0.29550781 14.94953125 -0.34257813 15 -1 C15.99 -1 16.98 -1 18 -1 C18 1.31 18 3.62 18 6 C19.98 6 21.96 6 24 6 C24.28875 5.21625 24.5775 4.4325 24.875 3.625 C26 1 26 1 28 -1 C31.125 -1.125 31.125 -1.125 34 -1 C34 -0.01 34 0.98 34 2 C32.02 2.33 30.04 2.66 28 3 C28.495 5.475 28.495 5.475 29 8 C31.475 8.495 31.475 8.495 34 9 C34 9.99 34 10.98 34 12 C31.69 12 29.38 12 27 12 C26.34 10.68 25.68 9.36 25 8 C22.69 8 20.38 8 18 8 C17.67 9.32 17.34 10.64 17 12 C12.05 12 7.1 12 2 12 C1.67 11.34 1.34 10.68 1 10 C0.34 10.66 -0.32 11.32 -1 12 C-4.5 12.3125 -4.5 12.3125 -8 12 C-10.46324069 8.30513897 -10.38991688 6.36706908 -10 2 C-7.69567172 -2.33755911 -4.23643929 -0.84728786 0 0 Z M-6 2 C-6.33 3.98 -6.66 5.96 -7 8 C-5.05396726 8.59070014 -5.05396726 8.59070014 -3 9 C-1.70366379 7.93354885 -1.70366379 7.93354885 -1.9375 5.4375 C-1.958125 4.633125 -1.97875 3.82875 -2 3 C-3.32 2.67 -4.64 2.34 -6 2 Z M6 2 C6 2.66 6 3.32 6 4 C6.66 4 7.32 4 8 4 C8 3.34 8 2.68 8 2 C7.34 2 6.68 2 6 2 Z M6 7 C6 7.66 6 8.32 6 9 C6.66 9 7.32 9 8 9 C8 8.34 8 7.68 8 7 C7.34 7 6.68 7 6 7 Z " fill="#ED592E" transform="translate(67,49)"/>
<path d="M0 0 C0.66 0 1.32 0 2 0 C2.33 -0.33 2.66 -0.66 3 -1 C8.52941176 -1.23529412 8.52941176 -1.23529412 11 0 C11 1.65 11 3.3 11 5 C10.01 4.67 9.02 4.34 8 4 C7.3125 1.9375 7.3125 1.9375 7 0 C6.34 0 5.68 0 5 0 C4.67 1.65 4.34 3.3 4 5 C2.68 5 1.36 5 0 5 C-0.33 6.32 -0.66 7.64 -1 9 C-2.65 9.33 -4.3 9.66 -6 10 C-6 10.66 -6 11.32 -6 12 C-6.99 11.67 -7.98 11.34 -9 11 C-10.52491998 7.95016004 -10.23562548 5.3576631 -10 2 C-7.69567172 -2.33755911 -4.23643929 -0.84728786 0 0 Z M-6 2 C-6.33 3.98 -6.66 5.96 -7 8 C-5.05396726 8.59070014 -5.05396726 8.59070014 -3 9 C-1.70366379 7.93354885 -1.70366379 7.93354885 -1.9375 5.4375 C-1.958125 4.633125 -1.97875 3.82875 -2 3 C-3.32 2.67 -4.64 2.34 -6 2 Z " fill="#EC5A3A" transform="translate(67,49)"/>
<path d="M0 0 C1.98 0 3.96 0 6 0 C6 7.59 6 15.18 6 23 C4.02 23 2.04 23 0 23 C0 22.01 0 21.02 0 20 C0.66 20 1.32 20 2 20 C2 14.72 2 9.44 2 4 C1.34 4 0.68 4 0 4 C0 2.68 0 1.36 0 0 Z " fill="#E65E33" transform="translate(102,43)"/>
<path d="M0 0 C1.98 0 3.96 0 6 0 C6 1.32 6 2.64 6 4 C5.34 4 4.68 4 4 4 C4 9.28 4 14.56 4 20 C4.66 20 5.32 20 6 20 C6 20.99 6 21.98 6 23 C4.02 23 2.04 23 0 23 C0 15.41 0 7.82 0 0 Z " fill="#E66238" transform="translate(50,43)"/>
<path d="M0 0 C0.66 0 1.32 0 2 0 C2.0270203 2.75006608 2.04684883 5.49986546 2.0625 8.25 C2.07087891 9.02730469 2.07925781 9.80460937 2.08789062 10.60546875 C2.09111328 11.35957031 2.09433594 12.11367188 2.09765625 12.890625 C2.10289307 13.58188477 2.10812988 14.27314453 2.11352539 14.98535156 C1.99437971 17.09973898 1.57618237 18.96641515 1 21 C0.01 20.67 -0.98 20.34 -2 20 C-1.85953745 17.04132082 -1.71287776 14.08317736 -1.5625 11.125 C-1.52318359 10.28324219 -1.48386719 9.44148438 -1.44335938 8.57421875 C-1.40146484 7.76855469 -1.35957031 6.96289062 -1.31640625 6.1328125 C-1.27974854 5.38918457 -1.24309082 4.64555664 -1.20532227 3.87939453 C-1 2 -1 2 0 0 Z " fill="#E75B48" transform="translate(114,46)"/>
<path d="M0 0 C1.670625 0.2475 1.670625 0.2475 3.375 0.5 C6.72032033 1.0455458 6.72032033 1.0455458 9 1 C9.33 0.67 9.66 0.34 10 0 C15.52941176 -0.23529412 15.52941176 -0.23529412 18 1 C18 2.65 18 4.3 18 6 C17.01 5.67 16.02 5.34 15 5 C14.3125 2.9375 14.3125 2.9375 14 1 C13.34 1 12.68 1 12 1 C11.67 2.65 11.34 4.3 11 6 C9.35 5.67 7.7 5.34 6 5 C6 4.01 6 3.02 6 2 C3.03 1.505 3.03 1.505 0 1 C0 0.67 0 0.34 0 0 Z " fill="#DB6241" transform="translate(60,48)"/>
<path d="M0 0 C-1.5885342 4.28904235 -4.43127368 6.32345526 -8 9 C-8.66 9 -9.32 9 -10 9 C-9.63692621 6.31325398 -9.33095772 4.44127696 -7.6875 2.25 C-5.21825169 0.42092718 -3.03628681 0 0 0 Z " fill="#EC5927" transform="translate(61,24)"/>
<path d="M0 0 C1.32 0 2.64 0 4 0 C9 5.11363636 9 5.11363636 9 9 C6.66471585 8.82701599 5.30822418 8.29774631 3.62109375 6.66796875 C0 2.42788462 0 2.42788462 0 0 Z " fill="#F05633" transform="translate(101,27)"/>
<path d="M0 0 C4.16138263 -0.08159574 7.9472484 0.01751476 12 1 C12 1.33 12 1.66 12 2 C10.35 2 8.7 2 7 2 C6.67 2.66 6.34 3.32 6 4 C3.03 3.505 3.03 3.505 0 3 C0 2.01 0 1.02 0 0 Z " fill="#E45C48" transform="translate(76,17)"/>
<path d="M0 0 C1.73662334 3.22515763 2.8905928 6.51329166 4 10 C3.01 10.66 2.02 11.32 1 12 C-0.47075246 7.58774263 -1.36884358 4.51718381 0 0 Z " fill="#E35D38" transform="translate(45,62)"/>
<path d="M0 0 C5.75 -0.125 5.75 -0.125 8 1 C8 2.65 8 4.3 8 6 C7.01 5.67 6.02 5.34 5 5 C4.3125 2.9375 4.3125 2.9375 4 1 C2.35 1.33 0.7 1.66 -1 2 C-0.67 1.34 -0.34 0.68 0 0 Z " fill="#D16B50" transform="translate(70,48)"/>
<path d="M0 0 C3.125 -0.1875 3.125 -0.1875 6 0 C6 0.99 6 1.98 6 3 C3.36 3 0.72 3 -2 3 C-1.34 2.01 -0.68 1.02 0 0 Z " fill="#E9583A" transform="translate(95,48)"/>
<path d="M0 0 C1.32 0.33 2.64 0.66 4 1 C4.33 2.98 4.66 4.96 5 7 C4.67 6.34 4.34 5.68 4 5 C3.01 5 2.02 5 1 5 C0.67 3.35 0.34 1.7 0 0 Z " fill="#EA6534" transform="translate(74,53)"/>
<path d="M0 0 C2.97 0.33 5.94 0.66 9 1 C9 1.66 9 2.32 9 3 C5.625 3.1875 5.625 3.1875 2 3 C1.34 2.01 0.68 1.02 0 0 Z " fill="#EE5E29" transform="translate(92,58)"/>
</svg>
