<?xml version="1.0" encoding="UTF-8"?>
<svg version="1.1" xmlns="http://www.w3.org/2000/svg" width="160" height="110">
<path d="M0 0 C0.81474792 -0.01283524 1.62949585 -0.02567047 2.46893311 -0.03889465 C3.34189026 -0.04628159 4.21484741 -0.05366852 5.11425781 -0.0612793 C6.02185852 -0.06935104 6.92945923 -0.07742279 7.86456299 -0.08573914 C9.78436385 -0.09955443 11.70418902 -0.11028798 13.62402344 -0.11816406 C15.57917521 -0.12967831 17.53429569 -0.15012131 19.48925781 -0.1796875 C22.3228072 -0.22252579 25.1554241 -0.2385558 27.98925781 -0.2487793 C28.85411804 -0.26628738 29.71897827 -0.28379547 30.61004639 -0.30183411 C36.42794731 -0.28126176 41.11301711 0.57775436 45.81738281 4.17700195 C50.23481956 9.73275969 50.39724878 14.56306867 50.31347656 21.4934082 C50.31493179 22.46809555 50.31638702 23.4427829 50.31788635 24.44700623 C50.31623301 26.49855553 50.30473539 28.55011797 50.28393555 30.6015625 C50.25493962 33.73336664 50.26334737 36.86348009 50.27636719 39.99536133 C50.27013018 41.99471847 50.26173953 43.9940703 50.25097656 45.9934082 C50.2539122 46.92480118 50.25684784 47.85619415 50.25987244 48.81581116 C50.18478228 54.01289048 49.73156002 57.69066261 46.81738281 62.17700195 C42.83109171 65.86432122 39.81697092 67.29079586 34.42529297 67.33813477 C33.54072418 67.34774231 32.6561554 67.35734985 31.74478149 67.36724854 C30.31505508 67.37362335 30.31505508 67.37362335 28.85644531 67.38012695 C27.8737265 67.38582703 26.89100769 67.3915271 25.87850952 67.3973999 C23.79890011 67.40684714 21.71927574 67.41338279 19.63964844 67.41723633 C16.461648 67.42694311 13.28429399 67.45796981 10.10644531 67.48950195 C8.08561582 67.49603207 6.0647817 67.5012825 4.04394531 67.50512695 C3.09484283 67.51747375 2.14574036 67.52982056 1.1678772 67.5425415 C-5.23193654 67.52098235 -8.57888815 66.49142777 -13.43261719 62.17700195 C-16.09788489 59.13098172 -16.31230899 56.51087345 -16.35961914 52.6171875 C-16.37245438 51.6958049 -16.38528961 50.7744223 -16.39851379 49.82511902 C-16.40590073 48.83135757 -16.41328766 47.83759613 -16.42089844 46.8137207 C-16.42897018 45.78898148 -16.43704193 44.76424225 -16.44535828 43.70845032 C-16.45919161 41.5388864 -16.46991712 39.36930079 -16.4777832 37.19970703 C-16.49499672 33.88768137 -16.53889043 30.57665376 -16.58300781 27.26489258 C-16.59313494 25.15617595 -16.60165098 23.04745085 -16.60839844 20.9387207 C-16.62590652 19.95103195 -16.64341461 18.9633432 -16.66145325 17.94572449 C-16.64281354 12.01505689 -16.08639489 8.71755643 -12.18261719 4.17700195 C-8.43271705 0.77865496 -4.96211383 0.06849974 0 0 Z " fill="#012C9C" transform="translate(64.1826171875,20.822998046875)"/>
<path d="M0 0 C0.81474792 -0.01283524 1.62949585 -0.02567047 2.46893311 -0.03889465 C3.34189026 -0.04628159 4.21484741 -0.05366852 5.11425781 -0.0612793 C6.02185852 -0.06935104 6.92945923 -0.07742279 7.86456299 -0.08573914 C9.78436385 -0.09955443 11.70418902 -0.11028798 13.62402344 -0.11816406 C15.57917521 -0.12967831 17.53429569 -0.15012131 19.48925781 -0.1796875 C22.3228072 -0.22252579 25.1554241 -0.2385558 27.98925781 -0.2487793 C28.85411804 -0.26628738 29.71897827 -0.28379547 30.61004639 -0.30183411 C36.42507379 -0.28127192 41.01633105 0.76168324 45.81738281 4.17700195 C50.06377985 9.05452316 50.3461656 13.85797296 50.06738281 20.11450195 C50.04933594 20.89374023 50.03128906 21.67297852 50.01269531 22.47583008 C49.96604665 24.37676327 49.8943211 26.27705364 49.81738281 28.17700195 C47.80118815 28.39469401 45.78499349 28.61238607 43.76879883 28.83007812 C41.69491438 29.07097124 41.69491438 29.07097124 39.75488281 30.48950195 C38.60386869 32.15404177 38.60386869 32.15404177 39.12988281 34.17700195 C39.35675781 34.83700195 39.58363281 35.49700195 39.81738281 36.17700195 C39.81738281 37.16700195 39.81738281 38.15700195 39.81738281 39.17700195 C38.82738281 39.17700195 37.83738281 39.17700195 36.81738281 39.17700195 C36.73101562 38.41516602 36.64464844 37.65333008 36.55566406 36.8684082 C35.16659755 26.66068089 32.37400298 19.62560076 24.17285156 13.1730957 C23.72554687 12.84438477 23.27824219 12.51567383 22.81738281 12.17700195 C23.29175781 13.06387695 23.76613281 13.95075195 24.25488281 14.86450195 C26.86710566 20.40241439 27.01520673 25.14337233 26.81738281 31.17700195 C26.48738281 31.83700195 26.15738281 32.49700195 25.81738281 33.17700195 C21.0430829 31.86916722 18.00280866 30.01146334 14.25488281 26.80200195 C13.34609375 26.03114258 12.43730469 25.2602832 11.50097656 24.46606445 C10.61539063 23.71067383 9.72980469 22.9552832 8.81738281 22.17700195 C7.16738281 20.85700195 5.51738281 19.53700195 3.81738281 18.17700195 C8.27238281 23.62200195 8.27238281 23.62200195 12.81738281 29.17700195 C8.84937737 29.17700195 7.76008316 27.75785099 4.75488281 25.23950195 C1.4728234 22.42301881 1.4728234 22.42301881 -2.18261719 20.17700195 C6.47042524 30.72880228 6.47042524 30.72880228 16.48925781 39.94262695 C17.14667969 40.55364258 17.14667969 40.55364258 17.81738281 41.17700195 C17.81738281 41.83700195 17.81738281 42.49700195 17.81738281 43.17700195 C11.81474359 45.70442899 5.61343639 46.34224625 -0.65136719 44.41918945 C-5.43269752 42.39509295 -10.76743049 40.00737535 -13.18261719 35.17700195 C-14.17261719 34.84700195 -15.16261719 34.51700195 -16.18261719 34.17700195 C-16.29929933 30.30225739 -16.3700295 26.427968 -16.43261719 22.55200195 C-16.46613281 21.45758789 -16.49964844 20.36317383 -16.53417969 19.2355957 C-16.61123086 12.87887417 -16.5127523 8.98024442 -12.18261719 4.17700195 C-8.43271705 0.77865496 -4.96211383 0.06849974 0 0 Z " fill="#03DCF7" transform="translate(64.1826171875,20.822998046875)"/>
<path d="M0 0 C7.36906391 3.68453196 11.5042475 9.74096472 14.33203125 17.3125 C15.27446526 21.10428128 15.11060186 24.64676048 14.94140625 28.52734375 C15.02089758 31.88187783 16.38553987 34.10742561 18 37 C18.1875 40.375 18.1875 40.375 18 43 C17.46375 42.505 16.9275 42.01 16.375 41.5 C13.18828186 39.48733591 11.75416541 39.51334893 8 40 C6.40581413 40.66194569 4.82328351 41.35230306 3.25 42.0625 C-3.11640311 44.7310522 -8.13675892 44.42669845 -14.5703125 42.05078125 C-20.55982631 39.29413957 -25.28454403 35.57056766 -30 31 C-29.67 30.34 -29.34 29.68 -29 29 C-28.19949219 29.433125 -28.19949219 29.433125 -27.3828125 29.875 C-19.49828557 33.80362242 -12.55776281 33.80163428 -4 32 C-4.680625 31.319375 -5.36125 30.63875 -6.0625 29.9375 C-6.52269531 29.47472656 -6.98289062 29.01195313 -7.45703125 28.53515625 C-8.4857566 27.51163964 -9.5249288 26.49851715 -10.57421875 25.49609375 C-22.53922122 13.92155756 -22.53922122 13.92155756 -26 7 C-22.24269753 8.6281644 -19.383177 11.01401917 -16.25 13.625 C-15.26515625 14.44226562 -14.2803125 15.25953125 -13.265625 16.1015625 C-12.51796875 16.72804688 -11.7703125 17.35453125 -11 18 C-12.36370299 15.00779732 -13.94908083 12.70973471 -16.125 10.25 C-16.66382812 9.63640625 -17.20265625 9.0228125 -17.7578125 8.390625 C-18.16773437 7.93171875 -18.57765625 7.4728125 -19 7 C-18.67 6.34 -18.34 5.68 -18 5 C-17.53851563 5.49628906 -17.07703125 5.99257813 -16.6015625 6.50390625 C-10.55085328 12.80573186 -3.94315403 18.2470419 4 22 C4.29309832 13.90722974 3.18427758 7.50579714 0 0 Z " fill="#01040D" transform="translate(86,32)"/>
<path d="M0 0 C2.4375 0.8125 2.4375 0.8125 5 2 C5.90238747 4.70716242 6.11851302 6.23776768 6.09765625 9.01171875 C6.09443359 9.76904297 6.09121094 10.52636719 6.08789062 11.30664062 C6.07951172 12.09232422 6.07113281 12.87800781 6.0625 13.6875 C6.05798828 14.48478516 6.05347656 15.28207031 6.04882812 16.10351562 C6.0370585 18.06904257 6.01912348 20.03453085 6 22 C3.98380534 22.21769206 1.96761068 22.43538411 -0.04858398 22.65307617 C-2.12246843 22.89396929 -2.12246843 22.89396929 -4.0625 24.3125 C-5.21351412 25.97703981 -5.21351412 25.97703981 -4.6875 28 C-4.3471875 28.99 -4.3471875 28.99 -4 30 C-4 30.99 -4 31.98 -4 33 C-4.99 33 -5.98 33 -7 33 C-7.08636719 32.23816406 -7.17273438 31.47632812 -7.26171875 30.69140625 C-8.64504794 20.52584038 -11.38289247 13.43530642 -19.64453125 7.09375 C-20.09183594 6.7328125 -20.53914063 6.371875 -21 6 C-21 5.67 -21 5.34 -21 5 C-8.14606742 0.61797753 -8.14606742 0.61797753 -1 3 C-0.67 2.01 -0.34 1.02 0 0 Z " fill="#02B8DB" transform="translate(108,27)"/>
<path d="M0 0 C0.79921875 0.00902344 1.5984375 0.01804687 2.421875 0.02734375 C3.02515625 0.03894531 3.6284375 0.05054687 4.25 0.0625 C4.18976735 1.66770004 4.10091401 3.27184327 4 4.875 C3.93039063 6.21498047 3.93039063 6.21498047 3.859375 7.58203125 C3.25 10.0625 3.25 10.0625 1.328125 11.88671875 C-0.75 13.0625 -0.75 13.0625 -2.75 13.0625 C-5.71662153 15.57963342 -6.99379851 17.28149253 -7.75 21.0625 C-9.75 23.0625 -9.75 23.0625 -12.875 23.1875 C-14.298125 23.125625 -14.298125 23.125625 -15.75 23.0625 C-17.35860931 17.28196898 -17.80660115 12.10023079 -15 6.6875 C-10.46643902 1.39834553 -6.89253527 -0.10136081 0 0 Z " fill="#01F1F9" transform="translate(64.75,20.9375)"/>
<path d="M0 0 C0.99 0.33 1.98 0.66 3 1 C3 1.66 3 2.32 3 3 C3.66 3 4.32 3 5 3 C8.88241885 10.27727812 10.27080199 15.74053945 10 24 C9.67 24.66 9.34 25.32 9 26 C4.18427336 24.68208664 1.05966534 22.76703894 -2.75 19.5625 C-3.69359375 18.78003906 -4.6371875 17.99757813 -5.609375 17.19140625 C-8 15 -8 15 -10 12 C-9.030625 12.020625 -8.06125 12.04125 -7.0625 12.0625 C-4.12534105 12.35618499 -4.12534105 12.35618499 -3 11 C-2.71778828 8.41977858 -2.55179803 5.83969815 -2.37890625 3.25 C-2.25386719 2.5075 -2.12882812 1.765 -2 1 C-1.34 0.67 -0.68 0.34 0 0 Z " fill="#05A5F3" transform="translate(81,28)"/>
<path d="M0 0 C0.639375 0.66 1.27875 1.32 1.9375 2 C5.18518339 5.27584249 8.69968251 8.23806518 12.20703125 11.23046875 C12.79871094 11.81441406 13.39039062 12.39835937 14 13 C14 13.66 14 14.32 14 15 C7.97907623 17.5351258 1.82718038 18.12029806 -4.46875 16.27734375 C-9.29301956 14.29135278 -12.60433413 11.94335391 -16 8 C-15.21625 7.896875 -14.4325 7.79375 -13.625 7.6875 C-8.9676024 6.80420046 -4.51807851 5.41971242 0 4 C0 2.68 0 1.36 0 0 Z " fill="#1087F3" transform="translate(68,49)"/>
<path d="M0 0 C0.33 1.32 0.66 2.64 1 4 C2.258125 3.649375 3.51625 3.29875 4.8125 2.9375 C7.94716388 2.06390515 8.78282108 1.92760703 12 3 C12.33 2.01 12.66 1.02 13 0 C14.18163051 1.21478851 15.34482835 2.44752408 16.5 3.6875 C17.1496875 4.37199219 17.799375 5.05648437 18.46875 5.76171875 C20.27813784 8.40656372 20.3077917 9.86162389 20 13 C18.11414655 13.89630674 16.21578923 14.76633875 14.3125 15.625 C12.72888672 16.35589844 12.72888672 16.35589844 11.11328125 17.1015625 C7.45656225 18.15682645 6.29390007 17.73953837 3 16 C2.01 15.67 1.02 15.34 0 15 C0 10.05 0 5.1 0 0 Z " fill="#03D2FA" transform="translate(48,40)"/>
<path d="M0 0 C4.16642697 -0.11703447 8.3324259 -0.18753101 12.5 -0.25 C13.67304687 -0.28351562 14.84609375 -0.31703125 16.0546875 -0.3515625 C23.17296 -0.43154309 28.02977402 -0.02845346 34 4 C34.495 5.485 34.495 5.485 35 7 C34.01 7 33.02 7 32 7 C31.67 7.66 31.34 8.32 31 9 C27.5834948 9.08724706 24.16727687 9.14047325 20.75 9.1875 C19.78191406 9.21263672 18.81382813 9.23777344 17.81640625 9.26367188 C16.88183594 9.27333984 15.94726562 9.28300781 14.984375 9.29296875 C14.12553711 9.3086792 13.26669922 9.32438965 12.38183594 9.34057617 C9.45781162 8.92247306 8.09007998 8.06620544 6 6 C6 5.01 6 4.02 6 3 C4.35 3 2.7 3 1 3 C0.67 2.01 0.34 1.02 0 0 Z " fill="#01E8F4" transform="translate(76,21)"/>
<path d="M0 0 C4.36252275 1.09063069 5.31911809 1.54079754 8 5 C9.19456921 7.94829848 10.13684986 10.9397404 11 14 C7.12315913 15.19287411 4.08378077 16 0 16 C0 10.72 0 5.44 0 0 Z " fill="#0152AD" transform="translate(48,55)"/>
<path d="M0 0 C4.8416645 4.8416645 6.07784266 8.59903399 6.1875 15.3125 C6 19 6 19 5 21 C0.00724943 19.72278474 -2.57611908 17.82669043 -6 14 C-3.03 14.495 -3.03 14.495 0 15 C0 10.05 0 5.1 0 0 Z " fill="#1356C9" transform="translate(85,33)"/>
<path d="M0 0 C0.99 0.86625 1.98 1.7325 3 2.625 C6.86190708 5.94197541 10.89447006 8.99283262 15 12 C14.01 12.33 13.02 12.66 12 13 C12 13.99 12 14.98 12 16 C11.360625 16.12375 10.72125 16.2475 10.0625 16.375 C9.381875 16.58125 8.70125 16.7875 8 17 C7.67 17.66 7.34 18.32 7 19 C5.2236727 17.10907094 3.4539586 15.21261247 1.6875 13.3125 C1.18798828 12.78205078 0.68847656 12.25160156 0.17382812 11.70507812 C-2.65787248 8.64834171 -4.99525903 5.68790233 -7 2 C-3.24269753 3.6281644 -0.383177 6.01401917 2.75 8.625 C3.73484375 9.44226562 4.7196875 10.25953125 5.734375 11.1015625 C6.85585937 12.04128906 6.85585937 12.04128906 8 13 C6.29763764 9.24819169 3.99747453 6.60488836 1.2421875 3.5859375 C0 2 0 2 0 0 Z " fill="#020D1D" transform="translate(67,37)"/>
<path d="M0 0 C1.98 0 3.96 0 6 0 C6 0.99 6 1.98 6 3 C10.17737474 4.59138085 13.53160785 5.21278058 18 5 C17.01 6.485 17.01 6.485 16 8 C13.0625 8.375 13.0625 8.375 10 8 C8.375 6.5 8.375 6.5 7 5 C5.68 5 4.36 5 3 5 C3 8.3 3 11.6 3 15 C1.02 15.99 1.02 15.99 -1 17 C-0.9278125 16.443125 -0.855625 15.88625 -0.78125 15.3125 C-0.15508783 10.1640555 0.09427945 5.18536962 0 0 Z " fill="#04C8FB" transform="translate(76,24)"/>
<path d="M0 0 C2.03833424 1.2739589 4.03852126 2.61061923 6 4 C6 4.66 6 5.32 6 6 C0.21119192 8.43739287 -6.12862018 9.18960694 -12.19921875 7.32421875 C-13.83374216 6.62465599 -15.42370928 5.82241255 -17 5 C-14.54254422 4.24385976 -12.72215712 4.01208013 -10.125 4.125 C-6.26683405 3.97067336 -2.79857997 2.79857997 0 0 Z " fill="#1641C3" transform="translate(76,58)"/>
<path d="M0 0 C1.32 1.32 2.64 2.64 4 4 C3.01 4.66 2.02 5.32 1 6 C0.67 6.99 0.34 7.98 0 9 C-3.60505865 11.40337243 -4.90246946 11.13664135 -9.125 10.75 C-10.20007812 10.66234375 -11.27515625 10.5746875 -12.3828125 10.484375 C-13.24648438 10.32453125 -14.11015625 10.1646875 -15 10 C-15.33 9.34 -15.66 8.68 -16 8 C-15.21625 7.896875 -14.4325 7.79375 -13.625 7.6875 C-8.9676024 6.80420046 -4.51807851 5.41971242 0 4 C0 2.68 0 1.36 0 0 Z " fill="#069FF9" transform="translate(68,49)"/>
<path d="M0 0 C0.99 0 1.98 0 3 0 C3.12181641 1.07314453 3.12181641 1.07314453 3.24609375 2.16796875 C4.1751191 5.6578308 5.74858634 7.55784089 8.0625 10.3125 C8.79597656 11.19550781 9.52945313 12.07851563 10.28515625 12.98828125 C10.85105469 13.65214844 11.41695312 14.31601562 12 15 C8.06517853 15 6.95078791 13.65049674 3.9375 11.1875 C3.05964844 10.47980469 2.18179688 9.77210937 1.27734375 9.04296875 C-1 7 -1 7 -3 4 C-2.01 4 -1.02 4 0 4 C0 2.68 0 1.36 0 0 Z " fill="#14BEE6" transform="translate(65,35)"/>
<path d="M0 0 C0.66 0.33 1.32 0.66 2 1 C2 2.65 2 4.3 2 6 C0.11414655 6.89630674 -1.78421077 7.76633875 -3.6875 8.625 C-4.74324219 9.11226562 -5.79898438 9.59953125 -6.88671875 10.1015625 C-10.47935093 11.13833214 -11.7782945 10.75729391 -15 9 C-13 8 -13 8 -11 7.5625 C-8.79104906 7.11721638 -8.79104906 7.11721638 -7 5 C-4.68351201 3.96157435 -2.35096976 2.9578025 0 2 C0 1.34 0 0.68 0 0 Z " fill="#04B5F9" transform="translate(66,47)"/>
<path d="M0 0 C1.32 0.33 2.64 0.66 4 1 C4 2.32 4 3.64 4 5 C4.99 5.33 5.98 5.66 7 6 C8.37001429 9.1967 7.8252404 11.69903842 7 15 C7.66 15 8.32 15 9 15 C9 16.98 9 18.96 9 21 C8.01 21 7.02 21 6 21 C5.85304688 19.85724609 5.85304688 19.85724609 5.703125 18.69140625 C4.71553885 11.87195358 3.18285413 6.11849629 0 0 Z " fill="#0E96C5" transform="translate(95,39)"/>
<path d="M0 0 C3.75730247 1.6281644 6.616823 4.01401917 9.75 6.625 C11.22726563 7.85089844 11.22726563 7.85089844 12.734375 9.1015625 C13.85585937 10.04128906 13.85585937 10.04128906 15 11 C14.01 11.33 13.02 11.66 12 12 C11.67 12.66 11.34 13.32 11 14 C9.16369327 11.85664848 7.33085819 9.71049702 5.5 7.5625 C4.71302734 6.64500977 4.71302734 6.64500977 3.91015625 5.70898438 C0 1.11328125 0 1.11328125 0 0 Z " fill="#002B3D" transform="translate(60,39)"/>
<path d="M0 0 C0.33 0 0.66 0 1 0 C1 2.64 1 5.28 1 8 C-3.4571874 7.73781251 -5.51522698 7.42288711 -8.9375 4.4375 C-9.618125 3.633125 -10.29875 2.82875 -11 2 C-9.35 2 -7.7 2 -6 2 C-6 2.66 -6 3.32 -6 4 C-4.35 3.67 -2.7 3.34 -1 3 C-0.67 2.01 -0.34 1.02 0 0 Z " fill="#108BEA" transform="translate(84,40)"/>
<path d="M0 0 C0.99 0.33 1.98 0.66 3 1 C2.745504 2.48206495 2.47088238 3.96068615 2.1875 5.4375 C2.03667969 6.26121094 1.88585937 7.08492187 1.73046875 7.93359375 C1.48941406 8.61550781 1.24835938 9.29742187 1 10 C0.01 10.33 -0.98 10.66 -2 11 C-2 7.7 -2 4.4 -2 1 C-1.34 0.67 -0.68 0.34 0 0 Z " fill="#01B2F8" transform="translate(81,28)"/>
<path d="M0 0 C1.875 1.5 1.875 1.5 3 3 C3.66 2.34 4.32 1.68 5 1 C5 2.32 5 3.64 5 5 C1.125 4.125 1.125 4.125 0 3 C-3 2.83333333 -3 2.83333333 -6 3 C-6.33 3.33 -6.66 3.66 -7 4 C-8.66617115 4.04063832 -10.33388095 4.042721 -12 4 C-11 2 -11 2 -8.8125 0.875 C-5.64700043 -0.10982209 -3.29588298 -0.35824815 0 0 Z " fill="#052871" transform="translate(100,71)"/>
<path d="M0 0 C11.52164009 0.77904328 11.52164009 0.77904328 17 3 C17 3.33 17 3.66 17 4 C10.48208608 4.3540919 5.82478551 4.03901852 0 1 C0 0.67 0 0.34 0 0 Z " fill="#1B4EAF" transform="translate(59,62)"/>
<path d="M0 0 C0.99 0 1.98 0 3 0 C5.23269231 7.44230769 5.23269231 7.44230769 4.0546875 10.265625 C3.70664063 10.83796875 3.35859375 11.4103125 3 12 C2.30062798 10.5682384 1.61587282 9.12932968 0.9375 7.6875 C0.55464844 6.88699219 0.17179687 6.08648437 -0.22265625 5.26171875 C-1 3 -1 3 0 0 Z " fill="#074F92" transform="translate(101,60)"/>
<path d="M0 0 C-5.80833568 4.03356644 -11.23394985 2.908709 -18 2 C-18 1.67 -18 1.34 -18 1 C-15.37583048 0.63835477 -12.75099687 0.28538847 -10.125 -0.0625 C-9.37863281 -0.16626953 -8.63226563 -0.27003906 -7.86328125 -0.37695312 C-2.2265625 -1.11328125 -2.2265625 -1.11328125 0 0 Z " fill="#0865E1" transform="translate(75,60)"/>
<path d="M0 0 C0.99 0.33 1.98 0.66 3 1 C2.77211278 2.96102954 2.51694943 4.91890505 2.25 6.875 C2.11078125 7.96554688 1.9715625 9.05609375 1.828125 10.1796875 C1 13 1 13 -1.078125 14.3828125 C-1.71234375 14.58648437 -2.3465625 14.79015625 -3 15 C-3 12 -3 12 -1.5 10.3125 C0.7449015 6.85161019 0.20378728 4.07574551 0 0 Z " fill="#0597F8" transform="translate(83,30)"/>
<path d="M0 0 C4.18423892 3.50897269 8.19588166 7.08060535 12 11 C7.68819268 10.51594564 5.9410446 9.37995134 3.1875 6.0625 C2.58292969 5.35222656 1.97835937 4.64195313 1.35546875 3.91015625 C0 2 0 2 0 0 Z " fill="#002C46" transform="translate(67,37)"/>
<path d="M0 0 C1.32 1.32 2.64 2.64 4 4 C3.01 4.66 2.02 5.32 1 6 C0.67 6.99 0.34 7.98 0 9 C-2.0625 10.1875 -2.0625 10.1875 -4 11 C-3.21681311 7.08406554 -1.60820142 3.63593365 0 0 Z " fill="#0894ED" transform="translate(68,49)"/>
<path d="M0 0 C2.88575819 0.39803561 3.82189513 0.79009069 5.75 3.0625 C6.1625 3.701875 6.575 4.34125 7 5 C6.01 5.66 5.02 6.32 4 7 C4 6.34 4 5.68 4 5 C2.68 5 1.36 5 0 5 C0 3.35 0 1.7 0 0 Z " fill="#0275C0" transform="translate(48,55)"/>
<path d="M0 0 C0.33 0 0.66 0 1 0 C1 2.31 1 4.62 1 7 C-0.48199902 6.55090939 -1.96055236 6.09043436 -3.4375 5.625 C-4.26121094 5.36976562 -5.08492188 5.11453125 -5.93359375 4.8515625 C-8 4 -8 4 -9 2 C-7.6078125 2.3403125 -7.6078125 2.3403125 -6.1875 2.6875 C-3.03451098 3.36931802 -3.03451098 3.36931802 -1.1875 1.5625 C-0.795625 1.046875 -0.40375 0.53125 0 0 Z " fill="#1152D1" transform="translate(88,45)"/>
<path d="M0 0 C0.99 0.495 0.99 0.495 2 1 C2 1.99 2 2.98 2 4 C2.66 4 3.32 4 4 4 C4 5.98 4 7.96 4 10 C3.01 10 2.02 10 1 10 C0.67 6.7 0.34 3.4 0 0 Z " fill="#1173B0" transform="translate(100,50)"/>
<path d="M0 0 C3.465 1.485 3.465 1.485 7 3 C7.33 2.34 7.66 1.68 8 1 C8 2.32 8 3.64 8 5 C6.02 5 4.04 5 2 5 C1.34 3.35 0.68 1.7 0 0 Z " fill="#040826" transform="translate(83,51)"/>
<path d="M0 0 C4.875 4.75 4.875 4.75 6 7 C3.69 6.67 1.38 6.34 -1 6 C-0.67 4.02 -0.34 2.04 0 0 Z " fill="#13C9E8" transform="translate(60,40)"/>
<path d="M0 0 C4.875 3.625 4.875 3.625 6 7 C2.63408134 5.55746343 0.48952921 3.66735273 -2 1 C-1.34 0.67 -0.68 0.34 0 0 Z " fill="#227FB3" transform="translate(71,44)"/>
<path d="M0 0 C3.26460973 1.80412643 4.88929795 2.83394693 7 6 C5.68 6.33 4.36 6.66 3 7 C0 2.25 0 2.25 0 0 Z " fill="#01244C" transform="translate(86,32)"/>
<path d="M0 0 C-0.99 1.485 -0.99 1.485 -2 3 C-5.125 3.1875 -5.125 3.1875 -8 3 C-8 2.34 -8 1.68 -8 1 C-5.29120665 -0.35439668 -2.99066732 -0.06501451 0 0 Z " fill="#02D0E6" transform="translate(94,29)"/>
<path d="M0 0 C4.95 1.98 4.95 1.98 10 4 C10 4.33 10 4.66 10 5 C8.02 5 6.04 5 4 5 C4 4.34 4 3.68 4 3 C2.68 2.67 1.36 2.34 0 2 C0 1.34 0 0.68 0 0 Z " fill="#0B2E7E" transform="translate(64,70)"/>
</svg>
