<?xml version="1.0" encoding="UTF-8"?>
<svg version="1.1" xmlns="http://www.w3.org/2000/svg" width="160" height="110">
<path d="M0 0 C11.54788923 0.71569833 23.65686295 4.81956718 32.25 12.625 C33.62368345 14.25856951 34.96937515 15.9175002 36.25 17.625 C37.11625 18.07875 37.9825 18.5325 38.875 19 C41.25 20.625 41.25 20.625 42.5625 23.9375 C43.1865537 27.28469714 43.41543433 30.23359615 43.25 33.625 C44.24 32.635 45.23 31.645 46.25 30.625 C47.01258253 38.58975086 45.32063514 43.79214816 41.25 50.625 C42.57 49.965 43.89 49.305 45.25 48.625 C44.33594583 56.39446047 39.32623379 60.73512676 33.859375 65.79296875 C27.83520975 70.02250992 21.76151389 71.18787706 14.5 71.125 C13.32256226 71.11533203 13.32256226 71.11533203 12.12133789 71.10546875 C1.65550724 70.77951726 -6.31165014 66.97448242 -13.84765625 59.73828125 C-18.18518995 54.91978899 -20.92083054 49.41806128 -23.75 43.625 C-24.41 42.635 -25.07 41.645 -25.75 40.625 C-25.69140625 38.64453125 -25.69140625 38.64453125 -25.3125 36.4375 C-24.82675216 33.15469867 -24.82889916 30.61968023 -25.5 27.375 C-25.62375 25.51875 -25.62375 25.51875 -25.75 23.625 C-24.12660195 21.91615995 -22.45680947 20.25053283 -20.75 18.625 C-20.28038348 16.63327234 -20.28038348 16.63327234 -20.1875 14.5 C-19.75 10.625 -19.75 10.625 -18.125 8.75 C-15.75 7.625 -15.75 7.625 -12.3125 6.75 C-8.6051395 5.90905359 -8.6051395 5.90905359 -6.375 3 C-3.75 0.625 -3.75 0.625 0 0 Z M17.25 15.625 C17.91 16.285 18.57 16.945 19.25 17.625 C19.58 16.965 19.91 16.305 20.25 15.625 C19.26 15.625 18.27 15.625 17.25 15.625 Z M37.25 19.625 C38.25 21.625 38.25 21.625 38.25 21.625 Z M38.25 21.625 C37.940625 22.594375 37.63125 23.56375 37.3125 24.5625 C35.25 27.625 35.25 27.625 33.46875 28.3515625 C25.97567562 29.51896177 18.45324875 27.35360879 11.54296875 24.51171875 C8.57808379 23.36516188 7.24849734 23.60112286 4.25 24.625 C-0.66560083 27.23327799 -3.94721124 30.30778595 -5.75 35.625 C-6.73309602 41.7743659 -5.8371334 46.57319503 -2.91796875 52.03125 C-1.66879755 53.92703014 -1.66879755 53.92703014 1.25 55.625 C1.25 53.645 1.25 51.665 1.25 49.625 C1.72308594 50.08390625 2.19617188 50.5428125 2.68359375 51.015625 C8.12992144 56.06913763 13.70521662 60.25399727 21.3125 60.875 C21.951875 60.7925 22.59125 60.71 23.25 60.625 C21.6 59.305 19.95 57.985 18.25 56.625 C19.00925781 56.37105469 19.76851562 56.11710937 20.55078125 55.85546875 C21.54464844 55.51128906 22.53851563 55.16710937 23.5625 54.8125 C24.54863281 54.47605469 25.53476563 54.13960937 26.55078125 53.79296875 C29.12129759 52.68069033 30.47191977 51.74291809 32.25 49.625 C30.6 49.295 28.95 48.965 27.25 48.625 C27.971875 47.944375 28.69375 47.26375 29.4375 46.5625 C35.61727041 40.33006109 39.32725296 34.22760689 39.375 25.1875 C39.33375 24.011875 39.2925 22.83625 39.25 21.625 C38.92 21.625 38.59 21.625 38.25 21.625 Z " fill="#C3188D" transform="translate(69.75,19.375)"/>
<path d="M0 0 C13.22735744 0.81978597 26.24544807 5.93084131 35.3125 15.6875 C37.41597731 18.87664302 38.25 20.80672473 38.25 24.625 C37.375 26.9375 37.375 26.9375 35.25 28.625 C26.98988134 31.26390005 18.40714392 28.30244404 10.6875 25.1875 C8.06365288 23.50554672 6.61568691 22.43670834 5.25 19.625 C5.5625 16.5625 5.5625 16.5625 6.25 13.625 C6.25 12.635 6.25 11.645 6.25 10.625 C3.94 9.635 1.63 8.645 -0.75 7.625 C-0.75 7.295 -0.75 6.965 -0.75 6.625 C0.9 6.625 2.55 6.625 4.25 6.625 C4.25 5.965 4.25 5.305 4.25 4.625 C1.61 4.625 -1.03 4.625 -3.75 4.625 C-3.75 5.285 -3.75 5.945 -3.75 6.625 C-6.75 8.625 -6.75 8.625 -9.75 8.625 C-10.08 9.615 -10.41 10.605 -10.75 11.625 C-12.85142986 13.83703143 -14.95296331 15.96779431 -17.30859375 17.91015625 C-22.86926663 24.52569932 -22.14606864 36.48358904 -21.75 44.625 C-23.76953125 42.890625 -23.76953125 42.890625 -25.75 40.625 C-25.88671875 38.546875 -25.88671875 38.546875 -25.4375 36.375 C-24.86845076 33.0799339 -24.81255059 30.64502965 -25.5 27.375 C-25.62375 25.51875 -25.62375 25.51875 -25.75 23.625 C-24.12660195 21.91615995 -22.45680947 20.25053283 -20.75 18.625 C-20.28038348 16.63327234 -20.28038348 16.63327234 -20.1875 14.5 C-19.75 10.625 -19.75 10.625 -18.125 8.75 C-15.75 7.625 -15.75 7.625 -12.3125 6.75 C-8.6051395 5.90905359 -8.6051395 5.90905359 -6.375 3 C-3.75 0.625 -3.75 0.625 0 0 Z M17.25 15.625 C17.91 16.285 18.57 16.945 19.25 17.625 C19.58 16.965 19.91 16.305 20.25 15.625 C19.26 15.625 18.27 15.625 17.25 15.625 Z " fill="#D1128D" transform="translate(69.75,19.375)"/>
<path d="M0 0 C2.01744384 0.007054 4.03374234 0.1258038 6.046875 0.2578125 C6.046875 1.2478125 6.046875 2.2378125 6.046875 3.2578125 C4.066875 3.2578125 2.086875 3.2578125 0.046875 3.2578125 C0.046875 3.9178125 0.046875 4.5778125 0.046875 5.2578125 C-2.953125 7.2578125 -2.953125 7.2578125 -5.953125 7.2578125 C-6.283125 8.2478125 -6.613125 9.2378125 -6.953125 10.2578125 C-9.05455486 12.46984393 -11.15608831 14.60060681 -13.51171875 16.54296875 C-19.07239163 23.15851182 -18.34919364 35.11640154 -17.953125 43.2578125 C-19.97265625 41.5234375 -19.97265625 41.5234375 -21.953125 39.2578125 C-22.08984375 37.1796875 -22.08984375 37.1796875 -21.640625 35.0078125 C-21.07157576 31.7127464 -21.01567559 29.27784215 -21.703125 26.0078125 C-21.826875 24.1515625 -21.826875 24.1515625 -21.953125 22.2578125 C-20.32972695 20.54897245 -18.65993447 18.88334533 -16.953125 17.2578125 C-16.48350848 15.26608484 -16.48350848 15.26608484 -16.390625 13.1328125 C-15.953125 9.2578125 -15.953125 9.2578125 -14.328125 7.3828125 C-11.953125 6.2578125 -11.953125 6.2578125 -8.390625 5.3203125 C-4.88059834 4.62823051 -4.88059834 4.62823051 -3.515625 2.1328125 C-1.953125 0.2578125 -1.953125 0.2578125 0 0 Z " fill="#E51696" transform="translate(65.953125,20.7421875)"/>
<path d="M0 0 C-0.66 0 -1.32 0 -2 0 C-2 0.66 -2 1.32 -2 2 C-2.55429688 2.13535156 -3.10859375 2.27070313 -3.6796875 2.41015625 C-5.98100333 3.09399921 -7.93031054 3.77508175 -10 5 C-11.61135346 8.54863159 -11.61135346 8.54863159 -12 12 C-9.36 12.66 -6.72 13.32 -4 14 C-4 14.66 -4 15.32 -4 16 C-10.75 15.25 -10.75 15.25 -13 13 C-13.625 10.875 -13.625 10.875 -14 9 C-17.08914085 9.33097938 -18.0026931 10.00284699 -20.1875 12.3125 C-21.79407709 14.69466602 -22.58574686 16.20379133 -23 19 C-22.34 19 -21.68 19 -21 19 C-21 18.34 -21 17.68 -21 17 C-19.35 16.34 -17.7 15.68 -16 15 C-15 17 -15 17 -15.5625 18.9375 C-17 21 -17 21 -19.8125 22.25 C-24.10918431 24.60896394 -25.72855844 27.7686863 -28 32 C-29.97844403 26.33945179 -27.92424419 20.44769132 -26 15 C-23.98549455 11.9307299 -21.6901531 9.48227763 -19 7 C-18.49855469 6.45988281 -17.99710938 5.91976563 -17.48046875 5.36328125 C-15.29364235 3.34955456 -12.81510668 2.81325304 -10 2 C-10 1.34 -10 0.68 -10 0 C-6.33694766 -0.74926071 -3.57644848 -1.2380014 0 0 Z " fill="#952285" transform="translate(76,24)"/>
<path d="M0 0 C1.875 0.5625 1.875 0.5625 4 2 C5.70060271 6.42156704 6.23002629 10.28446112 6 15 C6.99 14.01 7.98 13.02 9 12 C9.3540919 18.51791392 9.03901852 23.17521449 6 29 C5.01 28.34 4.02 27.68 3 27 C3 26.01 3 25.02 3 24 C2.401875 24.20625 1.80375 24.4125 1.1875 24.625 C-1 25 -1 25 -4 23 C-3.72285156 22.46890625 -3.44570312 21.9378125 -3.16015625 21.390625 C-2.79792969 20.68421875 -2.43570313 19.9778125 -2.0625 19.25 C-1.70285156 18.55390625 -1.34320313 17.8578125 -0.97265625 17.140625 C1.51047886 11.67573326 1.90802524 5.72407572 0 0 Z " fill="#5C2A88" transform="translate(107,38)"/>
<path d="M0 0 C0.66 0 1.32 0 2 0 C1.67 1.32 1.34 2.64 1 4 C1.66 4 2.32 4 3 4 C3 3.34 3 2.68 3 2 C4.65 1.34 6.3 0.68 8 0 C9 2 9 2 8.4375 3.9375 C7 6 7 6 4.1875 7.25 C-0.10918431 9.60896394 -1.72855844 12.7686863 -4 17 C-5.69691895 11.55773852 -3.98110003 6.96220007 -1.5 2 C-1.005 1.34 -0.51 0.68 0 0 Z " fill="#6C257D" transform="translate(52,39)"/>
<path d="M0 0 C0.3125 2.8125 0.3125 2.8125 0 6 C-2.38892501 7.88599343 -3.91851558 9 -7 9 C-7.04898438 9.62648438 -7.09796875 10.25296875 -7.1484375 10.8984375 C-7.22320312 11.71570312 -7.29796875 12.53296875 -7.375 13.375 C-7.44460937 14.18710937 -7.51421875 14.99921875 -7.5859375 15.8359375 C-8 18 -8 18 -10 20 C-11.18793659 15.30814959 -11.74494704 11.59323933 -9.6484375 7.109375 C-4.875 0 -4.875 0 0 0 Z " fill="#B91A90" transform="translate(58,46)"/>
<path d="M0 0 C2.125 0.375 2.125 0.375 4 1 C3.7834375 1.87398437 3.7834375 1.87398437 3.5625 2.765625 C2.01885182 9.58340445 1.78433846 16.02694354 2 23 C-0.01953125 21.265625 -0.01953125 21.265625 -2 19 C-2.13671875 16.921875 -2.13671875 16.921875 -1.6875 14.75 C-1.13526183 11.47446969 -1.02456656 8.84389399 -1.5625 5.5625 C-1.706875 4.386875 -1.85125 3.21125 -2 2 C-1.34 1.34 -0.68 0.68 0 0 Z " fill="#C22496" transform="translate(46,41)"/>
<path d="M0 0 C3.3 0 6.6 0 10 0 C9.67 1.65 9.34 3.3 9 5 C3.375 6.125 3.375 6.125 0 5 C0 3.35 0 1.7 0 0 Z " fill="#E51591" transform="translate(65,30)"/>
<path d="M0 0 C1 3 1 3 0.07421875 5.0078125 C-0.38339844 5.70648438 -0.84101562 6.40515625 -1.3125 7.125 C-1.98732422 8.18074219 -1.98732422 8.18074219 -2.67578125 9.2578125 C-4 11 -4 11 -6 12 C-6.66 9.36 -7.32 6.72 -8 4 C-6.865625 3.525625 -5.73125 3.05125 -4.5625 2.5625 C-1.24259834 1.36377917 -1.24259834 1.36377917 0 0 Z " fill="#8B298B" transform="translate(114,68)"/>
<path d="M0 0 C0.12375 0.78375 0.2475 1.5675 0.375 2.375 C0.79117993 5.14057822 0.79117993 5.14057822 3 7 C2.01 7.66 1.02 8.32 0 9 C0 8.01 0 7.02 0 6 C-0.8971875 6.309375 -0.8971875 6.309375 -1.8125 6.625 C-4 7 -4 7 -7 5 C-5.25712466 2.38568699 -3.44910983 0 0 0 Z " fill="#70298B" transform="translate(110,56)"/>
<path d="M0 0 C-0.66 1.32 -1.32 2.64 -2 4 C-2.99 4 -3.98 4 -5 4 C-6.89739368 5.5334075 -6.89739368 5.5334075 -8.6875 7.5 C-9.31011719 8.1496875 -9.93273438 8.799375 -10.57421875 9.46875 C-11.04472656 9.9740625 -11.51523437 10.479375 -12 11 C-12 7.45459812 -11.40614728 6.93992636 -9.125 4.375 C-8.59132813 3.76398437 -8.05765625 3.15296875 -7.5078125 2.5234375 C-4.87966868 -0.13194097 -3.92720424 0 0 0 Z " fill="#882786" transform="translate(63,30)"/>
<path d="M0 0 C0.33 0 0.66 0 1 0 C1.05402274 2.10388569 1.09280256 4.20816714 1.125 6.3125 C1.14820313 7.48425781 1.17140625 8.65601563 1.1953125 9.86328125 C1 13 1 13 -1 16 C-2.24327778 10.15659442 -1.57300962 5.73303505 0 0 Z " fill="#E71091" transform="translate(51,55)"/>
<path d="M0 0 C0.33 0 0.66 0 1 0 C1.05395478 1.62463842 1.09277195 3.24978541 1.125 4.875 C1.14820313 5.77992187 1.17140625 6.68484375 1.1953125 7.6171875 C1 10 1 10 -1 12 C-1.22162329 10.37675914 -1.42689803 8.751279 -1.625 7.125 C-1.74101563 6.22007813 -1.85703125 5.31515625 -1.9765625 4.3828125 C-1.98429687 3.59648438 -1.99203125 2.81015625 -2 2 C-1.34 1.34 -0.68 0.68 0 0 Z " fill="#A6157F" transform="translate(49,54)"/>
<path d="M0 0 C0.66 0.66 1.32 1.32 2 2 C1.25675659 4.39489543 0.52942646 5.70777616 -1.69140625 6.93359375 C-3.44073501 7.67219923 -5.21934149 8.34049685 -7 9 C-6.34 7.68 -5.68 6.36 -5 5 C-4.34 5 -3.68 5 -3 5 C-3 4.01 -3 3.02 -3 2 C-2.01 1.34 -1.02 0.68 0 0 Z " fill="#892588" transform="translate(59,39)"/>
<path d="M0 0 C0.33 0.99 0.66 1.98 1 3 C-0.4375 5.6875 -0.4375 5.6875 -2 8 C-2.66 7.34 -3.32 6.68 -4 6 C-4 5.01 -4 4.02 -4 3 C-2 1.3125 -2 1.3125 0 0 Z " fill="#772787" transform="translate(114,68)"/>
<path d="M0 0 C0.6875 1.8125 0.6875 1.8125 1 4 C-0.1875 5.8125 -0.1875 5.8125 -2 7 C-4.1875 6.6875 -4.1875 6.6875 -6 6 C-5.38125 5.7525 -4.7625 5.505 -4.125 5.25 C-1.64931313 3.79371361 -1.04874998 2.62187494 0 0 Z " fill="#992189" transform="translate(102,62)"/>
<path d="M0 0 C0.99 0.66 1.98 1.32 3 2 C2.2884375 2.6496875 2.2884375 2.6496875 1.5625 3.3125 C-0.23686957 5.02309613 -0.23686957 5.02309613 -1 8 C-1.99 8 -2.98 8 -4 8 C-2.66666667 5.33333333 -1.33333333 2.66666667 0 0 Z " fill="#DB1A99" transform="translate(51,34)"/>
<path d="M0 0 C-0.66 0 -1.32 0 -2 0 C-2 0.66 -2 1.32 -2 2 C-4.64 2 -7.28 2 -10 2 C-10 1.34 -10 0.68 -10 0 C-6.33694766 -0.74926071 -3.57644848 -1.2380014 0 0 Z " fill="#AC238B" transform="translate(76,24)"/>
<path d="M0 0 C0.99 0 1.98 0 3 0 C3.125 2.875 3.125 2.875 3 6 C2.34 6.66 1.68 7.32 1 8 C0.67 5.36 0.34 2.72 0 0 Z " fill="#DE189A" transform="translate(44,43)"/>
<path d="M0 0 C1.65 0 3.3 0 5 0 C5.33 0.99 5.66 1.98 6 3 C4.35 3.33 2.7 3.66 1 4 C0.67 2.68 0.34 1.36 0 0 Z " fill="#8F268B" transform="translate(72,40)"/>
<path d="M0 0 C-1.3125 1.5 -1.3125 1.5 -3 3 C-3.99 3 -4.98 3 -6 3 C-6.33 3.99 -6.66 4.98 -7 6 C-7.33 5.34 -7.66 4.68 -8 4 C-7.67 3.01 -7.34 2.02 -7 1 C-4.53721199 -0.231394 -2.7204945 -0.07159196 0 0 Z " fill="#D11B91" transform="translate(66,25)"/>
<path d="M0 0 C1.45792884 -0.05399736 2.91642712 -0.09279177 4.375 -0.125 C5.18710938 -0.14820312 5.99921875 -0.17140625 6.8359375 -0.1953125 C9 0 9 0 11 2 C9.35 2.33 7.7 2.66 6 3 C6 2.34 6 1.68 6 1 C4.02 1 2.04 1 0 1 C0 0.67 0 0.34 0 0 Z " fill="#D12391" transform="translate(66,20)"/>
</svg>
