<?xml version="1.0" encoding="UTF-8"?>
<svg version="1.1" xmlns="http://www.w3.org/2000/svg" width="160" height="110">
<path d="M0 0 C34.32 0 68.64 0 104 0 C104 19.14 104 38.28 104 58 C69.68 58 35.36 58 0 58 C0 38.86 0 19.72 0 0 Z " fill="#0664BE" transform="translate(28,26)"/>
<path d="M0 0 C2.4417818 0.32557091 3.66714121 0.61958995 5.3125 2.5 C7.87090826 4.77414067 10.67772091 4.57716448 14 5 C16 7 16 7 16.1953125 9.3828125 C16.17210938 10.28773437 16.14890625 11.19265625 16.125 12.125 C16.10695313 13.03507812 16.08890625 13.94515625 16.0703125 14.8828125 C16.04710938 15.58148438 16.02390625 16.28015625 16 17 C15.01 17 14.02 17 13 17 C13 14.03 13 11.06 13 8 C12.01 8.33 11.02 8.66 10 9 C9.67 11.64 9.34 14.28 9 17 C7.68 17 6.36 17 5 17 C4.67 13.04 4.34 9.08 4 5 C3.67 5 3.34 5 3 5 C3 8.96 3 12.92 3 17 C1.68 17 0.36 17 -1 17 C-1.02684679 14.35409986 -1.04676357 11.70846904 -1.0625 9.0625 C-1.07087891 8.30775391 -1.07925781 7.55300781 -1.08789062 6.77539062 C-1.09652441 4.85005687 -1.05224333 2.92464419 -1 1 C-0.67 0.67 -0.34 0.34 0 0 Z " fill="#68A4D7" transform="translate(100,46)"/>
<path d="M0 0 C0.99 0 1.98 0 3 0 C3 0.99 3 1.98 3 3 C2.34 3 1.68 3 1 3 C1 3.66 1 4.32 1 5 C2.32 5 3.64 5 5 5 C5.33 4.01 5.66 3.02 6 2 C6.66 2 7.32 2 8 2 C8 3.32 8 4.64 8 6 C8.99 6 9.98 6 11 6 C11 6.66 11 7.32 11 8 C10.01 8 9.02 8 8 8 C8 10.31 8 12.62 8 15 C8.99 15 9.98 15 11 15 C11 15.66 11 16.32 11 17 C9.33388095 17.042721 7.66617115 17.04063832 6 17 C5 16 5 16 4.90234375 14.15234375 C4.95117188 11.07617188 4.95117188 11.07617188 5 8 C3.68 8 2.36 8 1 8 C1 10.97 1 13.94 1 17 C-0.32 17 -1.64 17 -3 17 C-4.45021541 7.02321685 -4.45021541 7.02321685 -2.625 2.875 C-1.77509601 1.89434155 -0.91761315 0.91761315 0 0 Z " fill="#CAE8F7" transform="translate(75,46)"/>
<path d="M0 0 C1.32 0.33 2.64 0.66 4 1 C4.33 2.32 4.66 3.64 5 5 C5.99 3.35 6.98 1.7 8 0 C11 1 11 1 12.1875 3.0625 C12.455625 3.701875 12.72375 4.34125 13 5 C13.66 3.35 14.32 1.7 15 0 C15.99 0 16.98 0 18 0 C17.68950274 1.43793392 17.3765224 2.8753318 17.0625 4.3125 C16.80146484 5.51326172 16.80146484 5.51326172 16.53515625 6.73828125 C16 9 16 9 15 12 C13.68 12 12.36 12 11 12 C10.67 10.02 10.34 8.04 10 6 C9.34 6 8.68 6 8 6 C7.67 7.98 7.34 9.96 7 12 C5.68 12 4.36 12 3 12 C2.01 8.04 1.02 4.08 0 0 Z " fill="#CFEFF9" transform="translate(46,51)"/>
<path d="M0 0 C1.670625 0.061875 1.670625 0.061875 3.375 0.125 C3.375 1.445 3.375 2.765 3.375 4.125 C0.405 3.63 0.405 3.63 -2.625 3.125 C-1.11836217 6.13827566 1.40666411 6.73556618 4.375 8.125 C4.5 11 4.5 11 4.375 14.125 C2.375 16.125 2.375 16.125 -1.125 16.3125 C-4.625 16.125 -4.625 16.125 -6.625 15.125 C-6.295 14.135 -5.965 13.145 -5.625 12.125 C-3.315 12.455 -1.005 12.785 1.375 13.125 C1.375 12.135 1.375 11.145 1.375 10.125 C-0.935 9.465 -3.245 8.805 -5.625 8.125 C-5.75 5.25 -5.75 5.25 -5.625 2.125 C-3.625 0.125 -3.625 0.125 0 0 Z " fill="#D9F4FC" transform="translate(40.625,46.875)"/>
<path d="M0 0 C1.32 0 2.64 0 4 0 C4 4.29 4 8.58 4 13 C5.98 13 7.96 13 10 13 C10 13.99 10 14.98 10 16 C6.7 16 3.4 16 0 16 C0 10.72 0 5.44 0 0 Z " fill="#E3F4FE" transform="translate(88,47)"/>
<path d="M0 0 C1 1 1 1 1.09765625 3.28515625 C1.08605469 4.20167969 1.07445313 5.11820313 1.0625 6.0625 C1.05347656 6.98160156 1.04445313 7.90070312 1.03515625 8.84765625 C1.02355469 9.55792969 1.01195313 10.26820312 1 11 C0.01 11 -0.98 11 -2 11 C-2 8.03 -2 5.06 -2 2 C-2.99 2.33 -3.98 2.66 -5 3 C-5.33 5.64 -5.66 8.28 -6 11 C-6.99 11 -7.98 11 -9 11 C-9 7.37 -9 3.74 -9 0 C-3.23076923 -1.15384615 -3.23076923 -1.15384615 0 0 Z " fill="#DBF7FC" transform="translate(115,52)"/>
<path d="M0 0 C3.96 0 7.92 0 12 0 C11.195625 0.556875 10.39125 1.11375 9.5625 1.6875 C6.59986389 4.36109844 6.25967332 5.10490021 6 9 C6.02437572 11.34006894 6.06191048 13.67346935 6.16015625 16.01171875 C6 18 6 18 4 20 C2.68 20 1.36 20 0 20 C0 19.34 0 18.68 0 18 C0.99 18 1.98 18 3 18 C2.8863485 15.37405216 2.75960946 12.74988453 2.625 10.125 C2.57859375 9.00544922 2.57859375 9.00544922 2.53125 7.86328125 C2.44356169 3.46526812 2.44356169 3.46526812 0 0 Z " fill="#216AAD" transform="translate(66,45)"/>
<path d="M0 0 C3 1 3 1 5 4 C4.01 4.33 3.02 4.66 2 5 C1.67 9.95 1.34 14.9 1 20 C0.67 19.34 0.34 18.68 0 18 C-1.98 18 -3.96 18 -6 18 C-6 13.38 -6 8.76 -6 4 C-5.67 4 -5.34 4 -5 4 C-5 8.29 -5 12.58 -5 17 C-4.01 17 -3.02 17 -2 17 C-2 16.236875 -2 15.47375 -2 14.6875 C-2 12.79166667 -2 10.89583333 -2 9 C-2.061875 7.515 -2.061875 7.515 -2.125 6 C-2 3 -2 3 0 0 Z " fill="#0C64B2" transform="translate(98,42)"/>
<path d="M0 0 C0.33 0 0.66 0 1 0 C1 5.61 1 11.22 1 17 C4.3 17 7.6 17 11 17 C11 17.33 11 17.66 11 18 C2.585 18.495 2.585 18.495 -6 19 C-6 18.34 -6 17.68 -6 17 C-4.35 17 -2.7 17 -1 17 C-1 16.34 -1 15.68 -1 15 C-1.99 15 -2.98 15 -4 15 C-4 12.69 -4 10.38 -4 8 C-2.68 8 -1.36 8 0 8 C0 5.36 0 2.72 0 0 Z " fill="#2167AC" transform="translate(87,46)"/>
<path d="M0 0 C2.64 0 5.28 0 8 0 C8.66 1.65 9.32 3.3 10 5 C9.34 5 8.68 5 8 5 C8.99 8.63 9.98 12.26 11 16 C9.35 16 7.7 16 6 16 C6 13.69 6 11.38 6 9 C4.02 8.01 2.04 7.02 0 6 C0 5.34 0 4.68 0 4 C1.98 4 3.96 4 6 4 C6 3.34 6 2.68 6 2 C3.03 1.505 3.03 1.505 0 1 C0 0.67 0 0.34 0 0 Z " fill="#226BB2" transform="translate(38,46)"/>
<path d="M0 0 C0.99 0.33 1.98 0.66 3 1 C3 6.28 3 11.56 3 17 C1.68 17 0.36 17 -1 17 C-1.02684679 14.35409986 -1.04676357 11.70846904 -1.0625 9.0625 C-1.07087891 8.30775391 -1.07925781 7.55300781 -1.08789062 6.77539062 C-1.09652441 4.85005687 -1.05224333 2.92464419 -1 1 C-0.67 0.67 -0.34 0.34 0 0 Z " fill="#DEFCFF" transform="translate(66,46)"/>
<path d="M0 0 C0.66 0 1.32 0 2 0 C2 1.32 2 2.64 2 4 C2.99 4 3.98 4 5 4 C5 4.66 5 5.32 5 6 C4.01 6 3.02 6 2 6 C2 7.98 2 9.96 2 12 C2.99 12 3.98 12 5 12 C5 12.99 5 13.98 5 15 C3.33388095 15.042721 1.66617115 15.04063832 0 15 C-1 14 -1 14 -1.09765625 12.15234375 C-1.06510417 10.1015625 -1.03255208 8.05078125 -1 6 C-1.66 6 -2.32 6 -3 6 C-3 5.34 -3 4.68 -3 4 C-2.34 4 -1.68 4 -1 4 C-0.67 2.68 -0.34 1.36 0 0 Z " fill="#DDF5FC" transform="translate(120,48)"/>
<path d="M0 0 C0.66 0 1.32 0 2 0 C2 1.32 2 2.64 2 4 C2.99 4 3.98 4 5 4 C5 4.66 5 5.32 5 6 C4.01 6 3.02 6 2 6 C2 8.31 2 10.62 2 13 C2.99 13 3.98 13 5 13 C5 13.66 5 14.32 5 15 C3.33388095 15.042721 1.66617115 15.04063832 0 15 C-1 14 -1 14 -1.09765625 12.15234375 C-1.06510417 10.1015625 -1.03255208 8.05078125 -1 6 C-2.32 6 -3.64 6 -5 6 C-5 5.34 -5 4.68 -5 4 C-3.68 4 -2.36 4 -1 4 C-0.67 2.68 -0.34 1.36 0 0 Z " fill="#E5FBFE" transform="translate(81,48)"/>
<path d="M0 0 C2 3 2 3 2 5 C4.31 5.66 6.62 6.32 9 7 C9 7.99 9 8.98 9 10 C6.69 10 4.38 10 2 10 C1.67 10.66 1.34 11.32 1 12 C4.3 12 7.6 12 11 12 C10.67 12.99 10.34 13.98 10 15 C3.375 15.25 3.375 15.25 0 13 C-0.1875 10.375 -0.1875 10.375 0 8 C0.99 8 1.98 8 3 8 C3 7.34 3 6.68 3 6 C2.34 6 1.68 6 1 6 C0.67 4.02 0.34 2.04 0 0 Z " fill="#1F6AB4" transform="translate(33,50)"/>
<path d="M0 0 C1.32 0.33 2.64 0.66 4 1 C4.33 2.32 4.66 3.64 5 5 C5.99 4.34 6.98 3.68 8 3 C7.67 5.97 7.34 8.94 7 12 C5.68 12 4.36 12 3 12 C2.01 8.04 1.02 4.08 0 0 Z " fill="#D1E7FA" transform="translate(46,51)"/>
<path d="M0 0 C0.66 0 1.32 0 2 0 C2.33 0.66 2.66 1.32 3 2 C4.32 2 5.64 2 7 2 C7.66 2 8.32 2 9 2 C9 2.66 9 3.32 9 4 C10.65 4 12.3 4 14 4 C14 3.34 14 2.68 14 2 C14.99 2.33 15.98 2.66 17 3 C16.67 3.99 16.34 4.98 16 6 C15.34 6 14.68 6 14 6 C14 6.66 14 7.32 14 8 C14.66 8 15.32 8 16 8 C16 10.64 16 13.28 16 16 C15.34 16 14.68 16 14 16 C13.86722656 15.36191406 13.73445313 14.72382812 13.59765625 14.06640625 C13.33275391 12.82697266 13.33275391 12.82697266 13.0625 11.5625 C12.88847656 10.73878906 12.71445313 9.91507813 12.53515625 9.06640625 C12.19247006 7.02338796 12.19247006 7.02338796 11 6 C8.71642896 5.54864839 6.426608 5.16546935 4.12890625 4.79296875 C2 4 2 4 0.71484375 1.92578125 C0.47894531 1.29027344 0.24304688 0.65476563 0 0 Z " fill="#1664A9" transform="translate(103,46)"/>
<path d="M0 0 C0.99 0.33 1.98 0.66 3 1 C3 4.96 3 8.92 3 13 C4.32 13.33 5.64 13.66 7 14 C3.846632 14.70074844 1.27275026 15 -2 15 C-2 14.34 -2 13.68 -2 13 C-1.01 13 -0.02 13 1 13 C0.67 8.71 0.34 4.42 0 0 Z " fill="#2369AE" transform="translate(102,50)"/>
<path d="M0 0 C1.32 0 2.64 0 4 0 C5.10370043 3.3111013 4.92673641 5.24748949 4.5625 8.6875 C4.46066406 9.68136719 4.35882813 10.67523438 4.25390625 11.69921875 C4.12822266 12.83810547 4.12822266 12.83810547 4 14 C2.68 13.34 1.36 12.68 0 12 C0.99 9.03 1.98 6.06 3 3 C1.68 3.33 0.36 3.66 -1 4 C-0.67 2.68 -0.34 1.36 0 0 Z " fill="#1968B0" transform="translate(61,48)"/>
<path d="M0 0 C1.32 0.33 2.64 0.66 4 1 C4 4.3 4 7.6 4 11 C3.01 11 2.02 11 1 11 C0.67 7.37 0.34 3.74 0 0 Z " fill="#E8FDFE" transform="translate(112,52)"/>
<path d="M0 0 C1.98 0 3.96 0 6 0 C6.042721 1.66611905 6.04063832 3.33382885 6 5 C5 6 5 6 2.4375 6.0625 C1.2309375 6.0315625 1.2309375 6.0315625 0 6 C0 4.02 0 2.04 0 0 Z " fill="#1970C9" transform="translate(122,54)"/>
<path d="M0 0 C0.99 0 1.98 0 3 0 C3 3.63 3 7.26 3 11 C2.01 11 1.02 11 0 11 C0 7.37 0 3.74 0 0 Z " fill="#E4FEFF" transform="translate(100,52)"/>
<path d="M0 0 C0.99 0.33 1.98 0.66 3 1 C3 2.65 3 4.3 3 6 C2.01 6 1.02 6 0 6 C0 9.63 0 13.26 0 17 C-0.33 17 -0.66 17 -1 17 C-1.02684679 14.35409986 -1.04676357 11.70846904 -1.0625 9.0625 C-1.07087891 8.30775391 -1.07925781 7.55300781 -1.08789062 6.77539062 C-1.09652441 4.85005687 -1.05224333 2.92464419 -1 1 C-0.67 0.67 -0.34 0.34 0 0 Z " fill="#99CBF0" transform="translate(66,46)"/>
<path d="M0 0 C1.32 0 2.64 0 4 0 C4 2.97 4 5.94 4 9 C3.67 8.34 3.34 7.68 3 7 C2.01 7 1.02 7 0 7 C0 4.69 0 2.38 0 0 Z " fill="#3079B7" transform="translate(83,54)"/>
<path d="M0 0 C0.66 0 1.32 0 2 0 C2.05399736 1.45792884 2.09279177 2.91642712 2.125 4.375 C2.14820312 5.18710937 2.17140625 5.99921875 2.1953125 6.8359375 C2 9 2 9 0 11 C-1.32 11 -2.64 11 -4 11 C-4 10.34 -4 9.68 -4 9 C-3.01 9 -2.02 9 -1 9 C-0.67 6.03 -0.34 3.06 0 0 Z " fill="#1062AA" transform="translate(70,54)"/>
<path d="M0 0 C0.99 0 1.98 0 3 0 C3 2.97 3 5.94 3 9 C2.34 8.01 1.68 7.02 1 6 C0.34 6.99 -0.32 7.98 -1 9 C-1.09765625 2.84765625 -1.09765625 2.84765625 -1 1 C-0.67 0.67 -0.34 0.34 0 0 Z " fill="#3A7AB4" transform="translate(110,54)"/>
<path d="M0 0 C0.99 0 1.98 0 3 0 C3 0.66 3 1.32 3 2 C3.99 2 4.98 2 6 2 C6 2.99 6 3.98 6 5 C4.35 5 2.7 5 1 5 C0.67 3.35 0.34 1.7 0 0 Z " fill="#CCF4FD" transform="translate(119,58)"/>
<path d="M0 0 C1.64350079 3.28700157 2.41321669 5.47930015 3 9 C1.35 9 -0.3 9 -2 9 C-1.34 6.03 -0.68 3.06 0 0 Z " fill="#3A77BA" transform="translate(46,53)"/>
<path d="M0 0 C0.33 0 0.66 0 1 0 C0.67 2.97 0.34 5.94 0 9 C-1.32 9 -2.64 9 -4 9 C-4 8.01 -4 7.02 -4 6 C-3.01 5.67 -2.02 5.34 -1 5 C-0.67 3.35 -0.34 1.7 0 0 Z " fill="#E1FAFF" transform="translate(53,54)"/>
<path d="M0 0 C0.99 0.33 1.98 0.66 3 1 C3.6875 3.0625 3.6875 3.0625 4 5 C2.68 5.33 1.36 5.66 0 6 C-0.38218767 4.34385343 -0.71395102 2.67542976 -1 1 C-0.67 0.67 -0.34 0.34 0 0 Z " fill="#BDE8F5" transform="translate(54,51)"/>
<path d="M0 0 C2.31 0 4.62 0 7 0 C7 1.32 7 2.64 7 4 C4.625 3.6875 4.625 3.6875 2 3 C1.34 2.01 0.68 1.02 0 0 Z " fill="#C2E3F8" transform="translate(37,47)"/>
<path d="M0 0 C1.32 0 2.64 0 4 0 C4 2.31 4 4.62 4 7 C3.34 6.67 2.68 6.34 2 6 C2.33 5.01 2.66 4.02 3 3 C2.01 3 1.02 3 0 3 C0 2.01 0 1.02 0 0 Z " fill="#1062B6" transform="translate(123,48)"/>
</svg>
