<?xml version="1.0" encoding="UTF-8"?>
<svg version="1.1" xmlns="http://www.w3.org/2000/svg" width="160" height="110">
<path d="M0 0 C3.75633993 3.21971994 5.80483783 6.466934 6.57421875 11.30859375 C6.84094163 17.35124667 5.76140316 21.01052071 2.1875 25.875 C-2.00074803 29.68249821 -6.04953082 30.22744116 -11.53125 30.15625 C-16.27397448 29.57153054 -19.02258282 26.70649177 -22.1875 23.375 C-23.8125 20.875 -23.8125 20.875 -23.8125 16.875 C-17.55530975 16.45078371 -15.72087325 16.87080077 -10.8125 20.875 C-7.63507395 20.9708418 -7.63507395 20.9708418 -4.8125 19.875 C-2.49967413 16.40576119 -2.38771414 14.95294425 -2.8125 10.875 C-3.8125 8.875 -3.8125 8.875 -5.8125 7.875 C-8.76996492 7.29154524 -8.76996492 7.29154524 -11.8125 7.875 C-12.740625 8.865 -12.740625 8.865 -13.6875 9.875 C-16.16623656 12.20792853 -16.79057709 12.14796086 -20.0625 12.125 C-21.3 12.0425 -22.5375 11.96 -23.8125 11.875 C-23.35905595 7.00047646 -22.34162227 4.31125063 -18.8125 0.875 C-12.37032938 -2.91451213 -6.77384926 -2.7095397 0 0 Z " fill="#151515" transform="translate(31.8125,40.125)"/>
<path d="M0 0 C2.5 1.8125 2.5 1.8125 4 4 C4 5.32 4 6.64 4 8 C1.625 8.125 1.625 8.125 -1 8 C-1.66 7.34 -2.32 6.68 -3 6 C-5.60280568 6.32041397 -5.60280568 6.32041397 -8 7 C-8 8.65 -8 10.3 -8 12 C-6.16299211 12.77242269 -6.16299211 12.77242269 -4 13 C-3.525625 12.525625 -3.05125 12.05125 -2.5625 11.5625 C-1 10 -1 10 1.6875 9.8125 C2.450625 9.874375 3.21375 9.93625 4 10 C3.52238806 15.37313433 3.52238806 15.37313433 1.4375 17.875 C-2.05051299 19.48485215 -5.28009395 19.81188426 -9 19 C-12.61391202 16.07811368 -14.74312565 13.88374526 -15.375 9.25 C-14.8528401 4.7246142 -13.15770622 3.2328897 -10 0 C-6.73928782 -1.63035609 -3.41447263 -0.87723605 0 0 Z " fill="#141414" transform="translate(141,45)"/>
<path d="M0 0 C3.23247354 2.98382173 4.63390073 5.60680881 5 10 C3.05909174 11.94090826 -0.47293902 11.39919435 -3.0625 11.5625 C-4.99802734 11.68818359 -4.99802734 11.68818359 -6.97265625 11.81640625 C-7.97167969 11.87699219 -8.97070312 11.93757813 -10 12 C-10 12.66 -10 13.32 -10 14 C-7.74239143 14.78670551 -7.74239143 14.78670551 -5 15 C-2.37612865 13.60907108 -2.37612865 13.60907108 0 12 C0.99 12 1.98 12 3 12 C2.75 14.375 2.75 14.375 2 17 C-1.29255645 19.65937252 -4.93658239 19.42772817 -9 19 C-11.75329021 17.20437595 -13.52627461 15.94745078 -15 13 C-15.3751455 8.02932218 -15.15878799 4.94848498 -12 1 C-8.4640552 -1.88114021 -4.14308234 -1.31864017 0 0 Z M-8 3 C-9.485 4.98 -9.485 4.98 -11 7 C-7.37 7 -3.74 7 0 7 C-0.33 6.01 -0.66 5.02 -1 4 C-3.31 3.67 -5.62 3.34 -8 3 Z " fill="#151515" transform="translate(120,45)"/>
<path d="M0 0 C2.4375 1.9375 2.4375 1.9375 4 4 C4 4.66 4 5.32 4 6 C-0.875 5.125 -0.875 5.125 -2 4 C-4.33944736 4.28730055 -6.6739143 4.61936779 -9 5 C-9.67673447 8.40320934 -9.67673447 8.40320934 -10 12 C-8.11499729 14.31563087 -8.11499729 14.31563087 -5 14.25 C-1.88500271 14.31563087 -1.88500271 14.31563087 0 12 C1.32 12 2.64 12 4 12 C3.64978759 14.53903996 3.15988127 15.82093298 1.4375 17.75 C-2.03562331 19.53108888 -5.23174879 19.79252902 -9 19 C-12.35264284 16.57468391 -13.7040607 14.94700576 -14.9375 11 C-15.02231786 6.92874256 -14.14281536 4.39125348 -11.5625 1.25 C-7.81774971 -1.74580023 -4.41289361 -1.00644942 0 0 Z " fill="#141414" transform="translate(94,45)"/>
<path d="M0 0 C2.4375 1.9375 2.4375 1.9375 4 4 C4 4.66 4 5.32 4 6 C-0.875 5.125 -0.875 5.125 -2 4 C-4.33944736 4.28730055 -6.6739143 4.61936779 -9 5 C-9.68493373 7.85778033 -9.68493373 7.85778033 -10 11 C-8.35509414 14.01785339 -8.35509414 14.01785339 -6.1875 14.875 C-3.10653962 15.05105488 -1.55055343 13.63497015 1 12 C1.99 12 2.98 12 4 12 C3.64393309 14.58148508 3.16671807 15.82045747 1.375 17.75 C-1.94925931 19.49961016 -4.28978882 19.39054855 -8 19 C-12.6 16.8 -12.6 16.8 -14 14 C-14.55112923 9.40123316 -14.61753151 6.02212113 -12.1875 2 C-8.20132701 -1.64450102 -5.05348981 -1.15255031 0 0 Z " fill="#151515" transform="translate(59,45)"/>
<path d="M0 0 C1.32 0.33 2.64 0.66 4 1 C5.125 4.75 5.125 4.75 4 7 C3.91657841 8.44848582 3.89267139 9.90070869 3.90234375 11.3515625 C3.90556641 12.20234375 3.90878906 13.053125 3.91210938 13.9296875 C3.92048828 14.81914063 3.92886719 15.70859375 3.9375 16.625 C3.94201172 17.5221875 3.94652344 18.419375 3.95117188 19.34375 C3.96297409 21.56256648 3.97943845 23.78125018 4 26 C2.35 26 0.7 26 -1 26 C-0.99476318 25.40985107 -0.98952637 24.81970215 -0.98413086 24.21166992 C-0.96333953 21.53695745 -0.95033299 18.86226199 -0.9375 16.1875 C-0.92912109 15.25873047 -0.92074219 14.32996094 -0.91210938 13.37304688 C-0.90888672 12.48037109 -0.90566406 11.58769531 -0.90234375 10.66796875 C-0.89710693 9.84578857 -0.89187012 9.0236084 -0.88647461 8.17651367 C-0.91258476 5.81827404 -0.91258476 5.81827404 -2 3 C-1.34 2.01 -0.68 1.02 0 0 Z " fill="#121212" transform="translate(148,38)"/>
<path d="M0 0 C0 1.32 0 2.64 0 4 C-0.80824219 4.44988281 -1.61648437 4.89976563 -2.44921875 5.36328125 C-5.30220644 6.77932041 -5.30220644 6.77932041 -5.70703125 9.91796875 C-5.74183594 10.99691406 -5.77664062 12.07585938 -5.8125 13.1875 C-5.86019531 14.27417969 -5.90789062 15.36085938 -5.95703125 16.48046875 C-5.97121094 17.31191406 -5.98539062 18.14335938 -6 19 C-7.32 19.33 -8.64 19.66 -10 20 C-10 13.73 -10 7.46 -10 1 C-3 0 -3 0 0 0 Z " fill="#141414" transform="translate(80,44)"/>
<path d="M0 0 C0.99 0 1.98 0 3 0 C3 8.25 3 16.5 3 25 C2.01 25 1.02 25 0 25 C0 16.75 0 8.5 0 0 Z " fill="#141414" transform="translate(100,39)"/>
<path d="M0 0 C0.99 0 1.98 0 3 0 C3 6.27 3 12.54 3 19 C2.01 19 1.02 19 0 19 C0 12.73 0 6.46 0 0 Z " fill="#151515" transform="translate(65,45)"/>
<path d="M0 0 C2.625 0.375 2.625 0.375 5 1 C6.125 5.75 6.125 5.75 5 8 C3.00045254 8.04254356 0.99958364 8.04080783 -1 8 C-2 7 -2 7 -2.1875 4.5625 C-2 2 -2 2 0 0 Z " fill="#151515" transform="translate(21,50)"/>
<path d="M0 0 C1.98 0.495 1.98 0.495 4 1 C3.67 2.32 3.34 3.64 3 5 C1.68 4.67 0.36 4.34 -1 4 C-0.67 2.68 -0.34 1.36 0 0 Z " fill="#131313" transform="translate(65,39)"/>
</svg>
