<?xml version="1.0" encoding="UTF-8"?>
<svg version="1.1" xmlns="http://www.w3.org/2000/svg" width="160" height="110">
<path d="M0 0 C3.57151883 1.26013966 6.14252025 3.35163755 9.0703125 5.73046875 C11.07329451 4.74896315 13.03776189 3.7494622 14.96484375 2.625 C18.53372454 0.61159882 20.6983979 -0.26343429 24.8828125 -0.33203125 C28.0703125 0.73046875 28.0703125 0.73046875 29.796875 2.92578125 C31.31103401 6.26064679 31.0818424 8.0711004 30.6328125 11.66796875 C30.40779648 14.81543462 30.40779648 14.81543462 31.0703125 17.73046875 C33.42238059 19.96928912 35.65197572 21.18604436 38.58984375 22.546875 C41.02493899 23.70881808 42.42787052 24.60964561 44.0703125 26.73046875 C44.5703125 30.10546875 44.5703125 30.10546875 44.0703125 33.73046875 C41.01227097 37.68793426 37.64954521 39.79701494 33.0703125 41.73046875 C32.4103125 41.73046875 31.7503125 41.73046875 31.0703125 41.73046875 C31.09351563 42.6946875 31.11671875 43.65890625 31.140625 44.65234375 C31.15867188 45.915625 31.17671875 47.17890625 31.1953125 48.48046875 C31.21851563 49.7334375 31.24171875 50.98640625 31.265625 52.27734375 C31.08504055 55.47007691 30.86800343 57.14078811 29.0703125 59.73046875 C25.82958479 61.3508326 22.57234976 61.32132214 19.0703125 60.73046875 C16.94140625 59.54296875 16.94140625 59.54296875 14.8828125 58.10546875 C12.95501721 56.72139356 12.95501721 56.72139356 11.0703125 55.73046875 C7.94737612 56.31148017 6.33671094 57.54326984 3.7578125 59.35546875 C-0.10279605 61.33066382 -2.61019233 61.14848441 -6.9296875 60.73046875 C-9.10445151 59.18708784 -9.74801387 58.09381602 -10.9296875 55.73046875 C-11.00061592 53.52317645 -11.01383775 51.31379423 -10.9921875 49.10546875 C-10.98316406 47.91695312 -10.97414063 46.7284375 -10.96484375 45.50390625 C-10.95324219 44.58867188 -10.94164062 43.6734375 -10.9296875 42.73046875 C-11.61675781 42.4159375 -12.30382813 42.10140625 -13.01171875 41.77734375 C-13.91277344 41.349375 -14.81382813 40.92140625 -15.7421875 40.48046875 C-16.63550781 40.0628125 -17.52882813 39.64515625 -18.44921875 39.21484375 C-21.08995963 37.63455787 -22.36380962 36.35872681 -23.9296875 33.73046875 C-24.5546875 30.35546875 -24.5546875 30.35546875 -23.9296875 26.73046875 C-20.49584292 22.48749987 -15.87628833 19.90214717 -10.9296875 17.73046875 C-11.01669922 16.40982422 -11.01669922 16.40982422 -11.10546875 15.0625 C-11.4713189 5.64447174 -11.4713189 5.64447174 -8.9296875 1.35546875 C-5.68375873 -0.40274267 -3.63671691 -0.69830496 0 0 Z M-5.47265625 4.9453125 C-7.31643073 7.20430696 -7.3038931 8.41179201 -7.2421875 11.29296875 C-7.23832031 12.07800781 -7.23445313 12.86304688 -7.23046875 13.671875 C-7.10671773 15.95173709 -7.10671773 15.95173709 -4.9296875 17.73046875 C-0.66601767 17.6515119 1.40224433 17.3484318 4.5703125 14.41796875 C6.27489502 11.94599305 6.27489502 11.94599305 5.9140625 9.703125 C4.79578695 7.08863818 3.63066407 6.63262696 1.0703125 5.48046875 C0.3484375 5.1453125 -0.3734375 4.81015625 -1.1171875 4.46484375 C-3.4675983 3.42654187 -3.4675983 3.42654187 -5.47265625 4.9453125 Z M19.1328125 5.54296875 C18.42253906 5.87941406 17.71226563 6.21585938 16.98046875 6.5625 C14.76462168 7.73346345 14.76462168 7.73346345 13.0703125 10.73046875 C15.84308957 15.04445191 15.84308957 15.04445191 20.18359375 17.3515625 C22.13691872 17.57707959 24.10514108 17.66385277 26.0703125 17.73046875 C27.23374477 15.40360422 27.26927238 13.88325462 27.3203125 11.29296875 C27.34609375 10.51050781 27.371875 9.72804688 27.3984375 8.921875 C26.99671457 6.23893973 26.17282465 5.3816841 24.0703125 3.73046875 C22.2645801 3.73046875 20.73253093 4.77059113 19.1328125 5.54296875 Z M9.0703125 13.73046875 C8.7403125 14.39046875 8.4103125 15.05046875 8.0703125 15.73046875 C9.3903125 15.40046875 10.7103125 15.07046875 12.0703125 14.73046875 C11.0803125 14.40046875 10.0903125 14.07046875 9.0703125 13.73046875 Z M3.0703125 21.73046875 C0.41344807 24.94578239 -0.9296875 27.58950114 -0.9296875 31.79296875 C0.74713711 36.74166464 0.74713711 36.74166464 4.0703125 40.73046875 C8.26494231 41.72862429 11.88425168 41.78697796 16.0703125 40.73046875 C19.44319345 37.83048657 20.66254708 34.40230698 21.6953125 30.16796875 C20.7087179 26.32024982 19.04233087 23.3952833 16.0703125 20.73046875 C11.66811628 19.05301898 7.03425188 19.0878425 3.0703125 21.73046875 Z M22.0703125 20.73046875 C22.7303125 22.05046875 23.3903125 23.37046875 24.0703125 24.73046875 C24.4003125 23.74046875 24.7303125 22.75046875 25.0703125 21.73046875 C24.0803125 21.40046875 23.0903125 21.07046875 22.0703125 20.73046875 Z M-4.9296875 21.73046875 C-4.5996875 22.72046875 -4.2696875 23.71046875 -3.9296875 24.73046875 C-3.2696875 23.41046875 -2.6096875 22.09046875 -1.9296875 20.73046875 C-3.1532943 20.65593315 -3.1532943 20.65593315 -4.9296875 21.73046875 Z M29.0703125 22.73046875 C26.5738204 27.429748 27.15565277 30.65826477 28.0703125 35.73046875 C28.4003125 36.39046875 28.7303125 37.05046875 29.0703125 37.73046875 C33.79484758 36.64019142 37.1933123 35.80621904 40.0703125 31.73046875 C40.46492299 29.63237387 40.46492299 29.63237387 39.0703125 27.73046875 C35.93888048 25.47551898 32.72404747 23.94838041 29.0703125 22.73046875 Z M-9.9296875 22.73046875 C-11.22378039 23.35042953 -12.51488423 23.97663228 -13.8046875 24.60546875 C-14.52398437 24.95351563 -15.24328125 25.3015625 -15.984375 25.66015625 C-18.08103769 26.69604418 -18.08103769 26.69604418 -19.9296875 28.73046875 C-19.82682729 31.81627496 -18.90968366 32.74991692 -16.6796875 34.91796875 C-13.95583294 36.71323653 -12.13517401 37.36412743 -8.9296875 37.73046875 C-6.69886273 33.4000442 -6.8824152 30.4431941 -7.9296875 25.73046875 C-8.5896875 24.74046875 -9.2496875 23.75046875 -9.9296875 22.73046875 Z M-3.9296875 36.73046875 C-4.2596875 37.72046875 -4.5896875 38.71046875 -4.9296875 39.73046875 C-3.9396875 39.40046875 -2.9496875 39.07046875 -1.9296875 38.73046875 C-2.5896875 38.07046875 -3.2496875 37.41046875 -3.9296875 36.73046875 Z M23.0703125 36.73046875 C22.7403125 37.72046875 22.4103125 38.71046875 22.0703125 39.73046875 C23.0603125 39.73046875 24.0503125 39.73046875 25.0703125 39.73046875 C24.7403125 38.74046875 24.4103125 37.75046875 24.0703125 36.73046875 C23.7403125 36.73046875 23.4103125 36.73046875 23.0703125 36.73046875 Z M-5.9296875 43.73046875 C-7.4932223 46.85753834 -7.32927237 50.31029318 -6.9296875 53.73046875 C-5.9396875 55.21546875 -5.9396875 55.21546875 -4.9296875 56.73046875 C0.06943174 56.25436216 3.04863933 54.69884656 7.0703125 51.73046875 C4.45894834 46.8145642 4.45894834 46.8145642 -0.04296875 44.04296875 C-2.48408152 43.72979363 -2.48408152 43.72979363 -5.9296875 43.73046875 Z M17.0703125 45.73046875 C15.26683172 47.74364094 15.26683172 47.74364094 14.0703125 49.73046875 C15.1502814 52.86237857 16.07981724 53.73646087 18.9453125 55.54296875 C21.87642851 56.91285306 21.87642851 56.91285306 24.3828125 56.54296875 C26.26649712 55.84799297 26.26649712 55.84799297 27.0703125 53.73046875 C27.13981791 52.19022879 27.15483607 50.64711887 27.1328125 49.10546875 C27.12378906 48.28820312 27.11476563 47.4709375 27.10546875 46.62890625 C27.09386719 46.00242188 27.08226562 45.3759375 27.0703125 44.73046875 C23.03258478 43.57683226 20.76782771 43.68710508 17.0703125 45.73046875 Z M8.0703125 44.73046875 C9.0603125 45.72046875 10.0503125 46.71046875 11.0703125 47.73046875 C11.4003125 46.74046875 11.7303125 45.75046875 12.0703125 44.73046875 C10.7503125 44.73046875 9.4303125 44.73046875 8.0703125 44.73046875 Z " fill="#63D8F7" transform="translate(69.9296875,24.26953125)"/>
<path d="M0 0 C2.4375 1.5625 2.4375 1.5625 4 4 C4.0625 7.5625 4.0625 7.5625 3 11 C0.35022123 13.35535891 -1.080168 14.02190076 -4.625 13.9375 C-7.63869999 12.74788158 -8.6080704 11.93851805 -10 9 C-9.875 5.375 -9.875 5.375 -9 2 C-5.50875983 -0.32749345 -4.10777749 -0.50299316 0 0 Z " fill="#64D7F7" transform="translate(83,48)"/>
<path d="M0 0 C-2.06756277 2.7972908 -3.14440371 3.02692273 -6.6875 3.6875 C-7.780625 3.790625 -8.87375 3.89375 -10 4 C-10 3.34 -10 2.68 -10 2 C-6.49223216 0.39644899 -3.85645121 -0.22036864 0 0 Z " fill="#69D4E9" transform="translate(96,24)"/>
<path d="M0 0 C2.0625 0.4375 2.0625 0.4375 4 1 C3.34 2.32 2.68 3.64 2 5 C0.68 4.34 -0.64 3.68 -2 3 C-1 1 -1 1 0 0 Z " fill="#61C9E7" transform="translate(68,48)"/>
<path d="M0 0 C-0.33 1.65 -0.66 3.3 -1 5 C-1.66 5 -2.32 5 -3 5 C-3 4.34 -3 3.68 -3 3 C-3.66 3 -4.32 3 -5 3 C-5 2.34 -5 1.68 -5 1 C-2 0 -2 0 0 0 Z " fill="#52E1F5" transform="translate(65,61)"/>
</svg>
