<?xml version="1.0" encoding="UTF-8"?>
<svg version="1.1" xmlns="http://www.w3.org/2000/svg" width="160" height="110">
<path d="M0 0 C0.78632309 0.28713364 1.57264618 0.57426727 2.38279724 0.87010193 C4.86163842 1.77770336 7.33507329 2.69910354 9.80859375 3.62109375 C11.5016133 4.2437633 13.19497009 4.86551669 14.88867188 5.48632812 C19.01178305 6.99986418 23.13011012 8.52578632 27.24609375 10.05859375 C26.61491277 17.78746505 25.91855193 25.50848085 25.17700195 33.22753906 C24.93252281 35.85281413 24.70288481 38.479516 24.48852539 41.10742188 C24.17734986 44.8901718 23.81273314 48.6645393 23.4375 52.44140625 C23.31031334 54.19954147 23.31031334 54.19954147 23.18055725 55.99319458 C22.31554955 63.96427649 22.31554955 63.96427649 19.27038574 67.08023071 C16.99044281 68.62698976 14.73229382 69.87751962 12.24609375 71.05859375 C11.37001465 71.56535645 10.49393555 72.07211914 9.59130859 72.59423828 C8.88699707 72.95630371 8.18268555 73.31836914 7.45703125 73.69140625 C6.26207031 74.31208984 6.26207031 74.31208984 5.04296875 74.9453125 C4.24375 75.35394531 3.44453125 75.76257813 2.62109375 76.18359375 C1.00329047 77.01833889 -0.61390745 77.85425843 -2.23046875 78.69140625 C-2.99907227 79.08360352 -3.76767578 79.47580078 -4.55957031 79.87988281 C-6.62569491 80.98972366 -8.55802373 82.21764913 -10.52734375 83.48828125 C-13.75390625 85.05859375 -13.75390625 85.05859375 -16.359375 84.46875 C-17.14957031 84.00339844 -17.93976563 83.53804688 -18.75390625 83.05859375 C-19.59566406 82.66542969 -20.43742187 82.27226563 -21.3046875 81.8671875 C-27.37548611 78.85325495 -33.34028334 75.68042865 -39.25390625 72.37109375 C-39.93622314 71.99073975 -40.61854004 71.61038574 -41.3215332 71.21850586 C-41.96952881 70.85249268 -42.61752441 70.48647949 -43.28515625 70.109375 C-44.14463867 69.62464722 -44.14463867 69.62464722 -45.02148438 69.13012695 C-45.59318359 68.776521 -46.16488281 68.42291504 -46.75390625 68.05859375 C-47.42891174 67.65264984 -48.10391724 67.24670593 -48.79937744 66.82846069 C-51.3721455 64.49876511 -51.41446687 63.08893483 -51.75878906 59.66918945 C-51.87861145 58.56827469 -51.99843384 57.46735992 -52.12188721 56.33308411 C-52.28778351 54.5517231 -52.28778351 54.5517231 -52.45703125 52.734375 C-52.58454773 51.51783737 -52.71206421 50.30129974 -52.84344482 49.04789734 C-53.24731029 45.15715704 -53.62587145 41.26442041 -54.00390625 37.37109375 C-54.27307848 34.73485591 -54.54389129 32.09878502 -54.81640625 29.46289062 C-55.48129733 22.99660942 -56.12542442 16.52850955 -56.75390625 10.05859375 C-55.96330811 9.77661133 -55.17270996 9.49462891 -54.3581543 9.20410156 C-51.37042865 8.1382881 -48.38281178 7.07217038 -45.39526367 6.00585938 C-44.11242827 5.54805881 -42.82955197 5.09037282 -41.54663086 4.6328125 C-39.68201609 3.96776414 -37.81757015 3.30224248 -35.953125 2.63671875 C-34.73157715 2.20552734 -33.5100293 1.77433594 -32.25146484 1.33007812 C-30.05097844 0.53012467 -27.86341503 -0.30733426 -25.69775391 -1.19726562 C-24.77397949 -1.57173828 -23.85020508 -1.94621094 -22.8984375 -2.33203125 C-22.1144458 -2.66750977 -21.3304541 -3.00298828 -20.52270508 -3.34863281 C-13.41863613 -4.86954626 -6.61364922 -2.49191017 0 0 Z " fill="#CE0232" transform="translate(93.75390625,16.94140625)"/>
<path d="M0 0 C0.66 0 1.32 0 2 0 C2.26627197 0.61818604 2.53254395 1.23637207 2.80688477 1.87329102 C9.08012699 16.48021882 9.08012699 16.48021882 15.6875 30.9375 C18.17140569 36.20101444 20.58758806 41.48813656 22.9375 46.8125 C23.24453857 47.50142334 23.55157715 48.19034668 23.86791992 48.90014648 C26 53.76355083 26 53.76355083 26 56 C23.03 56 20.06 56 17 56 C13.125 48.375 13.125 48.375 12 45 C4.41 44.67 -3.18 44.34 -11 44 C-11.33 45.98 -11.66 47.96 -12 50 C-12.93942486 52.02915769 -13.92598385 54.03875312 -15 56 C-17.97 56 -20.94 56 -24 56 C-21.81461855 49.08908594 -19.17252762 42.50479775 -16.25 35.875 C-15.80897949 34.86743652 -15.36795898 33.85987305 -14.91357422 32.82177734 C-11.86160277 25.87801534 -8.71358501 18.9861905 -5.47265625 12.12890625 C-3.58276869 8.1135218 -1.78246667 4.06402401 0 0 Z " fill="#FCEEF2" transform="translate(78,24)"/>
<path d="M0 0 C0.66 0 1.32 0 2 0 C3.0067004 2.26807204 4.00551766 4.53907754 5 6.8125 C5.28617188 7.45509766 5.57234375 8.09769531 5.8671875 8.75976562 C7.13711041 11.67756469 8 13.78265714 8 17 C3.38 17 -1.24 17 -6 17 C-5.15813297 12.79066487 -4.10885537 9.58732921 -2.4375 5.6875 C-1.75494141 4.08455078 -1.75494141 4.08455078 -1.05859375 2.44921875 C-0.53458984 1.23685547 -0.53458984 1.23685547 0 0 Z " fill="#D52955" transform="translate(78,43)"/>
<path d="M0 0 C0.99 0.33 1.98 0.66 3 1 C3 1.66 3 2.32 3 3 C3.99 3.33 4.98 3.66 6 4 C6.33 6.31 6.66 8.62 7 11 C3.04 11 -0.92 11 -5 11 C-5 10.67 -5 10.34 -5 10 C-2.69 10 -0.38 10 2 10 C1.34 6.7 0.68 3.4 0 0 Z " fill="#C00331" transform="translate(78,48)"/>
<path d="M0 0 C0.66 0 1.32 0 2 0 C2 0.66 2 1.32 2 2 C2.66 2.33 3.32 2.66 4 3 C5.10646083 5.40662568 6.10816923 7.78406501 7.0625 10.25 C7.33126953 10.91902344 7.60003906 11.58804688 7.87695312 12.27734375 C9.27320216 15.82193607 10.40863559 19.23278969 11 23 C8.25598344 21.62799172 8.0204382 20.14906419 6.8359375 17.34375 C6.43632813 16.40402344 6.03671875 15.46429688 5.625 14.49609375 C5.00625 13.01302734 5.00625 13.01302734 4.375 11.5 C3.95476562 10.51128906 3.53453125 9.52257812 3.1015625 8.50390625 C0 1.16287033 0 1.16287033 0 0 Z " fill="#B71C44" transform="translate(80,25)"/>
<path d="M0 0 C7.59 0 15.18 0 23 0 C23.33 1.32 23.66 2.64 24 4 C23.01 4.33 22.02 4.66 21 5 C21 4.01 21 3.02 21 2 C14.73 1.67 8.46 1.34 2 1 C1.34 2.32 0.68 3.64 0 5 C-0.33 4.34 -0.66 3.68 -1 3 C-0.67 2.01 -0.34 1.02 0 0 Z " fill="#BC1842" transform="translate(67,68)"/>
<path d="M0 0 C0.66 0 1.32 0 2 0 C2.67119549 1.4562545 3.33681807 2.91507867 4 4.375 C4.556875 5.59316406 4.556875 5.59316406 5.125 6.8359375 C6 9 6 9 6 11 C5.34 11 4.68 11 4 11 C4 10.01 4 9.02 4 8 C3.01 7.67 2.02 7.34 1 7 C1 6.34 1 5.68 1 5 C0.01 5.33 -0.98 5.66 -2 6 C-1.34 4.02 -0.68 2.04 0 0 Z " fill="#FCD6E3" transform="translate(78,24)"/>
<path d="M0 0 C0.66 0 1.32 0 2 0 C3.4606285 2.64738916 4 3.89448334 4 7 C4.66 7 5.32 7 6 7 C6 9.31 6 11.62 6 14 C4.45372329 11.68058494 3.13817172 9.47020248 1.875 7 C1.52179688 6.319375 1.16859375 5.63875 0.8046875 4.9375 C0 3 0 3 0 0 Z " fill="#B91B44" transform="translate(93,53)"/>
<path d="M0 0 C0.66 0.33 1.32 0.66 2 1 C1.42655063 3.86724686 1.1385485 4.8614515 -1 7 C-3.6015625 7.1953125 -3.6015625 7.1953125 -6.625 7.125 C-8.12933594 7.09792969 -8.12933594 7.09792969 -9.6640625 7.0703125 C-10.43492188 7.04710938 -11.20578125 7.02390625 -12 7 C-11.67 6.34 -11.34 5.68 -11 5 C-8.03 5 -5.06 5 -2 5 C-1.34 3.35 -0.68 1.7 0 0 Z " fill="#DC375D" transform="translate(65,74)"/>
<path d="M0 0 C2 3 2 3 2 7 C-1.96 7 -5.92 7 -10 7 C-10 6.67 -10 6.34 -10 6 C-7.03 5.34 -4.06 4.68 -1 4 C-0.67 2.68 -0.34 1.36 0 0 Z " fill="#B41240" transform="translate(83,52)"/>
<path d="M0 0 C0.66 0 1.32 0 2 0 C2.99 2.64 3.98 5.28 5 8 C4.34 8 3.68 8 3 8 C2.67 7.34 2.34 6.68 2 6 C1.01 5.67 0.02 5.34 -1 5 C-0.67 3.35 -0.34 1.7 0 0 Z " fill="#B8214A" transform="translate(78,43)"/>
<path d="M0 0 C1.08892712 2.83121051 0.96109941 4.16532751 0.25 7.1875 C-0.36875 8.5796875 -0.36875 8.5796875 -1 10 C-1.99 10.33 -2.98 10.66 -4 11 C-2.7874262 7.27566618 -1.49140021 3.62197194 0 0 Z " fill="#FDD1D7" transform="translate(59,66)"/>
<path d="M0 0 C0.66 0 1.32 0 2 0 C1.5206753 4.31392226 0.2542015 6.16569547 -3 9 C-2.01 6.03 -1.02 3.06 0 0 Z " fill="#D01C4E" transform="translate(76,48)"/>
<path d="M0 0 C0.66 0 1.32 0 2 0 C5.125 6.5 5.125 6.5 4 11 C2.68 7.37 1.36 3.74 0 0 Z " fill="#B1133C" transform="translate(99,67)"/>
<path d="M0 0 C-1.65 0.66 -3.3 1.32 -5 2 C-5.99 1.01 -6.98 0.02 -8 -1 C-4.59745511 -2.2151946 -3.06748874 -1.86240388 0 0 Z " fill="#C4063A" transform="translate(83,100)"/>
</svg>
