<?xml version="1.0" encoding="UTF-8"?>
<svg version="1.1" xmlns="http://www.w3.org/2000/svg" width="160" height="110">
<path d="M0 0 C5.36379826 4.87618023 8.88588907 9.72344073 9.625 17.0625 C9.69249832 18.54071315 9.74382154 20.02025949 9.75 21.5 C7.375 21.296875 7.375 21.296875 4.75 20.5 C3.5625 18.390625 3.5625 18.390625 2.75 15.75 C0.90239511 10.5000983 -1.10942494 7.07028753 -6.25 4.5 C-11.04884649 4.02952485 -14.53064737 4.48557587 -18.67578125 7.09375 C-22.97703776 10.9360635 -24.92398006 17.03917299 -25.453125 22.65625 C-25.58895348 29.4476742 -24.97817576 36.21115366 -22.25 42.5 C-19.28934899 44.35255418 -19.28934899 44.35255418 -16.25 44.5 C-15.25 45.5 -15.25 45.5 -15 48.375 C-15.25 51.5 -15.25 51.5 -16.3125 53.4375 C-19.40212727 55.13181173 -21.92217418 54.23951685 -25.25 53.5 C-26.73086086 52.01913914 -26.72565481 50.47976533 -27.125 48.4375 C-27.79483161 45.26461341 -28.61938199 42.32730551 -29.8125 39.3125 C-33.16155047 30.73690106 -33.33492244 21.19387234 -30.25 12.5 C-26.93601605 6.0096736 -22.50928004 0.25668575 -15.34375 -2.13671875 C-10.05055304 -3.05512792 -4.83661251 -2.2322827 0 0 Z " fill="#734DB7" transform="translate(88.25,20.5)"/>
<path d="M0 0 C0.66 0.66 1.32 1.32 2 2 C4.11636628 2.31483135 6.24448215 2.55246854 8.375 2.75 C19.7020252 4.25872262 28.88594079 8.94250105 36 18 C39.86994771 24.16772917 39.79399265 30.92707695 39 38 C36.63879484 43.50947872 32.44925012 46.70894174 27 49 C19.43226424 50.84385789 13.18089627 49.75709032 6 47 C8.1875 44.4375 8.1875 44.4375 11 42 C13.25 42.1875 13.25 42.1875 16 43 C20.78197222 43.51457215 24.09363507 43.46142215 28.4375 41.25 C32.05381899 38.07469552 32.82562998 36.51120687 33.375 31.75 C32.75680506 25.5680506 30.41364953 21.00967817 25.875 16.75 C18.93537406 11.30483508 10.54834696 9.38228589 2 8 C1.67 8.99 1.34 9.98 1 11 C-1.65997891 11.73888303 -3.53464544 12.10341212 -6.25 11.5 C-8 10 -8 10 -8.9375 6.5625 C-9 3 -9 3 -7.9375 1.0625 C-5.17331023 -0.45334601 -3.09771665 -0.32954432 0 0 Z " fill="#734FB8" transform="translate(77,40)"/>
<path d="M0 0 C0.875 2.5625 0.875 2.5625 1 6 C-0.34393529 8.05417957 -1.84850712 9.72264456 -3.5546875 11.484375 C-6.50210643 14.57518188 -6.39650766 17.58046772 -6.34375 21.67578125 C-5.743215 25.73621676 -4.05190124 27.27982716 -1 30 C3.97694216 32.6015834 8.67650043 32.32446619 14 31 C21.02660893 28.25506529 29.41115212 23.97831533 33 17 C33.04950956 15.64673869 33.04445595 14.29093675 33 12.9375 C33 9 33 9 34.125 7 C36.93163039 5.50313046 38.87757843 5.54464685 42 6 C43.9375 7.6875 43.9375 7.6875 45 10 C45 13.56193904 44.2089573 14.77943396 41.75 17.375 C40.8425 18.24125 39.935 19.1075 39 20 C37.948125 21.6396875 37.948125 21.6396875 36.875 23.3125 C32.21374328 30.01122427 24.31787979 35.43624666 16.44921875 37.59765625 C8.88756734 38.83984141 1.34420475 39.23167877 -5.4140625 35.2109375 C-8.80828599 32.61928903 -10.66141731 30.01574806 -12 26 C-12.90938471 17.79251524 -12.2714139 11.96815951 -7.703125 5.0234375 C-3.47490347 0 -3.47490347 0 0 0 Z " fill="#734DB7" transform="translate(54,51)"/>
<path d="M0 0 C1.125 3.75 1.125 3.75 0 6 C-5.12621429 4.92919079 -10.02770433 3.65743189 -15 2 C-15.99 2 -16.98 2 -18 2 C-18 1.01 -18 0.02 -18 -1 C-11.701318 -3.09956067 -6.11204906 -2.03734969 0 0 Z " fill="#774ABE" transform="translate(96,45)"/>
<path d="M0 0 C-0.33 1.32 -0.66 2.64 -1 4 C-3.64 4 -6.28 4 -9 4 C-9 4.66 -9 5.32 -9 6 C-10.65 6.66 -12.3 7.32 -14 8 C-14.33 7.01 -14.66 6.02 -15 5 C-15.66 5 -16.32 5 -17 5 C-17 4.34 -17 3.68 -17 3 C-12.06679255 -0.42583851 -5.79812438 -2.89906219 0 0 Z " fill="#744CBC" transform="translate(83,19)"/>
<path d="M0 0 C0 0.33 0 0.66 0 1 C-0.68707031 0.98839844 -1.37414062 0.97679688 -2.08203125 0.96484375 C-2.98308594 0.95582031 -3.88414063 0.94679688 -4.8125 0.9375 C-5.70582031 0.92589844 -6.59914063 0.91429688 -7.51953125 0.90234375 C-10.92566131 1.03644336 -12.57418129 1.57418129 -15 4 C-15.66 3.34 -16.32 2.68 -17 2 C-12.17107221 -3.86369803 -6.54330744 -1.54451276 0 0 Z " fill="#6B4CAB" transform="translate(100,84)"/>
<path d="M0 0 C2 3 2 3 1.6875 5.125 C1 7 1 7 0 8 C-0.36760731 10.32817964 -0.70241581 12.6618385 -1 15 C-1.33 15 -1.66 15 -2 15 C-3.2019586 8.77166905 -2.93161919 5.62870885 0 0 Z " fill="#724DA7" transform="translate(64,58)"/>
<path d="M0 0 C0.33 0.66 0.66 1.32 1 2 C0.01 2 -0.98 2 -2 2 C-2 2.99 -2 3.98 -2 5 C-3.98 4.34 -5.96 3.68 -8 3 C-8 2.34 -8 1.68 -8 1 C-5.29120665 -0.35439668 -2.99066732 -0.06501451 0 0 Z " fill="#7250AE" transform="translate(96,57)"/>
<path d="M0 0 C0 2 0 2 -1.5 3.625 C-1.995 4.07875 -2.49 4.5325 -3 5 C-2.34 5.66 -1.68 6.32 -1 7 C-2.32 7 -3.64 7 -5 7 C-5 6.34 -5 5.68 -5 5 C-5.66 5 -6.32 5 -7 5 C-7 4.34 -7 3.68 -7 3 C-2.61538462 0 -2.61538462 0 0 0 Z " fill="#8443BE" transform="translate(73,19)"/>
<path d="M0 0 C1.32 0 2.64 0 4 0 C4.33 1.32 4.66 2.64 5 4 C2 5 2 5 -1 5 C-0.67 3.35 -0.34 1.7 0 0 Z " fill="#7F45C5" transform="translate(94,59)"/>
<path d="M0 0 C1.65 0 3.3 0 5 0 C5.33 0.66 5.66 1.32 6 2 C1.56923077 4.09230769 1.56923077 4.09230769 -1.3125 3.625 C-1.869375 3.41875 -2.42625 3.2125 -3 3 C-2.01 3 -1.02 3 0 3 C0 2.01 0 1.02 0 0 Z " fill="#7051A5" transform="translate(71,84)"/>
<path d="M0 0 C0.66 0.66 1.32 1.32 2 2 C0.02 2.99 -1.96 3.98 -4 5 C-4.99 4.01 -5.98 3.02 -7 2 C-4.69 1.34 -2.38 0.68 0 0 Z " fill="#6A49A0" transform="translate(89,22)"/>
<path d="M0 0 C3 1 3 1 4 3 C4.039992 4.99960012 4.04346799 7.00047242 4 9 C1.3144406 6.3144406 0.93950026 3.62378672 0 0 Z " fill="#6C52B2" transform="translate(57,55)"/>
</svg>
