<?xml version="1.0" encoding="UTF-8"?>
<svg version="1.1" xmlns="http://www.w3.org/2000/svg" width="160" height="110">
<path d="M0 0 C0.81694336 0.0314209 1.63388672 0.0628418 2.47558594 0.09521484 C3.36503906 0.11455078 4.25449219 0.13388672 5.17089844 0.15380859 C6.09128906 0.20408203 7.01167969 0.25435547 7.95996094 0.30615234 C8.89582031 0.33322266 9.83167969 0.36029297 10.79589844 0.38818359 C13.10293334 0.45880711 15.40526863 0.55734656 17.70996094 0.68115234 C17.0358325 4.17366797 15.63268381 6.84863732 13.87402344 9.92724609 C13.30425781 10.92949219 12.73449219 11.93173828 12.14746094 12.96435547 C11.54933594 14.00527344 10.95121094 15.04619141 10.33496094 16.11865234 C9.74457031 17.15570313 9.15417969 18.19275391 8.54589844 19.26123047 C4.0344778 27.17145788 4.0344778 27.17145788 2.01611328 30.34155273 C0.48146413 32.64385467 0.48146413 32.64385467 0.70996094 35.49365234 C1.84613865 39.11521879 3.51947731 41.83047373 5.65136719 44.94677734 C6.70996094 46.68115234 6.70996094 46.68115234 6.70996094 48.68115234 C7.36996094 48.68115234 8.02996094 48.68115234 8.70996094 48.68115234 C9.12181641 47.59592285 9.12181641 47.59592285 9.54199219 46.48876953 C10.66918967 43.7791602 11.95004409 41.31010169 13.39746094 38.75927734 C14.19156372 37.35597168 14.19156372 37.35597168 15.00170898 35.92431641 C15.56543213 34.93657227 16.12915527 33.94882812 16.70996094 32.93115234 C17.28721924 31.91504883 17.86447754 30.89894531 18.45922852 29.85205078 C34.93446983 0.92324476 34.93446983 0.92324476 37.61425781 0.08666992 C52.72935178 -1.6177642 52.72935178 -1.6177642 57.53320312 2.08740234 C60.71378942 5.8326505 62.79362673 10.14469176 64.77978516 14.61181641 C66.06196647 17.46424918 67.60274902 20.15144825 69.14746094 22.86865234 C69.79521484 24.09648438 69.79521484 24.09648438 70.45605469 25.34912109 C71.69764159 27.76257665 71.69764159 27.76257665 73.43261719 30.16943359 C75.03915658 33.32846977 74.66677444 34.31710793 73.70996094 37.68115234 C72.76971357 39.62990055 71.7554294 41.54377581 70.69042969 43.42724609 C70.08005859 44.51199219 69.4696875 45.59673828 68.84082031 46.71435547 C67.87885742 48.39948242 67.87885742 48.39948242 66.89746094 50.11865234 C66.26775391 51.23820312 65.63804688 52.35775391 64.98925781 53.51123047 C63.25195708 56.58295317 61.51433038 59.64830869 59.70996094 62.68115234 C58.76165405 64.32990356 58.76165405 64.32990356 57.79418945 66.01196289 C55.70996094 68.68115234 55.70996094 68.68115234 53.41992188 69.36230469 C52.19450684 69.31517334 52.19450684 69.31517334 50.94433594 69.26708984 C50.05488281 69.24775391 49.16542969 69.22841797 48.24902344 69.20849609 C47.32863281 69.15822266 46.40824219 69.10794922 45.45996094 69.05615234 C44.05617187 69.01554687 44.05617187 69.01554687 42.62402344 68.97412109 C40.31698853 68.90349758 38.01465324 68.80495813 35.70996094 68.68115234 C36.38408937 65.18863672 37.78723807 62.51366737 39.54589844 59.43505859 C40.11566406 58.4328125 40.68542969 57.43056641 41.27246094 56.39794922 C41.87058594 55.35703125 42.46871094 54.31611328 43.08496094 53.24365234 C43.67535156 52.20660156 44.26574219 51.16955078 44.87402344 50.10107422 C49.38544408 42.19084681 49.38544408 42.19084681 51.40380859 39.02075195 C52.93845775 36.71845002 52.93845775 36.71845002 52.70996094 33.86865234 C51.57378323 30.2470859 49.90044456 27.53183096 47.76855469 24.41552734 C46.70996094 22.68115234 46.70996094 22.68115234 46.70996094 20.68115234 C46.04996094 20.68115234 45.38996094 20.68115234 44.70996094 20.68115234 C44.43539062 21.40463867 44.16082031 22.128125 43.87792969 22.87353516 C42.75073221 25.58314449 41.46987778 28.052203 40.02246094 30.60302734 C39.49305908 31.53856445 38.96365723 32.47410156 38.41821289 33.43798828 C37.85448975 34.42573242 37.2907666 35.41347656 36.70996094 36.43115234 C36.13270264 37.44725586 35.55544434 38.46335938 34.96069336 39.51025391 C18.48545204 68.43905993 18.48545204 68.43905993 15.80566406 69.27563477 C0.69057009 70.98006889 0.69057009 70.98006889 -4.11328125 67.27490234 C-7.29386754 63.52965418 -9.37370485 59.21761292 -11.35986328 54.75048828 C-12.6420446 51.89805551 -14.18282715 49.21085643 -15.72753906 46.49365234 C-16.159375 45.67509766 -16.59121094 44.85654297 -17.03613281 44.01318359 C-18.27771972 41.59972804 -18.27771972 41.59972804 -20.01269531 39.19287109 C-21.61923471 36.03383492 -21.24685256 35.04519676 -20.29003906 31.68115234 C-19.34979169 29.73240413 -18.33550753 27.81852888 -17.27050781 25.93505859 C-16.35495117 24.30793945 -16.35495117 24.30793945 -15.42089844 22.64794922 C-14.77958984 21.52453125 -14.13828125 20.40111328 -13.47753906 19.24365234 C-12.53297852 17.56432617 -12.53297852 17.56432617 -11.56933594 15.85107422 C-9.8320352 12.77935151 -8.0944085 9.713996 -6.29003906 6.68115234 C-5.65783447 5.58198486 -5.02562988 4.48281738 -4.37426758 3.3503418 C-2.29003906 0.68115234 -2.29003906 0.68115234 0 0 Z " fill="#802043" transform="translate(52.2900390625,19.31884765625)"/>
<path d="M0 0 C0.66 0 1.32 0 2 0 C2.46148437 0.81339844 2.92296875 1.62679688 3.3984375 2.46484375 C4.05070312 3.61082031 4.70296875 4.75679687 5.375 5.9375 C5.72425537 6.55488037 6.07351074 7.17226074 6.43334961 7.80834961 C8.49076609 11.42647179 10.6020161 15.00000559 12.79296875 18.5390625 C13.2533252 19.29195557 13.71368164 20.04484863 14.18798828 20.82055664 C15.09246459 22.29583301 16.0085531 23.76406309 16.93701172 25.22436523 C17.35096191 25.90442627 17.76491211 26.5844873 18.19140625 27.28515625 C18.56467041 27.88207275 18.93793457 28.47898926 19.32250977 29.09399414 C20.27670521 31.77846399 19.8279305 33.28729228 19 36 C18.05975263 37.94874821 17.04546846 39.86262346 15.98046875 41.74609375 C15.37009766 42.83083984 14.75972656 43.91558594 14.13085938 45.03320312 C13.48955078 46.15662109 12.84824219 47.28003906 12.1875 48.4375 C11.24293945 50.11682617 11.24293945 50.11682617 10.27929688 51.83007812 C8.54199614 54.90180083 6.80436944 57.96715634 5 61 C4.36779541 62.09916748 3.73559082 63.19833496 3.08422852 64.33081055 C1 67 1 67 -1.29003906 67.68115234 C-2.5154541 67.634021 -2.5154541 67.634021 -3.765625 67.5859375 C-4.65507813 67.56660156 -5.54453125 67.54726562 -6.4609375 67.52734375 C-7.38132812 67.47707031 -8.30171875 67.42679687 -9.25 67.375 C-10.65378906 67.33439453 -10.65378906 67.33439453 -12.0859375 67.29296875 C-14.3929724 67.22234523 -16.69530769 67.12380579 -19 67 C-18.32587156 63.50748438 -16.92272287 60.83251502 -15.1640625 57.75390625 C-14.59429687 56.75166016 -14.02453125 55.74941406 -13.4375 54.71679688 C-12.839375 53.67587891 -12.24125 52.63496094 -11.625 51.5625 C-11.03460938 50.52544922 -10.44421875 49.48839844 -9.8359375 48.41992188 C-5.33986571 40.53660681 -5.33986571 40.53660681 -3.31005859 37.33178711 C-1.79090834 35.05503495 -1.79090834 35.05503495 -1.9375 32.3125 C-3.24968642 28.22156587 -5.37622232 25.07658357 -7.8203125 21.5625 C-9.38834426 18.15644426 -9.06242452 16.57727748 -8 13 C-6.75498119 10.59752413 -5.51092422 8.39120709 -4.0625 6.125 C-3.70220703 5.53203125 -3.34191406 4.9390625 -2.97070312 4.328125 C-2.0426706 2.84464022 -1.02758664 1.41634641 0 0 Z " fill="#8690CD" transform="translate(107,21)"/>
<path d="M0 0 C0.81694336 0.0314209 1.63388672 0.0628418 2.47558594 0.09521484 C3.36503906 0.11455078 4.25449219 0.13388672 5.17089844 0.15380859 C6.09128906 0.20408203 7.01167969 0.25435547 7.95996094 0.30615234 C8.89582031 0.33322266 9.83167969 0.36029297 10.79589844 0.38818359 C13.10293334 0.45880711 15.40526863 0.55734656 17.70996094 0.68115234 C17.03805403 4.11041774 15.69625096 6.75407615 13.97949219 9.78662109 C13.14514648 11.26291992 13.14514648 11.26291992 12.29394531 12.76904297 C11.70935547 13.79191406 11.12476563 14.81478516 10.52246094 15.86865234 C9.67458008 17.37395508 9.67458008 17.37395508 8.80957031 18.90966797 C1.01447434 32.63368001 1.01447434 32.63368001 -2.29003906 36.68115234 C-2.95003906 36.68115234 -3.61003906 36.68115234 -4.29003906 36.68115234 C-4.29003906 38.00115234 -4.29003906 39.32115234 -4.29003906 40.68115234 C-4.95003906 40.68115234 -5.61003906 40.68115234 -6.29003906 40.68115234 C-6.72316406 42.04240234 -6.72316406 42.04240234 -7.16503906 43.43115234 C-8.05535682 46.00318142 -9.00498319 48.29462 -10.29003906 50.68115234 C-14.467199 49.17144709 -15.90633762 46.61837734 -18.10253906 42.86865234 C-18.72773437 41.83095703 -19.35292969 40.79326172 -19.99707031 39.72412109 C-21.49172694 36.2064851 -21.32468103 35.2695743 -20.29003906 31.68115234 C-19.34979169 29.73240413 -18.33550753 27.81852888 -17.27050781 25.93505859 C-16.35495117 24.30793945 -16.35495117 24.30793945 -15.42089844 22.64794922 C-14.77958984 21.52453125 -14.13828125 20.40111328 -13.47753906 19.24365234 C-12.53297852 17.56432617 -12.53297852 17.56432617 -11.56933594 15.85107422 C-9.8320352 12.77935151 -8.0944085 9.713996 -6.29003906 6.68115234 C-5.65783447 5.58198486 -5.02562988 4.48281738 -4.37426758 3.3503418 C-2.29003906 0.68115234 -2.29003906 0.68115234 0 0 Z " fill="#6075F6" transform="translate(52.2900390625,19.31884765625)"/>
<path d="M0 0 C2.06298828 -0.34057617 2.06298828 -0.34057617 4.5703125 -0.29296875 C5.46621094 -0.28330078 6.36210938 -0.27363281 7.28515625 -0.26367188 C8.69087891 -0.2259668 8.69087891 -0.2259668 10.125 -0.1875 C11.06988281 -0.17396484 12.01476562 -0.16042969 12.98828125 -0.14648438 C15.32608779 -0.11106306 17.66276237 -0.06167271 20 0 C19.06385433 1.72990025 18.12602042 3.45888696 17.1875 5.1875 C16.66542969 6.15042969 16.14335938 7.11335938 15.60546875 8.10546875 C14.56608898 9.97938701 13.49358318 11.83546542 12.3828125 13.66796875 C10.99892776 16.00180827 9.99360695 18.38277294 8.9609375 20.88671875 C6.91164719 25.39349135 4.40255631 29.67539864 2 34 C-4.93 34 -11.86 34 -19 34 C-13.33377263 22.2980087 -7.22042908 10.83064361 0 0 Z " fill="#FB5B92" transform="translate(88,20)"/>
<path d="M0 0 C5.94 0.33 11.88 0.66 18 1 C19.20800396 4.62401187 18.45858904 6.2097407 16.90209961 9.59936523 C15.00251907 13.23976684 13.30067633 16.45511048 10 19 C3.5504748 20.87880905 -3.43890523 19.92243221 -10 19 C-9.38903209 16.08312094 -8.48685442 13.86584666 -6.93359375 11.328125 C-6.38916626 10.4294873 -6.38916626 10.4294873 -5.83374023 9.51269531 C-5.37298096 8.76600586 -4.91222168 8.01931641 -4.4375 7.25 C-2.973125 4.8575 -1.50875 2.465 0 0 Z " fill="#6971AE" transform="translate(98,69)"/>
<path d="M0 0 C0.66 0 1.32 0 2 0 C3.34130761 2.26645058 4.67316234 4.53760097 6 6.8125 C6.3815625 7.45509766 6.763125 8.09769531 7.15625 8.75976562 C10 13.66015625 10 13.66015625 10 17 C3.6426799 30.67866005 3.6426799 30.67866005 -1 33 C-2.37557241 30.80269616 -3.72463252 28.59510062 -5.0625 26.375 C-5.45244141 25.75753906 -5.84238281 25.14007813 -6.24414062 24.50390625 C-8.06586873 21.4408236 -9.00152661 19.59232599 -8.9921875 15.96875 C-7.79169288 12.37671884 -6.08981975 9.29694807 -4.0625 6.125 C-3.70220703 5.53203125 -3.34191406 4.9390625 -2.97070312 4.328125 C-2.0426706 2.84464022 -1.02758664 1.41634641 0 0 Z " fill="#374188" transform="translate(107,21)"/>
<path d="M0 0 C8.95623857 11.79734144 8.95623857 11.79734144 9.046875 16.359375 C8.17021541 20.23364482 7.33157846 21.77894769 4 24 C3.28293018 25.98248715 2.61709587 27.98415349 2 30 C1.34 30.99 0.68 31.98 0 33 C-0.66 33 -1.32 33 -2 33 C-3.31582063 30.73103368 -4.62775236 28.45996813 -5.9375 26.1875 C-6.31068359 25.54490234 -6.68386719 24.90230469 -7.06835938 24.24023438 C-8.63466635 21.51683576 -10.00369374 18.98891878 -11 16 C-10.34 16 -9.68 16 -9 16 C-8.71125 14.906875 -8.4225 13.81375 -8.125 12.6875 C-7 9 -7 9 -5 6 C-4.34 6 -3.68 6 -3 6 C-3 4.68 -3 3.36 -3 2 C-2.01 1.34 -1.02 0.68 0 0 Z " fill="#2B317A" transform="translate(51,54)"/>
<path d="M0 0 C6.93 0 13.86 0 21 0 C19.39125 3.34125 19.39125 3.34125 17.75 6.75 C17.2564502 7.79172363 17.2564502 7.79172363 16.75292969 8.85449219 C14.95458835 12.51668436 13.20775568 15.4429047 10 18 C7.4375 17.8125 7.4375 17.8125 4 17 C2.04399867 16.78956124 0.08526595 16.60358158 -1.875 16.4375 C-3.32519531 16.31181641 -3.32519531 16.31181641 -4.8046875 16.18359375 C-5.89136719 16.09271484 -5.89136719 16.09271484 -7 16 C-6.1197007 9.90476306 -3.00543347 5.30746761 0 0 Z " fill="#CD3166" transform="translate(68,54)"/>
<path d="M0 0 C1.97119141 -0.34057617 1.97119141 -0.34057617 4.3515625 -0.29296875 C5.20234375 -0.28330078 6.053125 -0.27363281 6.9296875 -0.26367188 C7.81914063 -0.23853516 8.70859375 -0.21339844 9.625 -0.1875 C10.97078125 -0.16719727 10.97078125 -0.16719727 12.34375 -0.14648438 C14.56309789 -0.11106925 16.78125188 -0.06168461 19 0 C17.62364134 6.8817933 15.63670448 10.45393193 12 17 C5.07 17 -1.86 17 -9 17 C-7.88625 14.751875 -6.7725 12.50375 -5.625 10.1875 C-5.27775879 9.48391357 -4.93051758 8.78032715 -4.57275391 8.05541992 C-3.17358905 5.24457603 -1.74420358 2.61630537 0 0 Z " fill="#EE3D79" transform="translate(78,37)"/>
<path d="M0 0 C0.33 0.66 0.66 1.32 1 2 C2.13179687 1.97679687 3.26359375 1.95359375 4.4296875 1.9296875 C5.91145175 1.91093099 7.39322312 1.89273066 8.875 1.875 C9.62136719 1.85824219 10.36773437 1.84148438 11.13671875 1.82421875 C13.09194461 1.8066041 15.04742021 1.89679811 17 2 C17.66 2.66 18.32 3.32 19 4 C18.01 4.33 17.02 4.66 16 5 C16 6.32 16 7.64 16 9 C15.34 9 14.68 9 14 9 C13.71125 9.9075 13.4225 10.815 13.125 11.75 C12.23468224 14.32202908 11.28505587 16.61346766 10 19 C5.82284007 17.49029475 4.38370145 14.93722499 2.1875 11.1875 C1.56230469 10.14980469 0.93710937 9.11210938 0.29296875 8.04296875 C-1.11585299 4.72734296 -1.11239908 3.36205531 0 0 Z " fill="#4256C8" transform="translate(32,51)"/>
<path d="M0 0 C0.33 0.66 0.66 1.32 1 2 C1.88042969 1.97679688 2.76085938 1.95359375 3.66796875 1.9296875 C5.41013672 1.90261719 5.41013672 1.90261719 7.1875 1.875 C8.33605469 1.85179688 9.48460938 1.82859375 10.66796875 1.8046875 C13.91740372 1.99515848 16.08660521 2.60639873 19 4 C18.57847656 4.77085938 18.15695313 5.54171875 17.72265625 6.3359375 C17.17480469 7.33882813 16.62695312 8.34171875 16.0625 9.375 C15.51722656 10.37273437 14.97195312 11.37046875 14.41015625 12.3984375 C13.5850241 13.92070346 12.77435609 15.45128783 12 17 C10.68 17 9.36 17 8 17 C8 16.01 8 15.02 8 14 C7.34 14 6.68 14 6 14 C4.96986723 12.35178756 3.96885372 10.68496298 3 9 C2.67 9 2.34 9 2 9 C2 7.35 2 5.7 2 4 C1.34 4 0.68 4 0 4 C0 2.68 0 1.36 0 0 Z " fill="#99274D" transform="translate(60,68)"/>
<path d="M0 0 C2.27138348 2.93301771 4.26869942 5.95068793 6.1875 9.125 C6.71730469 9.99382813 7.24710938 10.86265625 7.79296875 11.7578125 C9 14 9 14 9 16 C3.72 16 -1.56 16 -7 16 C-7.33 16.66 -7.66 17.32 -8 18 C-8.99 17.34 -9.98 16.68 -11 16 C-10.34 16 -9.68 16 -9 16 C-8.71125 14.906875 -8.4225 13.81375 -8.125 12.6875 C-7 9 -7 9 -5 6 C-4.34 6 -3.68 6 -3 6 C-3 4.68 -3 3.36 -3 2 C-2.01 1.34 -1.02 0.68 0 0 Z " fill="#303E9B" transform="translate(51,54)"/>
<path d="M0 0 C0.66 0 1.32 0 2 0 C2 1.32 2 2.64 2 4 C2.66 4 3.32 4 4 4 C4.28875 4.804375 4.5775 5.60875 4.875 6.4375 C5.73262568 9.1326468 5.73262568 9.1326468 8 10 C8.68132451 11.66072849 9.34742127 13.327767 10 15 C10.66 15.66 11.32 16.32 12 17 C9.09651582 18.45174209 7.21596157 17.56420379 4 17 C0.33707479 16.62211913 -3.33050283 16.30687966 -7 16 C-6.40165275 11.85701333 -4.99335715 8.81805623 -2.9375 5.1875 C-2.11572266 3.72376953 -2.11572266 3.72376953 -1.27734375 2.23046875 C-0.85582031 1.49441406 -0.43429688 0.75835937 0 0 Z " fill="#B22E5A" transform="translate(68,54)"/>
<path d="M0 0 C5.61 0 11.22 0 17 0 C15.63023033 3.42442417 14.30960358 6.48175543 12.5625 9.6875 C12.15128906 10.45449219 11.74007812 11.22148438 11.31640625 12.01171875 C10 14 10 14 7 16 C5.82268014 14.0898586 4.65848895 12.17162056 3.5 10.25 C2.8503125 9.18265625 2.200625 8.1153125 1.53125 7.015625 C0 4 0 4 0 0 Z " fill="#4450AF" transform="translate(99,38)"/>
<path d="M0 0 C1.35699636 3.66389017 0.56778149 5.51604113 -1 9 C-1.33 10.32 -1.66 11.64 -2 13 C3.94 14.485 3.94 14.485 10 16 C10 16.66 10 17.32 10 18 C3.73 18 -2.54 18 -9 18 C-8.01 16.35 -7.02 14.7 -6 13 C-5.67 11.9275 -5.34 10.855 -5 9.75 C-4.67 8.8425 -4.34 7.935 -4 7 C-3.01 6.67 -2.02 6.34 -1 6 C-0.67 4.02 -0.34 2.04 0 0 Z " fill="#651F3C" transform="translate(59,70)"/>
<path d="M0 0 C0.5534764 2.07553648 1 3.84365964 1 6 C2.43791516 5.85831863 3.8753237 5.71148957 5.3125 5.5625 C6.11300781 5.48128906 6.91351563 5.40007812 7.73828125 5.31640625 C10.16087179 5.04734307 10.16087179 5.04734307 13 4 C15.1875 4.9375 15.1875 4.9375 17 6 C17 6.66 17 7.32 17 8 C10.4 8 3.8 8 -3 8 C-2.22404875 4.89619499 -1.4731994 2.74997221 0 0 Z " fill="#666891" transform="translate(91,80)"/>
<path d="M0 0 C0.66 0 1.32 0 2 0 C2 0.66 2 1.32 2 2 C2.61488281 1.97679687 3.22976562 1.95359375 3.86328125 1.9296875 C4.67152344 1.91164062 5.47976562 1.89359375 6.3125 1.875 C7.11300781 1.85179687 7.91351563 1.82859375 8.73828125 1.8046875 C11 2 11 2 14 4 C8.06 4 2.12 4 -4 4 C-2.68 2.68 -1.36 1.36 0 0 Z " fill="#36479D" transform="translate(103,34)"/>
<path d="M0 0 C1.12329712 0.07069702 1.12329712 0.07069702 2.26928711 0.14282227 C3.07817383 0.19116211 3.88706055 0.23950195 4.72045898 0.28930664 C5.99566406 0.37341797 5.99566406 0.37341797 7.29663086 0.45922852 C8.57763672 0.53753906 8.57763672 0.53753906 9.88452148 0.61743164 C12.00135081 0.74751612 14.1177833 0.88402822 16.23413086 1.02172852 C16.56413086 2.01172852 16.89413086 3.00172852 17.23413086 4.02172852 C15.79663086 6.20922852 15.79663086 6.20922852 14.23413086 8.02172852 C14.23413086 6.04172852 14.23413086 4.06172852 14.23413086 2.02172852 C9.94413086 2.02172852 5.65413086 2.02172852 1.23413086 2.02172852 C0.90413086 2.68172852 0.57413086 3.34172852 0.23413086 4.02172852 C0.23413086 3.36172852 0.23413086 2.70172852 0.23413086 2.02172852 C-0.75586914 1.69172852 -1.74586914 1.36172852 -2.76586914 1.02172852 C-1.76586914 0.02172852 -1.76586914 0.02172852 0 0 Z " fill="#727BC0" transform="translate(99.765869140625,68.978271484375)"/>
<path d="M0 0 C6.6 0 13.2 0 20 0 C19 4 19 4 17 6 C17 4.68 17 3.36 17 2 C11.72 1.67 6.44 1.34 1 1 C1 1.66 1 2.32 1 3 C0.34 3 -0.32 3 -1 3 C-0.67 2.01 -0.34 1.02 0 0 Z " fill="#7282D7" transform="translate(50,20)"/>
<path d="M0 0 C1.32 0.33 2.64 0.66 4 1 C3.6189482 3.76262553 3.16402868 4.84143894 1.125 6.8125 C0.42375 7.204375 -0.2775 7.59625 -1 8 C-1.99 7.67 -2.98 7.34 -4 7 C-2.68 4.69 -1.36 2.38 0 0 Z " fill="#7884BA" transform="translate(106,54)"/>
<path d="M0 0 C0.94928272 2.56306335 1.06529109 3.78780395 0.25 6.4375 C-1.02942736 9.06032608 -2.44744314 11.53002318 -4 14 C-4.66 13.67 -5.32 13.34 -6 13 C-5.1875 10.0625 -5.1875 10.0625 -4 7 C-3.01 6.67 -2.02 6.34 -1 6 C-0.67 4.02 -0.34 2.04 0 0 Z " fill="#632557" transform="translate(59,70)"/>
<path d="M0 0 C0.33 1.32 0.66 2.64 1 4 C0.34 4 -0.32 4 -1 4 C-1 5.65 -1 7.3 -1 9 C-1.639375 9.268125 -2.27875 9.53625 -2.9375 9.8125 C-5.33131686 10.88667752 -5.33131686 10.88667752 -6 14 C-5.57202798 8.29370646 -3.15654048 4.58921384 0 0 Z " fill="#644191" transform="translate(104,26)"/>
<path d="M0 0 C6.6 0 13.2 0 20 0 C19.34 1.32 18.68 2.64 18 4 C17.34 3.34 16.68 2.68 16 2 C13.26565038 1.6936141 10.61720179 1.4886664 7.875 1.375 C7.12089844 1.33632813 6.36679688 1.29765625 5.58984375 1.2578125 C3.72696816 1.16348969 1.86351745 1.08065338 0 1 C0 0.67 0 0.34 0 0 Z " fill="#DB729D" transform="translate(88,20)"/>
<path d="M0 0 C0.99 0 1.98 0 3 0 C2.52797514 4.24822374 0.03344482 6.19989709 -3 9 C-3.2519555 5.97653399 -3.20421041 4.3597993 -1.6875 1.6875 C-1.130625 1.130625 -0.57375 0.57375 0 0 Z " fill="#8891DC" transform="translate(115,40)"/>
<path d="M0 0 C0.99 0.66 1.98 1.32 3 2 C0.78972846 5.37357234 -1.46399535 7.08864614 -5 9 C-3.7508258 5.54074837 -2.32472205 2.85306797 0 0 Z " fill="#5261DC" transform="translate(40,38)"/>
<path d="M0 0 C0.33 0.66 0.66 1.32 1 2 C1.66 2 2.32 2 3 2 C3 2.99 3 3.98 3 5 C3.99 5.33 4.98 5.66 6 6 C5.34 6.66 4.68 7.32 4 8 C4 7.34 4 6.68 4 6 C2.35 5.67 0.7 5.34 -1 5 C-0.67 3.35 -0.34 1.7 0 0 Z " fill="#872748" transform="translate(65,80)"/>
<path d="M0 0 C0.99 0 1.98 0 3 0 C3.33 1.98 3.66 3.96 4 6 C3.01 6 2.02 6 1 6 C0.67 4.02 0.34 2.04 0 0 Z " fill="#3958D3" transform="translate(36,60)"/>
<path d="M0 0 C0.66 0 1.32 0 2 0 C0.66511872 3.59391114 -0.96022723 6.75490696 -3 10 C-3.6875 8.1875 -3.6875 8.1875 -4 6 C-2.625 4.4375 -2.625 4.4375 -1 3 C-0.67 2.01 -0.34 1.02 0 0 Z " fill="#E36EAA" transform="translate(103,24)"/>
<path d="M0 0 C0.66 0.33 1.32 0.66 2 1 C0.60667426 4.36720387 -0.9789286 5.9859524 -4 8 C-2.87548273 5.0280615 -1.77706209 2.66559313 0 0 Z " fill="#626B98" transform="translate(97,71)"/>
<path d="M0 0 C0.66 0 1.32 0 2 0 C0.375 5.75 0.375 5.75 -3 8 C-1.125 2.25 -1.125 2.25 0 0 Z " fill="#3343AF" transform="translate(46,60)"/>
</svg>
