<?xml version="1.0" encoding="UTF-8"?>
<svg version="1.1" xmlns="http://www.w3.org/2000/svg" width="160" height="110">
<path d="M0 0 C7.50587468 1.52661858 14.69515943 3.69320824 22 6 C22 13.26 22 20.52 22 28 C18.5040625 29.2065625 18.5040625 29.2065625 14.9375 30.4375 C14.21812256 30.68943115 13.49874512 30.9413623 12.75756836 31.20092773 C12.16596924 31.40145752 11.57437012 31.6019873 10.96484375 31.80859375 C10.3730835 32.01282959 9.78132324 32.21706543 9.17163086 32.42749023 C6.1722892 33.21821044 3.07064538 33.56133637 0 34 C0 28.72 0 23.44 0 18 C2.64 18 5.28 18 8 18 C8 17.34 8 16.68 8 16 C5.36 16 2.72 16 0 16 C0 10.72 0 5.44 0 0 Z " fill="#F27D05" transform="translate(24,38)"/>
<path d="M0 0 C1.98 0 3.96 0 6 0 C6.33 1.65 6.66 3.3 7 5 C9.31 5 11.62 5 14 5 C14 3.35 14 1.7 14 0 C15.65 0 17.3 0 19 0 C19 1.65 19 3.3 19 5 C19.969375 4.979375 20.93875 4.95875 21.9375 4.9375 C25 5 25 5 26 6 C26.0989294 8.16480797 26.129711 10.33293785 26.125 12.5 C26.12886719 14.27890625 26.12886719 14.27890625 26.1328125 16.09375 C26 19 26 19 25 20 C23.14630389 20.08737645 21.28932459 20.10698153 19.43359375 20.09765625 C18.30888672 20.09443359 17.18417969 20.09121094 16.02539062 20.08789062 C14.84138672 20.07951172 13.65738281 20.07113281 12.4375 20.0625 C11.24962891 20.05798828 10.06175781 20.05347656 8.83789062 20.04882812 C5.89187774 20.03699675 2.94596319 20.02051287 0 20 C0 16.7 0 13.4 0 10 C-0.99 10.33 -1.98 10.66 -3 11 C-3.33 13.97 -3.66 16.94 -4 20 C-5.65 20 -7.3 20 -9 20 C-9 15.05 -9 10.1 -9 5 C-6.03 5 -3.06 5 0 5 C0 3.35 0 1.7 0 0 Z M13 6 C11.17561652 9.75608363 10.69929667 11.98949808 12 16 C12.66 16.66 13.32 17.32 14 18 C14 14.04 14 10.08 14 6 C13.67 6 13.34 6 13 6 Z M19 9 C19 10.98 19 12.96 19 15 C19.33 15 19.66 15 20 15 C20 13.02 20 11.04 20 9 C19.67 9 19.34 9 19 9 Z " fill="#5F5F5E" transform="translate(100,45)"/>
<path d="M0 0 C0 11.22 0 22.44 0 34 C-6.98144974 32.83642504 -10.90639486 30.49267612 -17 27 C-17 20.4 -17 13.8 -17 7 C-10.25 3.625 -10.25 3.625 -6 3 C-6 2.34 -6 1.68 -6 1 C-3 0 -3 0 0 0 Z " fill="#615F5F" transform="translate(23,38)"/>
<path d="M0 0 C6.6 0 13.2 0 20 0 C20 5.94 20 11.88 20 18 C16.83928451 19.58035774 13.46725496 19.22575346 10 19.25 C9.26265625 19.270625 8.5253125 19.29125 7.765625 19.3125 C5.625 19.328125 5.625 19.328125 2 19 C-0.52967768 15.20548348 -0.22360092 12.18802503 -0.125 7.8125 C-0.08375 5.234375 -0.0425 2.65625 0 0 Z " fill="#625D5B" transform="translate(56,46)"/>
<path d="M0 0 C1.00023193 0.00523682 2.00046387 0.01047363 3.03100586 0.01586914 C4.1105957 0.0190918 5.19018555 0.02231445 6.30249023 0.02563477 C8.00695312 0.03820313 8.00695312 0.03820313 9.74584961 0.05102539 C11.45611328 0.05779297 11.45611328 0.05779297 13.20092773 0.06469727 C16.02845312 0.07652792 18.85587601 0.09301129 21.68334961 0.11352539 C21.1340332 2.12158203 20.5847168 4.12963867 20.03540039 6.13769531 C19.57352841 8.72987972 20.2475767 9.95986603 21.68334961 12.11352539 C21.68334961 13.10352539 21.68334961 14.09352539 21.68334961 15.11352539 C17.89169886 15.1424591 14.10007634 15.16030141 10.30834961 15.17602539 C9.22811523 15.1844043 8.14788086 15.1927832 7.03491211 15.20141602 C5.48803711 15.20625 5.48803711 15.20625 3.90991211 15.21118164 C2.95681152 15.21641846 2.00371094 15.22165527 1.02172852 15.22705078 C-1.31665039 15.11352539 -1.31665039 15.11352539 -3.31665039 14.11352539 C-3.34350977 11.96775903 -3.36298127 9.82189894 -3.37915039 7.67602539 C-3.39075195 6.48106445 -3.40235352 5.28610352 -3.41430664 4.05493164 C-3.28502537 0.16097974 -3.28502537 0.16097974 0 0 Z M2.68334961 4.11352539 C2.68334961 6.09352539 2.68334961 8.07352539 2.68334961 10.11352539 C3.01334961 10.11352539 3.34334961 10.11352539 3.68334961 10.11352539 C3.68334961 8.13352539 3.68334961 6.15352539 3.68334961 4.11352539 C3.35334961 4.11352539 3.02334961 4.11352539 2.68334961 4.11352539 Z M9.68334961 5.11352539 C9.68334961 6.76352539 9.68334961 8.41352539 9.68334961 10.11352539 C10.01334961 10.11352539 10.34334961 10.11352539 10.68334961 10.11352539 C10.68334961 8.46352539 10.68334961 6.81352539 10.68334961 5.11352539 C10.35334961 5.11352539 10.02334961 5.11352539 9.68334961 5.11352539 Z " fill="#5F5F60" transform="translate(130.316650390625,49.886474609375)"/>
<path d="M0 0 C0.89589844 0.01417969 1.79179688 0.02835938 2.71484375 0.04296875 C4.06255859 0.05263672 4.06255859 0.05263672 5.4375 0.0625 C7.65234375 0.23046875 7.65234375 0.23046875 8.65234375 1.23046875 C8.77749303 3.20666322 8.82807135 5.18785048 8.83984375 7.16796875 C8.85402344 8.24949219 8.86820313 9.33101562 8.8828125 10.4453125 C8.65234375 13.23046875 8.65234375 13.23046875 6.65234375 15.23046875 C4.55859375 15.49609375 4.55859375 15.49609375 2.15234375 15.48046875 C1.35828125 15.485625 0.56421875 15.49078125 -0.25390625 15.49609375 C-2.34765625 15.23046875 -2.34765625 15.23046875 -4.34765625 13.23046875 C-4.61328125 10.69921875 -4.61328125 10.69921875 -4.59765625 7.73046875 C-4.6028125 6.75078125 -4.60796875 5.77109375 -4.61328125 4.76171875 C-4.25693586 1.36595684 -3.4379699 0.33750453 0 0 Z M1.65234375 4.23046875 C1.65234375 6.21046875 1.65234375 8.19046875 1.65234375 10.23046875 C1.98234375 10.23046875 2.31234375 10.23046875 2.65234375 10.23046875 C2.65234375 8.25046875 2.65234375 6.27046875 2.65234375 4.23046875 C2.32234375 4.23046875 1.99234375 4.23046875 1.65234375 4.23046875 Z " fill="#5D5D5E" transform="translate(81.34765625,49.76953125)"/>
</svg>
