<?xml version="1.0" encoding="UTF-8"?>
<svg version="1.1" xmlns="http://www.w3.org/2000/svg" width="160" height="110">
<path d="M0 0 C37.62 0 75.24 0 114 0 C114 23.76 114 47.52 114 72 C76.38 72 38.76 72 0 72 C0 48.24 0 24.48 0 0 Z " fill="#FEFDFD" transform="translate(22,18)"/>
<path d="M0 0 C-0.33 2.97 -0.66 5.94 -1 9 C-6.57432514 10.66251802 -10.3067505 11.18609365 -16 10 C-15.67 10.99 -15.34 11.98 -15 13 C-14.34 13.33 -13.68 13.66 -13 14 C-13.66 15.32 -14.32 16.64 -15 18 C-22.59 18 -30.18 18 -38 18 C-38 18.99 -38 19.98 -38 21 C-21.97356017 21.15457401 -21.97356017 21.15457401 -6 20 C-6 19.34 -6 18.68 -6 18 C-5.34 18 -4.68 18 -4 18 C-4 18.99 -4 19.98 -4 21 C-3.34 21 -2.68 21 -2 21 C-2 21.99 -2 22.98 -2 24 C-14.76659275 27.17276269 -25.99414309 27.43371651 -39 26 C-39.33 24.68 -39.66 23.36 -40 22 C-41.65 22 -43.3 22 -45 22 C-45 21.01 -45 20.02 -45 19 C-42.03 18.01 -39.06 17.02 -36 16 C-36.33 15.34 -36.66 14.68 -37 14 C-37 11.33333333 -37 8.66666667 -37 6 C-38.32 5.67 -39.64 5.34 -41 5 C-41 4.01 -41 3.02 -41 2 C-36.375 -0.125 -36.375 -0.125 -33 1 C-33.33 1.33 -33.66 1.66 -34 2 C-31.10391407 2.05413245 -28.20884805 2.09373641 -25.3125 2.125 C-24.49587891 2.14175781 -23.67925781 2.15851562 -22.83789062 2.17578125 C-18.3973472 2.21173707 -15.05095192 2.02547596 -11 0 C-4.53608247 -2.26804124 -4.53608247 -2.26804124 0 0 Z " fill="#D5F5FC" transform="translate(76,54)"/>
<path d="M0 0 C-0.33 2.97 -0.66 5.94 -1 9 C-6.61245599 10.61714834 -10.04229366 11.29136427 -15.6640625 9.45703125 C-18.98095348 8.80807432 -22.26213175 8.93557724 -25.625 9 C-32.73083942 9.13458029 -32.73083942 9.13458029 -35 8 C-35.66 8.66 -36.32 9.32 -37 10 C-37 8.68 -37 7.36 -37 6 C-38.32 5.67 -39.64 5.34 -41 5 C-41 4.01 -41 3.02 -41 2 C-36.375 -0.125 -36.375 -0.125 -33 1 C-33.33 1.33 -33.66 1.66 -34 2 C-31.10391407 2.05413245 -28.20884805 2.09373641 -25.3125 2.125 C-24.49587891 2.14175781 -23.67925781 2.15851562 -22.83789062 2.17578125 C-18.3973472 2.21173707 -15.05095192 2.02547596 -11 0 C-4.53608247 -2.26804124 -4.53608247 -2.26804124 0 0 Z " fill="#E9F7FA" transform="translate(76,54)"/>
<path d="M0 0 C1.65 0.33 3.3 0.66 5 1 C5 1.66 5 2.32 5 3 C5.62648438 3.03738281 6.25296875 3.07476562 6.8984375 3.11328125 C7.71570313 3.17902344 8.53296875 3.24476562 9.375 3.3125 C10.59316406 3.39951172 10.59316406 3.39951172 11.8359375 3.48828125 C14 4 14 4 16 7 C16.1953125 9.69921875 16.1953125 9.69921875 16.125 12.6875 C16.10695313 13.68136719 16.08890625 14.67523438 16.0703125 15.69921875 C16.04710938 16.45847656 16.02390625 17.21773437 16 18 C15.15695313 18.10957031 14.31390625 18.21914063 13.4453125 18.33203125 C12.34960938 18.49058594 11.25390625 18.64914063 10.125 18.8125 C8.48917969 19.03873047 8.48917969 19.03873047 6.8203125 19.26953125 C3.68761154 19.74665741 3.68761154 19.74665741 2 23 C0.68 23 -0.64 23 -2 23 C-1.84152588 22.4337793 -1.68305176 21.86755859 -1.51977539 21.28417969 C-0.99214152 18.9654655 -0.795844 16.82641603 -0.68359375 14.453125 C-0.64169922 13.60878906 -0.59980469 12.76445313 -0.55664062 11.89453125 C-0.51732422 11.02183594 -0.47800781 10.14914063 -0.4375 9.25 C-0.39431641 8.36183594 -0.35113281 7.47367188 -0.30664062 6.55859375 C-0.20086385 4.37254037 -0.09877454 2.18637911 0 0 Z " fill="#FFF1EA" transform="translate(82,45)"/>
<path d="M0 0 C1.88177962 2.70682413 1.59327209 4.80387781 1.48828125 8.05859375 C1.46121094 9.14527344 1.43414062 10.23195313 1.40625 11.3515625 C1.37144531 12.18300781 1.33664063 13.01445313 1.30078125 13.87109375 C-1.86401645 14.57499797 -4.77058824 14.98852817 -8.01171875 14.93359375 C-9.83703125 14.90265625 -9.83703125 14.90265625 -11.69921875 14.87109375 C-11.69921875 14.21109375 -11.69921875 13.55109375 -11.69921875 12.87109375 C-14.00921875 13.20109375 -16.31921875 13.53109375 -18.69921875 13.87109375 C-19.68921875 9.58109375 -20.67921875 5.29109375 -21.69921875 0.87109375 C-20.70921875 0.87109375 -19.71921875 0.87109375 -18.69921875 0.87109375 C-17.70921875 3.51109375 -16.71921875 6.15109375 -15.69921875 8.87109375 C-15.03921875 5.90109375 -14.37921875 2.93109375 -13.69921875 -0.12890625 C-3.80454256 -2.52761563 -3.80454256 -2.52761563 0 0 Z " fill="#FAD9DA" transform="translate(121.69921875,49.12890625)"/>
<path d="M0 0 C2 2 2 2 2.1953125 4.3828125 C2.17210938 5.28773437 2.14890625 6.19265625 2.125 7.125 C2.10695313 8.03507812 2.08890625 8.94515625 2.0703125 9.8828125 C2.04710938 10.58148438 2.02390625 11.28015625 2 12 C3.32 12.33 4.64 12.66 6 13 C5.030625 13.639375 4.06125 14.27875 3.0625 14.9375 C0.23963731 16.6965259 0.23963731 16.6965259 -1 18 C-1.29386153 21.72224599 -1.14809171 22.77786243 1 26 C1.39387788 28.32387947 1.73486085 30.65793749 2 33 C0.35 33 -1.3 33 -3 33 C-3 32.34 -3 31.68 -3 31 C-3.99 31.33 -4.98 31.66 -6 32 C-8 32 -8 32 -10 31 C-11.6875 27.75 -11.6875 27.75 -13 24 C-13.309375 23.13375 -13.61875 22.2675 -13.9375 21.375 C-14 19 -14 19 -12.5625 16.625 C-10.41145345 14.4214889 -8.25259481 12.56518666 -5.875 10.625 C-1.97991645 7.33083083 -0.81512567 4.9926447 0 0 Z " fill="#F9E3E3" transform="translate(58,22)"/>
<path d="M0 0 C0.66 0 1.32 0 2 0 C2 0.99 2 1.98 2 3 C2.66 3 3.32 3 4 3 C4 3.99 4 4.98 4 6 C-8.76659275 9.17276269 -19.99414309 9.43371651 -33 8 C-33.33 7.01 -33.66 6.02 -34 5 C-33.18321777 4.97494385 -32.36643555 4.9498877 -31.52490234 4.92407227 C-27.80812451 4.80770857 -24.09157498 4.68516528 -20.375 4.5625 C-19.08980469 4.52318359 -17.80460937 4.48386719 -16.48046875 4.44335938 C-15.23652344 4.40146484 -13.99257813 4.35957031 -12.7109375 4.31640625 C-11.56931152 4.27974854 -10.42768555 4.24309082 -9.25146484 4.20532227 C-6.1066072 4.00673199 -3.0958509 3.5761153 0 3 C0 2.01 0 1.02 0 0 Z " fill="#ACCCD6" transform="translate(70,72)"/>
<path d="M0 0 C3.375 -0.1875 3.375 -0.1875 7 0 C9.28062828 3.42094242 9.21925007 4.68187222 9.125 8.6875 C9.10695313 9.68136719 9.08890625 10.67523438 9.0703125 11.69921875 C9.03550781 12.83810547 9.03550781 12.83810547 9 14 C7.35425434 14.02688151 5.70838587 14.04634123 4.0625 14.0625 C3.14597656 14.07410156 2.22945313 14.08570313 1.28515625 14.09765625 C-1 14 -1 14 -2 13 C-2.25 10.5625 -2.25 10.5625 -2 8 C1.22791555 5.8480563 2.28400809 5.79913557 6 6 C5.67 5.01 5.34 4.02 5 3 C2.03 2.505 2.03 2.505 -1 2 C-0.67 1.34 -0.34 0.68 0 0 Z " fill="#C35350" transform="translate(89,49)"/>
<path d="M0 0 C1.30710937 -0.01836914 1.30710937 -0.01836914 2.640625 -0.03710938 C3.88972656 -0.04000977 3.88972656 -0.04000977 5.1640625 -0.04296875 C5.92412598 -0.04707764 6.68418945 -0.05118652 7.46728516 -0.05541992 C9.375 0.1875 9.375 0.1875 11.375 2.1875 C12.69247324 2.88498583 14.02414193 3.55709957 15.375 4.1875 C9.58242866 5.01501019 3.90474379 5.29659553 -1.9375 5.3125 C-2.63101563 5.31701172 -3.32453125 5.32152344 -4.0390625 5.32617188 C-7.37683135 5.31645022 -10.43432285 5.22098412 -13.625 4.1875 C-13.625 3.1975 -13.625 2.2075 -13.625 1.1875 C-9.080746 -0.10560663 -4.6933937 0.00350253 0 0 Z " fill="#EEFAFD" transform="translate(51.625,70.8125)"/>
<path d="M0 0 C2.875 -0.125 2.875 -0.125 6 0 C8 2 8 2 8.1953125 4.8203125 C8.16050781 6.45613281 8.16050781 6.45613281 8.125 8.125 C8.10695313 9.22070312 8.08890625 10.31640625 8.0703125 11.4453125 C8.04710938 12.28835937 8.02390625 13.13140625 8 14 C6.52093108 14.02689216 5.04172517 14.04634621 3.5625 14.0625 C2.32693359 14.07990234 2.32693359 14.07990234 1.06640625 14.09765625 C-1 14 -1 14 -2 13 C-2.25 10.5625 -2.25 10.5625 -2 8 C1 6 1 6 5 6 C5 4.68 5 3.36 5 2 C3.02 2 1.04 2 -1 2 C-0.67 1.34 -0.34 0.68 0 0 Z " fill="#BC494A" transform="translate(115,49)"/>
<path d="M0 0 C2 2 2 2 2 4.125 C0.29735224 9.02011231 -2.87994808 13.55123465 -7.18359375 16.4921875 C-9.17570523 17.82471612 -9.17570523 17.82471612 -9.390625 19.9375 C-9.34421875 20.618125 -9.2978125 21.29875 -9.25 22 C-9.21390625 22.680625 -9.1778125 23.36125 -9.140625 24.0625 C-9.09421875 24.701875 -9.0478125 25.34125 -9 26 C-9 26.99 -9 27.98 -9 29 C-9.87244765 27.95245905 -10.72236674 26.88613078 -11.5625 25.8125 C-12.03816406 25.22082031 -12.51382813 24.62914063 -13.00390625 24.01953125 C-14 22 -14 22 -14.02734375 19.6015625 C-12.35084207 15.3561248 -8.76477929 12.98774226 -5.3046875 10.19335938 C-2.44489229 7.75838881 -1.08792154 6.33637841 -0.125 2.65234375 C-0.08375 1.77707031 -0.0425 0.90179687 0 0 Z " fill="#CC5D63" transform="translate(58,22)"/>
<path d="M0 0 C0.99 0 1.98 0 3 0 C2.71572583 1.58467728 2.42225182 3.1677057 2.125 4.75 C1.96257812 5.63171875 1.80015625 6.5134375 1.6328125 7.421875 C1.03203736 9.86947744 0.22002883 11.80599857 -1 14 C-2.32 14 -3.64 14 -5 14 C-5.99 9.71 -6.98 5.42 -8 1 C-7.01 1 -6.02 1 -5 1 C-4.01 3.64 -3.02 6.28 -2 9 C-1.34 6.03 -0.68 3.06 0 0 Z " fill="#C94D53" transform="translate(108,49)"/>
<path d="M0 0 C0.99 0.33 1.98 0.66 3 1 C2.030625 1.639375 1.06125 2.27875 0.0625 2.9375 C-2.76036269 4.6965259 -2.76036269 4.6965259 -4 6 C-4.29386153 9.72224599 -4.14809171 10.77786243 -2 14 C-2.25 16.625 -2.25 16.625 -3 19 C-3.66 19.33 -4.32 19.66 -5 20 C-5.433125 18.88625 -5.433125 18.88625 -5.875 17.75 C-6.89396155 15.06700264 -6.89396155 15.06700264 -8.1875 13 C-9.34385741 10.15358177 -9.1174785 8.86353866 -8 6 C-5.64176959 3.54551529 -3.05651722 1.52825861 0 0 Z " fill="#C65C64" transform="translate(61,34)"/>
<path d="M0 0 C0.99 0 1.98 0 3 0 C3.11644156 3.08301416 3.18732432 6.16546123 3.25 9.25 C3.30027344 10.55904297 3.30027344 10.55904297 3.3515625 11.89453125 C3.45112665 18.41598332 3.45112665 18.41598332 0.984375 21.609375 C0.32953125 22.06828125 -0.3253125 22.5271875 -1 23 C-1.33 22.01 -1.66 21.02 -2 20 C-1.67 19.67 -1.34 19.34 -1 19 C-0.84379445 17.58672053 -0.74943827 16.1664541 -0.68359375 14.74609375 C-0.64169922 13.89208984 -0.59980469 13.03808594 -0.55664062 12.15820312 C-0.51732422 11.26037109 -0.47800781 10.36253906 -0.4375 9.4375 C-0.39431641 8.53580078 -0.35113281 7.63410156 -0.30664062 6.70507812 C-0.20021858 4.47021515 -0.09820012 2.23523692 0 0 Z " fill="#D33F46" transform="translate(82,45)"/>
<path d="M0 0 C-0.33 0.33 -0.66 0.66 -1 1 C6.26 1 13.52 1 21 1 C17.24374189 4.75625811 11.67681778 4.12779328 6.625 4.13671875 C5.8825 4.13285156 5.14 4.12898438 4.375 4.125 C3.24964844 4.13080078 3.24964844 4.13080078 2.1015625 4.13671875 C-1.43633044 4.13044589 -4.59763408 3.95251112 -8 3 C-8 2.34 -8 1.68 -8 1 C-3.375 -1.125 -3.375 -1.125 0 0 Z " fill="#6C94AA" transform="translate(43,55)"/>
<path d="M0 0 C0.66 0.33 1.32 0.66 2 1 C1.67 1.66 1.34 2.32 1 3 C19.03263402 3.28106016 19.03263402 3.28106016 37 2 C32.09585862 6.90414138 23.56187659 5.18424577 17.125 5.1875 C15.22427734 5.20586914 15.22427734 5.20586914 13.28515625 5.22460938 C11.44630859 5.22750977 11.44630859 5.22750977 9.5703125 5.23046875 C8.45414551 5.23457764 7.33797852 5.23868652 6.18798828 5.24291992 C2.83793721 4.98765106 0.12975879 4.19129137 -3 3 C-2.01 2.01 -1.02 1.02 0 0 Z " fill="#5A8AA9" transform="translate(33,72)"/>
<path d="M0 0 C-0.33 2.97 -0.66 5.94 -1 9 C-4.70152678 9.92538169 -5.63458162 10.08174162 -9 9 C-8.505 8.608125 -8.01 8.21625 -7.5 7.8125 C-5.77315539 6.05777138 -5.77315539 6.05777138 -5.6875 3.4375 C-5.77033253 0.82203581 -5.77033253 0.82203581 -8 -1 C-4.23350139 -2.34517808 -3.97399267 -1.98699633 0 0 Z " fill="#DAF1F7" transform="translate(76,54)"/>
<path d="M0 0 C1.98 0 3.96 0 6 0 C7.36884358 4.51718381 6.47075246 7.58774263 5 12 C3.35 11.67 1.7 11.34 0 11 C1.75 7.125 1.75 7.125 4 6 C4.65213292 3.97536745 4.65213292 3.97536745 5 2 C3.02 2 1.04 2 -1 2 C-0.67 1.34 -0.34 0.68 0 0 Z " fill="#CC5960" transform="translate(115,49)"/>
<path d="M0 0 C6.27 0.33 12.54 0.66 19 1 C15.93909897 4.06090103 13.20743299 4.15633509 9.0625 4.1875 C8.20785156 4.20167969 7.35320313 4.21585937 6.47265625 4.23046875 C3.86090697 3.98703556 2.24499348 3.3178268 0 2 C0 1.34 0 0.68 0 0 Z " fill="#307EAA" transform="translate(42,68)"/>
<path d="M0 0 C0.66 0.33 1.32 0.66 2 1 C3.37548156 1.08308638 4.75485796 1.10736016 6.1328125 1.09765625 C6.93847656 1.09443359 7.74414062 1.09121094 8.57421875 1.08789062 C9.41597656 1.07951172 10.25773437 1.07113281 11.125 1.0625 C12.39923828 1.05573242 12.39923828 1.05573242 13.69921875 1.04882812 C15.79950909 1.03702874 17.8997633 1.01909306 20 1 C20.33 1.66 20.66 2.32 21 3 C18.72926921 4.1353654 17.45716721 4.12892412 14.9375 4.1328125 C14.14085937 4.13410156 13.34421875 4.13539062 12.5234375 4.13671875 C11.69070312 4.13285156 10.85796875 4.12898438 10 4.125 C8.75089844 4.13080078 8.75089844 4.13080078 7.4765625 4.13671875 C6.67992187 4.13542969 5.88328125 4.13414063 5.0625 4.1328125 C4.33160156 4.13168457 3.60070313 4.13055664 2.84765625 4.12939453 C1 4 1 4 -1 3 C-0.67 2.01 -0.34 1.02 0 0 Z " fill="#407C9D" transform="translate(41,61)"/>
<path d="M0 0 C3.63 0.33 7.26 0.66 11 1 C11 1.33 11 1.66 11 2 C8.36 2 5.72 2 3 2 C3 2.66 3 3.32 3 4 C2.34 4 1.68 4 1 4 C1.33 4.99 1.66 5.98 2 7 C0.35 7.33 -1.3 7.66 -3 8 C-3 8.99 -3 9.98 -3 11 C-4.32 11 -5.64 11 -7 11 C-6.67 9.68 -6.34 8.36 -6 7 C-4.35 6.67 -2.7 6.34 -1 6 C-1.33 5.34 -1.66 4.68 -2 4 C-1.34 2.68 -0.68 1.36 0 0 Z " fill="#D2EAF3" transform="translate(41,64)"/>
<path d="M0 0 C2 3 2 3 3 6 C-1.29833361 9.14512215 -4.82069003 10.75696561 -10 12 C-9.278125 11.319375 -8.55625 10.63875 -7.8125 9.9375 C-4.76544307 6.90785482 -2.42792046 3.53782696 0 0 Z " fill="#FBDEDE" transform="translate(58,29)"/>
<path d="M0 0 C0 0.66 0 1.32 0 2 C1.65 2.33 3.3 2.66 5 3 C5 3.33 5 3.66 5 4 C0.38 4 -4.24 4 -9 4 C-9 3.01 -9 2.02 -9 1 C-5.8035914 -0.06546953 -3.34252724 -0.07427838 0 0 Z " fill="#EFF9FD" transform="translate(55,53)"/>
<path d="M0 0 C2.375 -0.1875 2.375 -0.1875 5 0 C5.66 0.99 6.32 1.98 7 3 C6.51917969 3.39832031 6.03835937 3.79664063 5.54296875 4.20703125 C3.62608175 6.43450247 3.52258357 7.78834669 3.3125 10.6875 C3.24675781 11.49574219 3.18101563 12.30398437 3.11328125 13.13671875 C3.07589844 13.75160156 3.03851563 14.36648437 3 15 C1.35 15 -0.3 15 -2 15 C-2 14.34 -2 13.68 -2 13 C-0.68 13.33 0.64 13.66 2 14 C1.85923685 12.0412957 1.7122324 10.08303907 1.5625 8.125 C1.48128906 7.03445312 1.40007812 5.94390625 1.31640625 4.8203125 C1.16998297 2.05271029 1.16998297 2.05271029 0 0 Z " fill="#FADFDC" transform="translate(121,49)"/>
<path d="M0 0 C0.99 0.33 1.98 0.66 3 1 C3 1.66 3 2.32 3 3 C4.98 3.66 6.96 4.32 9 5 C9 5.99 9 6.98 9 8 C7.02 8.33 5.04 8.66 3 9 C0 3.375 0 3.375 0 0 Z " fill="#FCDCD8" transform="translate(86,47)"/>
<path d="M0 0 C3.375 -0.1875 3.375 -0.1875 7 0 C9.28062828 3.42094242 9.21925007 4.68187222 9.125 8.6875 C9.10695313 9.68136719 9.08890625 10.67523438 9.0703125 11.69921875 C9.03550781 12.83810547 9.03550781 12.83810547 9 14 C8.67 14 8.34 14 8 14 C7.87625 12.9275 7.7525 11.855 7.625 10.75 C7.04469851 6.52853602 7.04469851 6.52853602 5 3 C1.94091587 2.18415432 1.94091587 2.18415432 -1 2 C-0.67 1.34 -0.34 0.68 0 0 Z " fill="#CB5D5C" transform="translate(89,49)"/>
<path d="M0 0 C1.32 0.33 2.64 0.66 4 1 C3.01 1 2.02 1 1 1 C0.95101562 1.63808594 0.90203125 2.27617188 0.8515625 2.93359375 C0.77679688 3.75988281 0.70203125 4.58617187 0.625 5.4375 C0.55539063 6.26121094 0.48578125 7.08492187 0.4140625 7.93359375 C0.27742188 8.61550781 0.14078125 9.29742187 0 10 C-0.99 10.495 -0.99 10.495 -2 11 C-2.66 8.03 -3.32 5.06 -4 2 C-2.68 2 -1.36 2 0 2 C0 1.34 0 0.68 0 0 Z " fill="#FEE5E4" transform="translate(107,48)"/>
<path d="M0 0 C0.28875 0.598125 0.5775 1.19625 0.875 1.8125 C2.04742026 4.19327792 2.04742026 4.19327792 4 7 C3.75 9.625 3.75 9.625 3 12 C2.01 12.495 2.01 12.495 1 13 C-0.07525194 10.34771188 -1.09456151 7.71631546 -2 5 C-1.34 5 -0.68 5 0 5 C0 3.35 0 1.7 0 0 Z " fill="#D14E5A" transform="translate(55,41)"/>
<path d="M0 0 C6.27 0.33 12.54 0.66 19 1 C19 1.33 19 1.66 19 2 C15.37 2 11.74 2 8 2 C7.67 2.66 7.34 3.32 7 4 C6.01 4.66 5.02 5.32 4 6 C4 4.68 4 3.36 4 2 C2.68 1.67 1.36 1.34 0 1 C0 0.67 0 0.34 0 0 Z " fill="#D9F4FC" transform="translate(35,58)"/>
<path d="M0 0 C0.33 0 0.66 0 1 0 C1.11644156 3.08301416 1.18732432 6.16546123 1.25 9.25 C1.30027344 10.55904297 1.30027344 10.55904297 1.3515625 11.89453125 C1.45112665 18.41598332 1.45112665 18.41598332 -1.015625 21.609375 C-1.67046875 22.06828125 -2.3253125 22.5271875 -3 23 C-3.33 22.01 -3.66 21.02 -4 20 C-3.01 19.34 -2.02 18.68 -1 18 C-0.49468134 16.07558585 -0.49468134 16.07558585 -0.48828125 13.8671875 C-0.45283203 13.06152344 -0.41738281 12.25585938 -0.38085938 11.42578125 C-0.35830078 10.58402344 -0.33574219 9.74226563 -0.3125 8.875 C-0.27833984 8.02550781 -0.24417969 7.17601562 -0.20898438 6.30078125 C-0.12640827 4.20098895 -0.06153022 2.10051436 0 0 Z " fill="#C45A5B" transform="translate(84,45)"/>
<path d="M0 0 C0.66 0.66 1.32 1.32 2 2 C1.85884889 6.94028892 -1.0812997 10.2627712 -4 14 C-4.99 13.34 -5.98 12.68 -7 12 C-6.030625 11.13375 -5.06125 10.2675 -4.0625 9.375 C-1.08495962 6.43248951 -0.20307714 4.26461992 0 0 Z " fill="#C86567" transform="translate(58,22)"/>
<path d="M0 0 C6.6 0 13.2 0 20 0 C20 0.33 20 0.66 20 1 C10.595 1.99 10.595 1.99 1 3 C0.67 2.01 0.34 1.02 0 0 Z " fill="#A7D9EF" transform="translate(36,77)"/>
<path d="M0 0 C-0.33 0.99 -0.66 1.98 -1 3 C-5.29 3 -9.58 3 -14 3 C-14 2.34 -14 1.68 -14 1 C-12.22932584 0.83165067 -10.45845388 0.66538091 -8.6875 0.5 C-7.70136719 0.4071875 -6.71523438 0.314375 -5.69921875 0.21875 C-3 0 -3 0 0 0 Z " fill="#F2FDFF" transform="translate(57,59)"/>
<path d="M0 0 C0.66 0 1.32 0 2 0 C2 1.98 2 3.96 2 6 C3.98 6 5.96 6 8 6 C8 6.33 8 6.66 8 7 C5.36 7 2.72 7 0 7 C0 6.34 0 5.68 0 5 C-0.99 5.33 -1.98 5.66 -3 6 C-1.125 1.125 -1.125 1.125 0 0 Z " fill="#FEE7E6" transform="translate(110,57)"/>
<path d="M0 0 C0.66 1.32 1.32 2.64 2 4 C4.31 4 6.62 4 9 4 C9 4.66 9 5.32 9 6 C8.37351562 6.03738281 7.74703125 6.07476562 7.1015625 6.11328125 C5.87566406 6.21189453 5.87566406 6.21189453 4.625 6.3125 C3.81289062 6.37050781 3.00078125 6.42851563 2.1640625 6.48828125 C-0.37921338 6.82990528 -0.37921338 6.82990528 -2 10 C-2.99 9.67 -3.98 9.34 -5 9 C-4.54625 8.62875 -4.0925 8.2575 -3.625 7.875 C-1.52970606 5.45735315 -0.87986715 3.04569398 0 0 Z " fill="#FEDFDF" transform="translate(86,58)"/>
<path d="M0 0 C1.65 0.33 3.3 0.66 5 1 C5.8125 3.1875 5.8125 3.1875 6 6 C3.5625 8.8125 3.5625 8.8125 1 11 C0.34 10.67 -0.32 10.34 -1 10 C-0.505 9.608125 -0.01 9.21625 0.5 8.8125 C2.22684461 7.05777138 2.22684461 7.05777138 2.3125 4.4375 C2.22966747 1.82203581 2.22966747 1.82203581 0 0 Z " fill="#5389A7" transform="translate(68,53)"/>
<path d="M0 0 C-0.33 0.33 -0.66 0.66 -1 1 C-0.34 1.66 0.32 2.32 1 3 C-2.37817425 3.84454356 -4.67465243 4.10844919 -8 3 C-8 2.34 -8 1.68 -8 1 C-3.375 -1.125 -3.375 -1.125 0 0 Z " fill="#679AB5" transform="translate(43,55)"/>
<path d="M0 0 C0.33 0 0.66 0 1 0 C1 3.96 1 7.92 1 12 C0.01 11.67 -0.98 11.34 -2 11 C-1.34 7.37 -0.68 3.74 0 0 Z " fill="#BF3F44" transform="translate(122,51)"/>
<path d="M0 0 C0.66 0.33 1.32 0.66 2 1 C1.67 1.66 1.34 2.32 1 3 C3.64 3 6.28 3 9 3 C6.08291076 4.98362069 4.87619096 4.9876191 1.25 4.625 C0.1775 4.41875 -0.895 4.2125 -2 4 C-2 3.01 -2 2.02 -2 1 C-1.34 0.67 -0.68 0.34 0 0 Z " fill="#4E87AC" transform="translate(33,72)"/>
<path d="M0 0 C-0.59861742 2.35171131 -1.26924352 4.6859378 -2 7 C-2.99 7.495 -2.99 7.495 -4 8 C-4.33 6.02 -4.66 4.04 -5 2 C-2 0 -2 0 0 0 Z " fill="#FCF6F7" transform="translate(53,39)"/>
<path d="M0 0 C1.65 0 3.3 0 5 0 C4.67 1.32 4.34 2.64 4 4 C2.68 4 1.36 4 0 4 C0 2.68 0 1.36 0 0 Z " fill="#FEDEDE" transform="translate(90,57)"/>
<path d="M0 0 C0.33 1.32 0.66 2.64 1 4 C-1.31 5.98 -3.62 7.96 -6 10 C-5.1875 7.5625 -5.1875 7.5625 -4 5 C-3.01 4.67 -2.02 4.34 -1 4 C-0.26676204 1.98491642 -0.26676204 1.98491642 0 0 Z " fill="#FDE5E6" transform="translate(57,24)"/>
<path d="M0 0 C1.32 0 2.64 0 4 0 C4 1.32 4 2.64 4 4 C2.35 3.67 0.7 3.34 -1 3 C-0.67 2.01 -0.34 1.02 0 0 Z " fill="#FEDDD6" transform="translate(116,57)"/>
<path d="M0 0 C0.78375 0.04125 1.5675 0.0825 2.375 0.125 C1.385 0.455 0.395 0.785 -0.625 1.125 C-0.295 3.105 0.035 5.085 0.375 7.125 C0.045 6.135 -0.285 5.145 -0.625 4.125 C-2.62516466 2.91617904 -2.62516466 2.91617904 -4.625 2.125 C-2.625 0.125 -2.625 0.125 0 0 Z " fill="#F3BEC9" transform="translate(100.625,48.875)"/>
<path d="M0 0 C0 0.66 0 1.32 0 2 C-1.96147874 3.38938077 -3.96166576 4.7260411 -6 6 C-5.625 3.5625 -5.625 3.5625 -5 1 C-3 0 -3 0 0 0 Z " fill="#C84748" transform="translate(53,35)"/>
<path d="M0 0 C0.66 0 1.32 0 2 0 C2 0.99 2 1.98 2 3 C2.66 3 3.32 3 4 3 C4 3.99 4 4.98 4 6 C2.02 5.34 0.04 4.68 -2 4 C-1.34 3.67 -0.68 3.34 0 3 C0 2.01 0 1.02 0 0 Z " fill="#D3E5E9" transform="translate(70,72)"/>
<path d="M0 0 C0.99 0.33 1.98 0.66 3 1 C2.505 1.556875 2.01 2.11375 1.5 2.6875 C-0.24754367 5.38162983 -0.26218749 6.85375007 0 10 C-0.66 9.67 -1.32 9.34 -2 9 C-1.125 1.125 -1.125 1.125 0 0 Z " fill="#FFEBE4" transform="translate(45,36)"/>
</svg>
