<?xml version="1.0" encoding="UTF-8"?>
<svg version="1.1" xmlns="http://www.w3.org/2000/svg" width="160" height="110">
<path d="M0 0 C38.61 0 77.22 0 117 0 C117 18.48 117 36.96 117 56 C78.39 56 39.78 56 0 56 C0 37.52 0 19.04 0 0 Z " fill="#2296F1" transform="translate(22,28)"/>
<path d="M0 0 C1.65 0 3.3 0 5 0 C5 1.65 5 3.3 5 5 C5.66 5 6.32 5 7 5 C7 4.34 7 3.68 7 3 C10.3 3 13.6 3 17 3 C17.495 4.98 17.495 4.98 18 7 C16.35 7 14.7 7 13 7 C13 9.31 13 11.62 13 14 C9.41278829 15.56079778 6.041614 16.47490848 2.1875 17.125 C1.21167969 17.29257813 0.23585938 17.46015625 -0.76953125 17.6328125 C-1.50558594 17.75398438 -2.24164063 17.87515625 -3 18 C-3 17.34 -3 16.68 -3 16 C-3.8353125 16.4640625 -3.8353125 16.4640625 -4.6875 16.9375 C-7.15443308 18.07095574 -9.31173299 18.64628066 -12 19 C-12.66 18.67 -13.32 18.34 -14 18 C-14 17.34 -14 16.68 -14 16 C-12.35 16.33 -10.7 16.66 -9 17 C-9 16.34 -9 15.68 -9 15 C-9.804375 14.855625 -10.60875 14.71125 -11.4375 14.5625 C-14 14 -14 14 -15 13 C-15.45232816 7.79822616 -15.45232816 7.79822616 -13.9375 5.125 C-10.99772876 3.41803605 -8.32129197 3.81200234 -5 4 C-5 4.66 -5 5.32 -5 6 C-4.34 6 -3.68 6 -3 6 C-3.33 4.68 -3.66 3.36 -4 2 C-3.01 2 -2.02 2 -1 2 C-0.67 1.34 -0.34 0.68 0 0 Z " fill="#3395E3" transform="translate(89,48)"/>
<path d="M0 0 C6 0 6 0 8.375 1.625 C10.48706506 4.71186432 10.61195145 6.3282913 10 10 C8.375 12.375 8.375 12.375 6 14 C4.02 14 2.04 14 0 14 C0 9.38 0 4.76 0 0 Z " fill="#B3E6FC" transform="translate(39,49)"/>
<path d="M0 0 C1.670625 0.061875 1.670625 0.061875 3.375 0.125 C3.45607583 2.06181161 3.51422475 3.9995934 3.5625 5.9375 C3.59730469 7.01644531 3.63210937 8.09539063 3.66796875 9.20703125 C3.375 12.125 3.375 12.125 2.0625 14.03125 C0.375 15.125 0.375 15.125 -2.8125 14.8125 C-3.740625 14.585625 -4.66875 14.35875 -5.625 14.125 C-5.625 13.465 -5.625 12.805 -5.625 12.125 C-3.975 12.125 -2.325 12.125 -0.625 12.125 C-1.45 11.774375 -2.275 11.42375 -3.125 11.0625 C-3.95 10.423125 -4.775 9.78375 -5.625 9.125 C-6.0625 5.5625 -6.0625 5.5625 -5.625 2.125 C-3.625 0.125 -3.625 0.125 0 0 Z " fill="#BAEBFC" transform="translate(68.625,51.875)"/>
<path d="M0 0 C0.05386629 2.12472576 0.09273071 4.24983652 0.125 6.375 C0.14820312 7.55835938 0.17140625 8.74171875 0.1953125 9.9609375 C0 13 0 13 -2 15 C-5.125 14.625 -5.125 14.625 -8 14 C-8 13.34 -8 12.68 -8 12 C-6.35 12.33 -4.7 12.66 -3 13 C-3 12.34 -3 11.68 -3 11 C-3.804375 10.855625 -4.60875 10.71125 -5.4375 10.5625 C-8 10 -8 10 -9 9 C-9.4556962 3.75949367 -9.4556962 3.75949367 -7.875 1.125 C-5.24611372 -0.45233177 -3.0121029 -0.07346592 0 0 Z " fill="#AFE5FA" transform="translate(83,52)"/>
<path d="M0 0 C2.375 -0.1875 2.375 -0.1875 5 0 C7.67927341 4.01891012 7.15601248 6.24161923 7 11 C3.625 11.125 3.625 11.125 0 11 C-0.66 10.34 -1.32 9.68 -2 9 C-1.625 6.875 -1.625 6.875 -1 5 C0.65 5 2.3 5 4 5 C4 4.01 4 3.02 4 2 C2.35 2.33 0.7 2.66 -1 3 C-0.67 2.01 -0.34 1.02 0 0 Z " fill="#99D2EF" transform="translate(53,52)"/>
<path d="M0 0 C1.65 0 3.3 0 5 0 C4.01 0.495 4.01 0.495 3 1 C3 3.64 3 6.28 3 9 C5.475 9.99 5.475 9.99 8 11 C8 11.66 8 12.32 8 13 C6.35 12.67 4.7 12.34 3 12 C3 12.66 3 13.32 3 14 C7.7897321 14.23428313 7.7897321 14.23428313 12 12 C10.5505618 15.74438202 10.5505618 15.74438202 8.25 16.8125 C5.36824559 17.0526462 2.82252185 16.57733402 0 16 C0 15.34 0 14.68 0 14 C-0.66 13.67 -1.32 13.34 -2 13 C-1.67 12.67 -1.34 12.34 -1 12 C-0.76572222 9.98405418 -0.58663876 7.961526 -0.4375 5.9375 C-0.35371094 4.83277344 -0.26992187 3.72804687 -0.18359375 2.58984375 C-0.12300781 1.73519531 -0.06242187 0.88054688 0 0 Z " fill="#3896E2" transform="translate(72,52)"/>
<path d="M0 0 C0.33 1.65 0.66 3.3 1 5 C-1.31 5 -3.62 5 -6 5 C-5.67 5.66 -5.34 6.32 -5 7 C-3.02 7 -1.04 7 1 7 C1 7.66 1 8.32 1 9 C-1.31 9.33 -3.62 9.66 -6 10 C-8 7 -8 7 -7.75 3.375 C-7.5025 2.26125 -7.255 1.1475 -7 0 C-4.3333581 -1.33332095 -2.83319697 -0.67102033 0 0 Z " fill="#C9F5FF" transform="translate(94,53)"/>
<path d="M0 0 C0.66 0 1.32 0 2 0 C2.33 1.32 2.66 2.64 3 4 C5.31 4 7.62 4 10 4 C10 4.99 10 5.98 10 7 C8.35 7.33 6.7 7.66 5 8 C5.33 9.65 5.66 11.3 6 13 C3.36 13.33 0.72 13.66 -2 14 C-2 13.34 -2 12.68 -2 12 C-1.34 12 -0.68 12 0 12 C0.19573608 10.56359829 0.38127816 9.12580496 0.5625 7.6875 C0.71912109 6.48673828 0.71912109 6.48673828 0.87890625 5.26171875 C1.14755178 2.83182884 1.14755178 2.83182884 0 0 Z " fill="#4E9DD9" transform="translate(47,50)"/>
<path d="M0 0 C0.66 0 1.32 0 2 0 C2 3.96 2 7.92 2 12 C6.90295149 9.30031713 6.90295149 9.30031713 9 5 C9.36 10.4 9.36 10.4 7.875 12.875 C6 14 6 14 0 14 C0 9.38 0 4.76 0 0 Z " fill="#B9EDFE" transform="translate(39,49)"/>
<path d="M0 0 C0.66 0 1.32 0 2 0 C2 1.32 2 2.64 2 4 C0.02 4.66 -1.96 5.32 -4 6 C-4.33 7.98 -4.66 9.96 -5 12 C-5.99 11.67 -6.98 11.34 -8 11 C-9.1875 7.4375 -9.1875 7.4375 -10 4 C-9.34 4 -8.68 4 -8 4 C-8 3.34 -8 2.68 -8 2 C-5.36 2 -2.72 2 0 2 C0 1.34 0 0.68 0 0 Z " fill="#3798E7" transform="translate(68,48)"/>
<path d="M0 0 C2.64 0 5.28 0 8 0 C8 0.99 8 1.98 8 3 C6.35 3 4.7 3 3 3 C3 5.31 3 7.62 3 10 C2.01 10.33 1.02 10.66 0 11 C0 7.37 0 3.74 0 0 Z " fill="#ADE5FD" transform="translate(99,52)"/>
<path d="M0 0 C1.65 0 3.3 0 5 0 C5 1.65 5 3.3 5 5 C2.69 5 0.38 5 -2 5 C-2.99 8.465 -2.99 8.465 -4 12 C-4.33 12 -4.66 12 -5 12 C-5 10.02 -5 8.04 -5 6 C-4.34 6 -3.68 6 -3 6 C-3.33 4.68 -3.66 3.36 -4 2 C-3.01 2 -2.02 2 -1 2 C-0.67 1.34 -0.34 0.68 0 0 Z " fill="#2F95E4" transform="translate(89,48)"/>
<path d="M0 0 C1.32 0.33 2.64 0.66 4 1 C4 3.31 4 5.62 4 8 C2.02 8.99 2.02 8.99 0 10 C0 6.7 0 3.4 0 0 Z " fill="#4798D8" transform="translate(42,51)"/>
<path d="M0 0 C0.66 0 1.32 0 2 0 C2.05391993 1.79133978 2.09275571 3.58313899 2.125 5.375 C2.14820312 6.37273438 2.17140625 7.37046875 2.1953125 8.3984375 C2 11 2 11 0 13 C-3.125 12.625 -3.125 12.625 -6 12 C-6 11.34 -6 10.68 -6 10 C-4.35 10 -2.7 10 -1 10 C-0.67 6.7 -0.34 3.4 0 0 Z " fill="#C1F4FE" transform="translate(81,54)"/>
<path d="M0 0 C1.66611905 -0.042721 3.33382885 -0.04063832 5 0 C6 1 6 1 6.09765625 3.06640625 C6.08605469 3.89011719 6.07445312 4.71382812 6.0625 5.5625 C6.05347656 6.38878906 6.04445313 7.21507812 6.03515625 8.06640625 C6.01775391 9.02353516 6.01775391 9.02353516 6 10 C5.34 10 4.68 10 4 10 C4 8.68 4 7.36 4 6 C2.68 5.67 1.36 5.34 0 5 C1.32 5 2.64 5 4 5 C4 4.01 4 3.02 4 2 C2.35 2.33 0.7 2.66 -1 3 C-0.67 2.01 -0.34 1.02 0 0 Z " fill="#CCF1FD" transform="translate(53,52)"/>
<path d="M0 0 C-0.33 1.32 -0.66 2.64 -1 4 C-2.65 4 -4.3 4 -6 4 C-6.33 2.68 -6.66 1.36 -7 0 C-4.3333581 -1.33332095 -2.83319697 -0.67102033 0 0 Z " fill="#98D0EE" transform="translate(94,53)"/>
<path d="M0 0 C0.99 0.33 1.98 0.66 3 1 C3 2.98 3 4.96 3 7 C1.68 6.67 0.36 6.34 -1 6 C-1.042721 4.33388095 -1.04063832 2.66617115 -1 1 C-0.67 0.67 -0.34 0.34 0 0 Z " fill="#4D97D6" transform="translate(66,54)"/>
<path d="M0 0 C2.672336 3.56311466 3.77263971 5.84585747 5 10 C3.35 10.66 1.7 11.32 0 12 C0 8.04 0 4.08 0 0 Z " fill="#55A7E8" transform="translate(83,52)"/>
<path d="M0 0 C1.32 0 2.64 0 4 0 C4 1.65 4 3.3 4 5 C2.68 5.33 1.36 5.66 0 6 C0 4.02 0 2.04 0 0 Z " fill="#409AD4" transform="translate(77,55)"/>
<path d="M0 0 C1.65 0 3.3 0 5 0 C5.33 0.99 5.66 1.98 6 3 C5.34 3.66 4.68 4.32 4 5 C0.875 4.625 0.875 4.625 -2 4 C-2 3.34 -2 2.68 -2 2 C-0.35 2 1.3 2 3 2 C2.01 1.34 1.02 0.68 0 0 Z " fill="#ABE6FC" transform="translate(65,62)"/>
<path d="M0 0 C2.64 0 5.28 0 8 0 C8 1.32 8 2.64 8 4 C7.34 4 6.68 4 6 4 C6 3.34 6 2.68 6 2 C4.02 2 2.04 2 0 2 C0 1.34 0 0.68 0 0 Z " fill="#65C3FF" transform="translate(112,55)"/>
<path d="M0 0 C1.65 0 3.3 0 5 0 C5 0.66 5 1.32 5 2 C4.34 2 3.68 2 3 2 C3 2.66 3 3.32 3 4 C2.01 4.33 1.02 4.66 0 5 C-0.66 4.34 -1.32 3.68 -2 3 C-1.34 3 -0.68 3 0 3 C0 2.01 0 1.02 0 0 Z " fill="#2E92E4" transform="translate(80,48)"/>
<path d="M0 0 C0.99 0 1.98 0 3 0 C3 1.98 3 3.96 3 6 C2.01 6 1.02 6 0 6 C0 4.02 0 2.04 0 0 Z " fill="#2A93E7" transform="translate(43,53)"/>
<path d="M0 0 C1.68496298 0.96885372 3.35178756 1.96986723 5 3 C5 3.33 5 3.66 5 4 C2.36 4.33 -0.28 4.66 -3 5 C-3 4.34 -3 3.68 -3 3 C-2.34 3 -1.68 3 -1 3 C-0.67 2.01 -0.34 1.02 0 0 Z " fill="#3FA1EC" transform="translate(48,59)"/>
<path d="M0 0 C2.31 0 4.62 0 7 0 C6.01 1.485 6.01 1.485 5 3 C3.35 2.67 1.7 2.34 0 2 C0 1.34 0 0.68 0 0 Z " fill="#6AABE2" transform="translate(88,58)"/>
</svg>
