<?xml version="1.0" encoding="UTF-8"?>
<svg version="1.1" xmlns="http://www.w3.org/2000/svg" width="160" height="110">
<path d="M0 0 C1.3921875 0.02416992 1.3921875 0.02416992 2.8125 0.04882812 C4.23949219 0.11166992 4.23949219 0.11166992 5.6953125 0.17578125 C6.66984375 0.19833984 7.644375 0.22089844 8.6484375 0.24414062 C11.04075138 0.30277577 13.42943887 0.38916793 15.8203125 0.48828125 C11.322419 5.88018522 6.55904708 10.88219809 1.578125 15.828125 C0.80975311 16.59508194 0.04138123 17.36203888 -0.75027466 18.15223694 C-3.18272259 20.57912865 -5.61864072 23.00250252 -8.0546875 25.42578125 C-9.71377302 27.07984611 -11.37262952 28.7341407 -13.03125 30.38867188 C-17.07808459 34.42453558 -21.12776703 38.45752402 -25.1796875 42.48828125 C-28.25425663 41.01315967 -30.52720331 39.49004496 -32.9921875 37.11328125 C-33.92998047 36.23542969 -33.92998047 36.23542969 -34.88671875 35.33984375 C-36.1796875 33.48828125 -36.1796875 33.48828125 -36.08154297 31.71411133 C-34.77809505 28.49712848 -32.4849249 26.40521176 -30.04296875 24.0234375 C-29.52590866 23.50825058 -29.00884857 22.99306366 -28.47612 22.46226501 C-27.38088294 21.37374322 -26.28205747 20.28882177 -25.17993164 19.20727539 C-23.50872123 17.56700884 -21.8482164 15.9165154 -20.18945312 14.26367188 C-19.12040704 13.20380602 -18.05076396 12.14454193 -16.98046875 11.0859375 C-16.48960281 10.59932144 -15.99873688 10.11270538 -15.49299622 9.61134338 C-14.0723371 8.21930959 -12.62614729 6.85348617 -11.1796875 5.48828125 C-10.68019592 5.01222946 -10.18070435 4.53617767 -9.66607666 4.04570007 C-6.43130796 1.12578055 -4.37080595 -0.13490142 0 0 Z " fill="#46CEF8" transform="translate(86.1796875,21.51171875)"/>
<path d="M0 0 C0.87454834 0.00523682 1.74909668 0.01047363 2.65014648 0.01586914 C3.59438477 0.0190918 4.53862305 0.02231445 5.51147461 0.02563477 C6.50469727 0.03401367 7.49791992 0.04239258 8.52124023 0.05102539 C9.51833008 0.05553711 10.51541992 0.06004883 11.54272461 0.06469727 C14.01478872 0.07652532 16.48673541 0.0930069 18.95874023 0.11352539 C15.48390616 6.02751875 15.48390616 6.02751875 12.95874023 8.11352539 C12.29874023 8.11352539 11.63874023 8.11352539 10.95874023 8.11352539 C10.71124023 8.73227539 10.46374023 9.35102539 10.20874023 9.98852539 C8.95874023 12.11352539 8.95874023 12.11352539 6.89624023 13.05102539 C4.71948535 13.96425874 4.71948535 13.96425874 4.13867188 16.4465332 C3.68875085 19.12426462 3.68875085 19.12426462 5.22216797 21.04223633 C5.85582275 21.63810547 6.48947754 22.23397461 7.14233398 22.84790039 C7.82231445 23.5040332 8.50229492 24.16016602 9.20288086 24.83618164 C9.92668945 25.50520508 10.65049805 26.17422852 11.39624023 26.86352539 C12.81324624 28.21075939 14.22870214 29.55962635 15.64233398 30.91040039 C16.2771167 31.50175781 16.91189941 32.09311523 17.56591797 32.70239258 C18.95874023 34.11352539 18.95874023 34.11352539 18.95874023 35.11352539 C2.29208918 37.64172217 2.29208918 37.64172217 -4.62231445 33.60766602 C-9.57388794 29.6728798 -15.04256748 24.75559429 -18.04125977 19.11352539 C-17.75708051 15.92219966 -17.24822095 15.2869253 -14.72875977 13.17602539 C-13.39844727 12.15508789 -13.39844727 12.15508789 -12.04125977 11.11352539 C-10.68739041 9.46349711 -9.35447834 7.79608669 -8.04125977 6.11352539 C-6.39385901 4.42781299 -4.73059899 2.75720679 -3.04125977 1.11352539 C-2.04125977 0.11352539 -2.04125977 0.11352539 0 0 Z " fill="#43CDF9" transform="translate(83.041259765625,50.886474609375)"/>
<path d="M0 0 C3.02671229 1.35473124 5.12136806 2.8739592 7.453125 5.22265625 C8.071875 5.84333984 8.690625 6.46402344 9.328125 7.10351562 C9.96234375 7.74998047 10.5965625 8.39644531 11.25 9.0625 C11.8996875 9.71283203 12.549375 10.36316406 13.21875 11.03320312 C18 15.85965402 18 15.85965402 18 17 C14.62566415 17.1753252 11.25250732 17.28118035 7.875 17.375 C6.92367187 17.42527344 5.97234375 17.47554687 4.9921875 17.52734375 C-2.00269765 17.67307052 -2.00269765 17.67307052 -5.01855469 15.63769531 C-6.6796875 13.9765625 -6.6796875 13.9765625 -9 11 C-7.59155282 7.78475695 -5.89655214 5.67816132 -3.375 3.25 C-2.74335937 2.63640625 -2.11171875 2.0228125 -1.4609375 1.390625 C-0.73777344 0.70226562 -0.73777344 0.70226562 0 0 Z " fill="#045295" transform="translate(84,69)"/>
<path d="M0 0 C0.33 0.99 0.66 1.98 1 3 C1.66 3 2.32 3 3 3 C3 3.66 3 4.32 3 5 C3.99 5.33 4.98 5.66 6 6 C2.7 9.3 -0.6 12.6 -4 16 C-11.57142857 9.71428571 -11.57142857 9.71428571 -14 6 C-12.625 4.5 -12.625 4.5 -11 3 C-10.34 3 -9.68 3 -9 3 C-9 2.34 -9 1.68 -9 1 C-3.47033898 -1.61122881 -3.47033898 -1.61122881 0 0 Z " fill="#3BBDEB" transform="translate(79,63)"/>
<path d="M0 0 C1.32 0 2.64 0 4 0 C4 0.99 4 1.98 4 3 C4.66 3.33 5.32 3.66 6 4 C5.01 5.485 5.01 5.485 4 7 C2 5.1875 2 5.1875 0 3 C0 2.01 0 1.02 0 0 Z " fill="#4DCDEF" transform="translate(50,52)"/>
<path d="M0 0 C2.9375 0.8125 2.9375 0.8125 6 2 C6.33 2.99 6.66 3.98 7 5 C7.66 5.66 8.32 6.32 9 7 C6 7 6 7 4.39453125 5.46875 C3.87246094 4.8190625 3.35039063 4.169375 2.8125 3.5 C2.28269531 2.8503125 1.75289063 2.200625 1.20703125 1.53125 C0.80871094 1.0259375 0.41039063 0.520625 0 0 Z " fill="#4AB5EB" transform="translate(67,71)"/>
</svg>
