<?xml version="1.0" encoding="UTF-8"?>
<svg version="1.1" xmlns="http://www.w3.org/2000/svg" width="160" height="110">
<path d="M0 0 C3.44186104 0.0383037 4.63382591 0.2432899 7.6875 2.0625 C11.86338744 6.61801357 12.1981631 10.42308526 12.0546875 16.45703125 C11.16951224 24.7527122 5.80563089 31.6917868 1.45703125 38.58984375 C-0.7723638 42.14565233 -1.43962153 44.28256843 -1.8125 48.4375 C-1.89628906 49.34757812 -1.98007813 50.25765625 -2.06640625 51.1953125 C-2.15728516 52.24332031 -2.15728516 52.24332031 -2.25 53.3125 C-6.43350191 53.92259403 -9.86752467 54.30638767 -13.41796875 51.75390625 C-14.75219345 50.47129566 -16.07542141 49.17713539 -17.38671875 47.87109375 C-19.2991775 45.98553432 -19.2991775 45.98553432 -22.75 45.875 C-23.575 46.019375 -24.4 46.16375 -25.25 46.3125 C-25.559375 47.281875 -25.86875 48.25125 -26.1875 49.25 C-27.25 52.3125 -27.25 52.3125 -28.25 53.3125 C-30.58297433 53.35342937 -32.91705225 53.35491723 -35.25 53.3125 C-35.518125 52.508125 -35.78625 51.70375 -36.0625 50.875 C-36.454375 50.029375 -36.84625 49.18375 -37.25 48.3125 C-38.735 47.8175 -38.735 47.8175 -40.25 47.3125 C-42.4977975 49.36483685 -43.2522242 50.31917261 -44.25 53.3125 C-47.22 53.3125 -50.19 53.3125 -53.25 53.3125 C-54.71100793 42.9274977 -54.35958557 34.11749097 -48.25 25.3125 C-45.84701646 23.12796951 -44.35324142 22.34691381 -41.25 21.3125 C-41.58 19.6625 -41.91 18.0125 -42.25 16.3125 C-37.25133845 11.91367784 -31.2074561 10.84384087 -24.71875 10.98828125 C-19.0525562 11.73241746 -13.49349636 13.84226436 -8.72265625 16.96875 C-5.86868228 18.5197248 -4.59476632 18.51835716 -1.4375 18 C-0.64730469 17.88011719 0.14289063 17.76023437 0.95703125 17.63671875 C1.54871094 17.52972656 2.14039063 17.42273438 2.75 17.3125 C2.94412181 15.83418779 3.13012131 14.35480684 3.3125 12.875 C3.41691406 12.05128906 3.52132812 11.22757813 3.62890625 10.37890625 C3.66886719 9.69699219 3.70882812 9.01507813 3.75 8.3125 C3.255 7.8175 3.255 7.8175 2.75 7.3125 C1.0484375 7.3434375 1.0484375 7.3434375 -0.6875 7.375 C-4.25 7.3125 -4.25 7.3125 -6.25 5.3125 C-5.55075575 0.69748798 -4.51673619 0.14208276 0 0 Z M-13.25 25.3125 C-12.26 26.7975 -12.26 26.7975 -11.25 28.3125 C-11.25 27.3225 -11.25 26.3325 -11.25 25.3125 C-11.91 25.3125 -12.57 25.3125 -13.25 25.3125 Z " fill="#032E39" transform="translate(101.25,18.6875)"/>
<path d="M0 0 C0.66 0.99 1.32 1.98 2 3 C5.5 3.25 5.5 3.25 9 3 C12.03909018 3 14.99483458 3.57069065 18 4 C20.22568901 4 21.90006779 3.74513723 24 3 C24.33 2.01 24.66 1.02 25 0 C27.64 0 30.28 0 33 0 C33 1.65 33 3.3 33 5 C33.9075 4.62875 34.815 4.2575 35.75 3.875 C39 3 39 3 41.375 3.875 C41.91125 4.24625 42.4475 4.6175 43 5 C43.1953125 11.0546875 43.1953125 11.0546875 43 13 C41 15 41 15 38 15.125 C37.01 15.08375 36.02 15.0425 35 15 C33.4166233 15 31.83324733 15.01491587 30.25 15.03515625 C29.1775 15.04417969 28.105 15.05320312 27 15.0625 C25.9275 15.07410156 24.855 15.08570312 23.75 15.09765625 C21 15 21 15 19 14 C19 14.33 19 14.66 19 15 C17.54207116 15.05399736 16.08357288 15.09279177 14.625 15.125 C13.40683594 15.15980469 13.40683594 15.15980469 12.1640625 15.1953125 C10 15 10 15 8 13 C8.375 9.875 8.375 9.875 9 7 C8.01 7.495 8.01 7.495 7 8 C6.59270772 10.32156597 6.25561323 12.6568787 6 15 C4.68 15 3.36 15 2 15 C1.67 14.34 1.34 13.68 1 13 C0.01 13.66 -0.98 14.32 -2 15 C-4.9375 15.4375 -4.9375 15.4375 -8 15 C-10.4375 13 -10.4375 13 -12 10 C-12.31315419 6.07411575 -11.82963086 3.05299302 -9.375 -0.0625 C-5.92274662 -1.4252316 -3.54468114 -0.91899141 0 0 Z M-6 3 C-6.66 3.66 -7.32 4.32 -8 5 C-7.67958603 7.60280568 -7.67958603 7.60280568 -7 10 C-5.02 10.495 -5.02 10.495 -3 11 C-2.67 10.34 -2.34 9.68 -2 9 C-2.99 9 -3.98 9 -5 9 C-5 8.01 -5 7.02 -5 6 C-2.69 6 -0.38 6 2 6 C-0.61673759 4.59817629 -3.0371669 3.39504441 -6 3 Z M22 7 C22.33 8.65 22.66 10.3 23 12 C23.66 11.67 24.32 11.34 25 11 C25 9.68 25 8.36 25 7 C24.01 7 23.02 7 22 7 Z M13 10 C12.67 10.66 12.34 11.32 12 12 C12.99 11.67 13.98 11.34 15 11 C14.34 10.67 13.68 10.34 13 10 Z M37 10 C37.66 10.66 38.32 11.32 39 12 C39.33 11.34 39.66 10.68 40 10 C39.01 10 38.02 10 37 10 Z " fill="#3AD32D" transform="translate(58,74)"/>
<path d="M0 0 C0.66 1.65 1.32 3.3 2 5 C-0.64 4.67 -3.28 4.34 -6 4 C-8.09749995 6.35968744 -8.96905704 7.54616994 -9.1875 10.75 C-9.125625 11.4925 -9.06375 12.235 -9 13 C-10.5625 12 -10.5625 12 -12 10 C-12.24155631 6.13509903 -11.79022203 3.00297411 -9.375 -0.0625 C-6.0138415 -1.38927309 -3.474204 -0.73492777 0 0 Z " fill="#3FD034" transform="translate(58,74)"/>
<path d="M0 0 C2.16874252 0.50603992 3.99967627 0.99983813 6 2 C4.375 7.75 4.375 7.75 1 10 C-2.1875 10.125 -2.1875 10.125 -5 10 C-3.66511872 6.40608886 -2.03977277 3.24509304 0 0 Z " fill="#3ECF37" transform="translate(99,26)"/>
<path d="M0 0 C-0.33 3.3 -0.66 6.6 -1 10 C-1.99 9.34 -2.98 8.68 -4 8 C-3.67 6.02 -3.34 4.04 -3 2 C-3.99 2.495 -3.99 2.495 -5 3 C-5.40729228 5.32156597 -5.74438677 7.6568787 -6 10 C-6.33 10 -6.66 10 -7 10 C-7.22786458 8.01432292 -7.45572917 6.02864583 -7.68359375 4.04296875 C-7.97170735 1.80603607 -7.97170735 1.80603607 -9 -1 C-5.38055101 -2.34053666 -3.42632833 -1.61798838 0 0 Z " fill="#43D038" transform="translate(70,79)"/>
<path d="M0 0 C3 3 3 3 3.29296875 5.04296875 C3.1953125 7.02864583 3.09765625 9.01432292 3 11 C2.01 11 1.02 11 0 11 C0 7.37 0 3.74 0 0 Z " fill="#25BA1F" transform="translate(60,78)"/>
</svg>
