<?xml version="1.0" encoding="UTF-8"?>
<svg version="1.1" xmlns="http://www.w3.org/2000/svg" width="160" height="110">
<path d="M0 0 C49.5 0 99 0 150 0 C150 19.14 150 38.28 150 58 C100.5 58 51 58 0 58 C0 38.86 0 19.72 0 0 Z " fill="#FCFDFC" transform="translate(5,26)"/>
<path d="M0 0 C4.85381264 0.33687935 8.78282908 2.47240717 12.7578125 5.19140625 C16.16583464 10.30343946 16.93063389 16.18656074 15.7578125 22.19140625 C13.18221621 27.12588198 9.30843431 31.79651911 4.0078125 33.87890625 C-3.14997154 34.87304292 -8.28246053 34.43564678 -14.2421875 30.19140625 C-17.71564765 27.24779595 -19.04733616 24.57433346 -19.68359375 20.05859375 C-19.91472126 13.51246621 -19.74130451 9.07616186 -15.2421875 4.19140625 C-14.8296875 3.57265625 -14.4171875 2.95390625 -13.9921875 2.31640625 C-10.97298134 0.375488 -7.75273048 1.0187566 -4.2421875 1.19140625 C-5.2321875 3.83140625 -6.2221875 6.47140625 -7.2421875 9.19140625 C-7.9021875 9.19140625 -8.5621875 9.19140625 -9.2421875 9.19140625 C-9.1803125 10.07828125 -9.1184375 10.96515625 -9.0546875 11.87890625 C-9.26170732 15.53625642 -10.1582615 17.23917776 -12.2421875 20.19140625 C-8.9421875 20.19140625 -5.6421875 20.19140625 -2.2421875 20.19140625 C-1.5821875 22.83140625 -0.9221875 25.47140625 -0.2421875 28.19140625 C2.3978125 23.24140625 5.0378125 18.29140625 7.7578125 13.19140625 C4.4578125 13.19140625 1.1578125 13.19140625 -2.2421875 13.19140625 C-2.43616226 11.21286367 -2.62220071 9.23354145 -2.8046875 7.25390625 C-2.90910156 6.15175781 -3.01351563 5.04960938 -3.12109375 3.9140625 C-3.16105469 3.01558594 -3.20101563 2.11710937 -3.2421875 1.19140625 C-2.2421875 0.19140625 -2.2421875 0.19140625 0 0 Z " fill="#0BBB31" transform="translate(34.2421875,38.80859375)"/>
<path d="M0 0 C1.32 0 2.64 0 4 0 C4.33 2.64 4.66 5.28 5 8 C5.66 7.01 6.32 6.02 7 5 C8.32 5 9.64 5 11 5 C10.67 5.5775 10.34 6.155 10 6.75 C8.72924102 9.19883862 8.72924102 9.19883862 9 13 C9.93283296 15.20067421 9.93283296 15.20067421 11 17 C8.13275314 16.42655063 7.1385485 16.1385485 5 14 C4.67 15.32 4.34 16.64 4 18 C3.360625 17.814375 2.72125 17.62875 2.0625 17.4375 C-0.86273497 17.01960929 -2.7502332 17.21853315 -5.625 17.6875 C-9.71792035 18.19911504 -9.71792035 18.19911504 -12.125 16.5 C-13.34661906 13.00965984 -12.85641544 10.55741797 -12 7 C-10 5 -10 5 -7.8359375 4.8046875 C-6.61777344 4.83949219 -6.61777344 4.83949219 -5.375 4.875 C-4.14910156 4.90207031 -4.14910156 4.90207031 -2.8984375 4.9296875 C-1.95871094 4.96449219 -1.95871094 4.96449219 -1 5 C-0.67 3.35 -0.34 1.7 0 0 Z " fill="#F1F0F1" transform="translate(133,44)"/>
<path d="M0 0 C5.65513223 0.06805213 8.77492452 1.07494511 13.3125 4.375 C12.3225 4.87 12.3225 4.87 11.3125 5.375 C10.384375 4.900625 9.45625 4.42625 8.5 3.9375 C5.15587739 2.00820232 5.15587739 2.00820232 0.3125 2.375 C0.3125 6.335 0.3125 10.295 0.3125 14.375 C3.6125 14.375 6.9125 14.375 10.3125 14.375 C8.88500019 18.16549707 7.15013458 21.64622456 5.1875 25.1875 C4.64867187 26.16332031 4.10984375 27.13914062 3.5546875 28.14453125 C3.14476562 28.88058594 2.73484375 29.61664063 2.3125 30.375 C0.26085763 26.91285351 0.3125 25.78110765 0.3125 21.375 C-2.9875 21.375 -6.2875 21.375 -9.6875 21.375 C-9.378125 20.67375 -9.06875 19.9725 -8.75 19.25 C-7.65447322 16.28563343 -7.12327008 13.49801892 -6.6875 10.375 C-6.0275 10.375 -5.3675 10.375 -4.6875 10.375 C-4.72875 9.59125 -4.77 8.8075 -4.8125 8 C-4.6875 5.375 -4.6875 5.375 -2.6875 3.375 C-4.3375 3.045 -5.9875 2.715 -7.6875 2.375 C-5.04233913 -0.27016087 -3.68693485 0.04626016 0 0 Z " fill="#33BD51" transform="translate(31.6875,37.625)"/>
<path d="M0 0 C1.60875 -0.04125 3.2175 -0.0825 4.875 -0.125 C5.77992187 -0.14820313 6.68484375 -0.17140625 7.6171875 -0.1953125 C10 0 10 0 12 2 C12.27920581 4.931661 12.47713387 7.15465293 12 10 C10.25 12 10.25 12 8 13 C6.68 13 5.36 13 4 13 C4 14.98 4 16.96 4 19 C2.68 19 1.36 19 0 19 C0 12.73 0 6.46 0 0 Z " fill="#161616" transform="translate(93,49)"/>
<path d="M0 0 C1.32 0 2.64 0 4 0 C4.33 2.64 4.66 5.28 5 8 C5.66 7.01 6.32 6.02 7 5 C8.32 5 9.64 5 11 5 C10.67 5.5775 10.34 6.155 10 6.75 C8.72924102 9.19883862 8.72924102 9.19883862 9 13 C9.93283296 15.20067421 9.93283296 15.20067421 11 17 C8.13275314 16.42655063 7.1385485 16.1385485 5 14 C4.67 15.32 4.34 16.64 4 18 C2.68 18 1.36 18 0 18 C0 12.06 0 6.12 0 0 Z " fill="#2F2F2F" transform="translate(133,44)"/>
<path d="M0 0 C6.0546875 -0.1953125 6.0546875 -0.1953125 8 0 C10 2 10 2 10.1953125 4.6015625 C10.17210938 5.59929688 10.14890625 6.59703125 10.125 7.625 C10.10695313 8.62789062 10.08890625 9.63078125 10.0703125 10.6640625 C10.03550781 11.82035156 10.03550781 11.82035156 10 13 C8.54207116 13.05399736 7.08357288 13.09279177 5.625 13.125 C4.81289062 13.14820313 4.00078125 13.17140625 3.1640625 13.1953125 C1 13 1 13 -1 11 C-0.44444444 6.44444444 -0.44444444 6.44444444 1 5 C2.66617115 4.95936168 4.33388095 4.957279 6 5 C6 4.01 6 3.02 6 2 C4.02 2.33 2.04 2.66 0 3 C0 2.01 0 1.02 0 0 Z " fill="#262626" transform="translate(108,49)"/>
<path d="M0 0 C1.7325 0.1546875 1.7325 0.1546875 3.5 0.3125 C5.5 3.3125 5.5 3.3125 5.5 7.3125 C2.86 7.3125 0.22 7.3125 -2.5 7.3125 C-2.17 7.9725 -1.84 8.6325 -1.5 9.3125 C1.52934491 9.97022428 1.52934491 9.97022428 4.5 10.3125 C4.17 11.3025 3.84 12.2925 3.5 13.3125 C-0.01903714 13.63241247 -1.92015168 13.68419764 -4.9375 11.75 C-6.5 9.3125 -6.5 9.3125 -6.375 5.6875 C-5.20108951 1.15955953 -4.70554638 0.42013807 0 0 Z " fill="#202020" transform="translate(74.5,48.6875)"/>
<path d="M0 0 C3.39050865 0.30822806 5.10265737 1.11741843 7.75 3.25 C8.8125 5.6875 8.8125 5.6875 8.75 8.25 C7.1875 10.5625 7.1875 10.5625 4.75 12.25 C1.5 12.5 1.5 12.5 -1.25 12.25 C-1.61103536 10.43885568 -1.96365504 8.62603177 -2.3125 6.8125 C-2.50972656 5.80316406 -2.70695312 4.79382812 -2.91015625 3.75390625 C-3.02230469 2.92761719 -3.13445313 2.10132813 -3.25 1.25 C-2.25 0.25 -2.25 0.25 0 0 Z " fill="#02BE28" transform="translate(34.25,38.75)"/>
<path d="M0 0 C2.31 0 4.62 0 7 0 C7.13539281 2.89740622 7.23426829 5.78845621 7.3125 8.6875 C7.35439453 9.50412109 7.39628906 10.32074219 7.43945312 11.16210938 C7.53197233 15.73255814 7.48446766 17.40737212 4.48046875 21.08203125 C3.66191406 21.71496094 2.84335937 22.34789063 2 23 C1.34 22.67 0.68 22.34 0 22 C0 21.34 0 20.68 0 20 C0.66 19.67 1.32 19.34 2 19 C2.33 13.39 2.66 7.78 3 2 C2.01 2 1.02 2 0 2 C0 1.34 0 0.68 0 0 Z " fill="#262626" transform="translate(59,44)"/>
<path d="M0 0 C2.97 0 5.94 0 9 0 C7.57250019 3.79049707 5.83763458 7.27122456 3.875 10.8125 C3.06675781 12.27623047 3.06675781 12.27623047 2.2421875 13.76953125 C1.62730469 14.87361328 1.62730469 14.87361328 1 16 C0.67 16 0.34 16 0 16 C0 10.72 0 5.44 0 0 Z " fill="#BBFDCC" transform="translate(33,52)"/>
<path d="M0 0 C0.99 0 1.98 0 3 0 C3 1.32 3 2.64 3 4 C4.32 4 5.64 4 7 4 C7 4.66 7 5.32 7 6 C5.68 6 4.36 6 3 6 C3 8.64 3 11.28 3 14 C4.32 14 5.64 14 7 14 C6.67 14.99 6.34 15.98 6 17 C4.33388095 17.042721 2.66617115 17.04063832 1 17 C0 16 0 16 -0.09765625 13.71484375 C-0.08025391 12.34005859 -0.08025391 12.34005859 -0.0625 10.9375 C-0.05347656 10.01839844 -0.04445313 9.09929688 -0.03515625 8.15234375 C-0.02355469 7.44207031 -0.01195313 6.73179688 0 6 C-0.66 6 -1.32 6 -2 6 C-2 5.34 -2 4.68 -2 4 C-1.34 4 -0.68 4 0 4 C0 2.68 0 1.36 0 0 Z " fill="#1E1E1E" transform="translate(84,45)"/>
<path d="M0 0 C1.670625 0.061875 1.670625 0.061875 3.375 0.125 C3.375 0.785 3.375 1.445 3.375 2.125 C1.725 2.455 0.075 2.785 -1.625 3.125 C-1.625 5.105 -1.625 7.085 -1.625 9.125 C1.345 9.62 1.345 9.62 4.375 10.125 C4.375 10.785 4.375 11.445 4.375 12.125 C1.54616253 13.53941874 -0.49876745 13.44400332 -3.625 13.125 C-5.5625 11.5625 -5.5625 11.5625 -6.625 9.125 C-6.16401132 0.21255211 -6.16401132 0.21255211 0 0 Z " fill="#181818" transform="translate(126.625,48.875)"/>
<path d="M0 0 C0.33 0 0.66 0 1 0 C1 4.95 1 9.9 1 15 C-1.64 15 -4.28 15 -7 15 C-5.45454854 9.52067211 -2.84456788 4.88570819 0 0 Z " fill="#E4FDEA" transform="translate(30,43)"/>
<path d="M0 0 C0.04254356 1.99954746 0.04080783 4.00041636 0 6 C-1 7 -1 7 -3.5625 7.0625 C-4.366875 7.041875 -5.17125 7.02125 -6 7 C-6 4.69 -6 2.38 -6 0 C-3.50907189 -1.24546405 -2.58919267 -0.7767578 0 0 Z " fill="#DFDFDF" transform="translate(102,52)"/>
<path d="M0 0 C1.98 0.66 3.96 1.32 6 2 C5.34 3.98 4.68 5.96 4 8 C2.35 7.67 0.7 7.34 -1 7 C-1.625 4.625 -1.625 4.625 -2 2 C-1.34 1.34 -0.68 0.68 0 0 Z " fill="#626262" transform="translate(109,54)"/>
<path d="M0 0 C2.31 0 4.62 0 7 0 C7.33 0.99 7.66 1.98 8 3 C7.34 3 6.68 3 6 3 C6 3.66 6 4.32 6 5 C0.25 5.125 0.25 5.125 -2 4 C-1.34 2.68 -0.68 1.36 0 0 Z " fill="#545454" transform="translate(71,49)"/>
<path d="M0 0 C3.7753207 3.40996708 4.83178424 5.48849955 5.16796875 10.5078125 C5.17441406 11.37148438 5.18085937 12.23515625 5.1875 13.125 C5.20167969 13.99382813 5.21585938 14.86265625 5.23046875 15.7578125 C5 18 5 18 3 20 C2.67 15.38 2.34 10.76 2 6 C1.01 5.67 0.02 5.34 -1 5 C-0.67 3.35 -0.34 1.7 0 0 Z " fill="#31BD51" transform="translate(45,43)"/>
<path d="M0 0 C3.375 -0.125 3.375 -0.125 7 0 C9 2 9 2 9.125 5.625 C9.08375 6.73875 9.0425 7.8525 9 9 C8.34 8.67 7.68 8.34 7 8 C6.731875 7.175 6.46375 6.35 6.1875 5.5 C5.795625 4.675 5.40375 3.85 5 3 C2.45224694 2.10613836 2.45224694 2.10613836 0 2 C0 1.34 0 0.68 0 0 Z " fill="#0D0D0D" transform="translate(96,49)"/>
<path d="M0 0 C1.4606285 2.64738916 2 3.89448334 2 7 C-1 9 -1 9 -5 9 C-5 10.98 -5 12.96 -5 15 C-5.33 15 -5.66 15 -6 15 C-6.125 8.25 -6.125 8.25 -5 6 C-2.9375 5.375 -2.9375 5.375 -1 5 C-0.67 3.35 -0.34 1.7 0 0 Z " fill="#404040" transform="translate(102,53)"/>
<path d="M0 0 C0.33 0 0.66 0 1 0 C1 4.29 1 8.58 1 13 C0.67 13 0.34 13 0 13 C-0.33 11.35 -0.66 9.7 -1 8 C-1.66 8 -2.32 8 -3 8 C-3 8.99 -3 9.98 -3 11 C-3.66 11 -4.32 11 -5 11 C-3.55049545 7.2089881 -1.84827434 3.6125362 0 0 Z " fill="#D0FCDC" transform="translate(30,43)"/>
<path d="M0 0 C1.65 0 3.3 0 5 0 C5 1.32 5 2.64 5 4 C4.01 4 3.02 4 2 4 C2 4.99 2 5.98 2 7 C1.34 7 0.68 7 0 7 C0 4.69 0 2.38 0 0 Z " fill="#F3FEF6" transform="translate(35,53)"/>
<path d="M0 0 C2.64 0 5.28 0 8 0 C8 1.98 8 3.96 8 6 C7.34 5.67 6.68 5.34 6 5 C6.33 4.34 6.66 3.68 7 3 C5.02 3 3.04 3 1 3 C0.67 2.01 0.34 1.02 0 0 Z " fill="#E5E5E5" transform="translate(72,56)"/>
<path d="M0 0 C2.31 0 4.62 0 7 0 C7 0.66 7 1.32 7 2 C5.35 2.33 3.7 2.66 2 3 C1.67 4.65 1.34 6.3 1 8 C0.01 6.68 -0.98 5.36 -2 4 C-1.34 2.68 -0.68 1.36 0 0 Z " fill="#202020" transform="translate(123,49)"/>
<path d="M0 0 C0.33 0.66 0.66 1.32 1 2 C-0.0625 5.0625 -0.0625 5.0625 -2 8 C-5.1875 8.875 -5.1875 8.875 -8 9 C-6.8553125 7.88625 -6.8553125 7.88625 -5.6875 6.75 C-3.5606298 4.5736677 -1.7440044 2.47832204 0 0 Z " fill="#CFF9D8" transform="translate(48,63)"/>
<path d="M0 0 C2.31 0.33 4.62 0.66 7 1 C7 1.66 7 2.32 7 3 C4.29120665 4.35439668 1.99066732 4.06501451 -1 4 C-0.67 2.68 -0.34 1.36 0 0 Z " fill="#3A3A3A" transform="translate(124,58)"/>
<path d="M0 0 C0.99 0.33 1.98 0.66 3 1 C3 3.31 3 5.62 3 8 C2.01 8.33 1.02 8.66 0 9 C0 6.03 0 3.06 0 0 Z " fill="#EEEEEE" transform="translate(118,52)"/>
<path d="M0 0 C1.875 0.25 1.875 0.25 4 1 C5.25 3.0625 5.25 3.0625 6 5 C4.125 4.75 4.125 4.75 2 4 C0.75 1.9375 0.75 1.9375 0 0 Z " fill="#0F0F0F" transform="translate(138,56)"/>
<path d="M0 0 C3.96 0.33 7.92 0.66 12 1 C12 1.33 12 1.66 12 2 C11.31292969 2.06058594 10.62585937 2.12117188 9.91796875 2.18359375 C8.56638672 2.30927734 8.56638672 2.30927734 7.1875 2.4375 C6.29417969 2.51871094 5.40085937 2.59992187 4.48046875 2.68359375 C1.87256441 2.93489767 1.87256441 2.93489767 -1 4 C-0.67 2.68 -0.34 1.36 0 0 Z " fill="#B6EDCC" transform="translate(24,36)"/>
<path d="M0 0 C0.66 0.33 1.32 0.66 2 1 C1.67 1.99 1.34 2.98 1 4 C-2.0625 5.1875 -2.0625 5.1875 -5 6 C-3.35 4.02 -1.7 2.04 0 0 Z " fill="#2ABD47" transform="translate(22,40)"/>
</svg>
