<?xml version="1.0" encoding="UTF-8"?>
<svg version="1.1" xmlns="http://www.w3.org/2000/svg" width="160" height="110">
<path d="M0 0 C21.78 0 43.56 0 66 0 C66 21.78 66 43.56 66 66 C44.22 66 22.44 66 0 66 C0 44.22 0 22.44 0 0 Z " fill="#F4DE21" transform="translate(46,22)"/>
<path d="M0 0 C1.98 0 3.96 0 6 0 C7.81414051 1.81414051 7.6350454 4.54959054 8 7 C8.66 5.02 9.32 3.04 10 1 C21.51724138 -1.30344828 21.51724138 -1.30344828 26.5 1.3125 C28 3 28 3 28 6 C26.02 6.99 26.02 6.99 24 8 C23.34 7.34 22.68 6.68 22 6 C19.89179203 6.3185177 19.89179203 6.3185177 18 7 C18.97376767 9.42180559 19.57971014 10.74300747 21.83984375 12.125 C22.53207031 12.41375 23.22429687 12.7025 23.9375 13 C27.21613884 14.53518842 29.39879209 15.5974332 31 19 C31.5 21.9375 31.5 21.9375 31 25 C28.827365 27.57285724 27.02006162 29.48996919 24 31 C19.58662451 31.36027555 16.42492832 30.87267579 12.375 29.25 C10.12536738 28.36304191 10.12536738 28.36304191 8 28 C6.30327614 29.29486821 4.6396721 30.63360658 3 32 C-2.19695876 32.68421498 -6.57470912 32.95019392 -11 30 C-11.6875 26.875 -11.6875 26.875 -12 24 C-10.34385343 23.61781233 -8.67542976 23.28604898 -7 23 C-6.67 23.33 -6.34 23.66 -6 24 C-4.35 24 -2.7 24 -1 24 C-0.67 16.08 -0.34 8.16 0 0 Z " fill="#E6D42E" transform="translate(76,52)"/>
<path d="M0 0 C2.5 1.3125 2.5 1.3125 4 3 C4 3.99 4 4.98 4 6 C2.02 6.99 2.02 6.99 0 8 C-0.66 7.34 -1.32 6.68 -2 6 C-4.10820797 6.3185177 -4.10820797 6.3185177 -6 7 C-5.02623233 9.42180559 -4.42028986 10.74300747 -2.16015625 12.125 C-1.12181641 12.558125 -1.12181641 12.558125 -0.0625 13 C3.21613884 14.53518842 5.39879209 15.5974332 7 19 C7.5 21.9375 7.5 21.9375 7 25 C4.827365 27.57285724 3.02006162 29.48996919 0 31 C-5.18974641 31.39921126 -8.62908698 30.91394201 -13 28 C-13.875 25.8125 -13.875 25.8125 -14 24 C-12.35 23.34 -10.7 22.68 -9 22 C-8.34 22.66 -7.68 23.32 -7 24 C-3.91652174 24.16681109 -3.91652174 24.16681109 -1 24 C-1 22.68 -1 21.36 -1 20 C-1.53109375 19.76925781 -2.0621875 19.53851563 -2.609375 19.30078125 C-7.12562063 17.21572624 -10.44866596 15.46483457 -13 11 C-13.5625 8 -13.5625 8 -13 5 C-9.20570207 -0.45430328 -6.21203752 -0.78883016 0 0 Z " fill="#151001" transform="translate(100,52)"/>
<path d="M0 0 C1.98 0 3.96 0 6 0 C6.08732726 3.89569135 6.14050185 7.79112982 6.1875 11.6875 C6.21263672 12.79029297 6.23777344 13.89308594 6.26367188 15.02929688 C6.27333984 16.09599609 6.28300781 17.16269531 6.29296875 18.26171875 C6.3086792 19.24100342 6.32438965 20.22028809 6.34057617 21.22924805 C5.93932424 24.49362663 4.90480133 26.34470753 3 29 C-0.20937409 31.32402951 -3.11506021 31.47570691 -7 31 C-9.875 29.1875 -9.875 29.1875 -12 27 C-12 26.01 -12 25.02 -12 24 C-10.34385343 23.61781233 -8.67542976 23.28604898 -7 23 C-6.67 23.33 -6.34 23.66 -6 24 C-4.35 24 -2.7 24 -1 24 C-0.67 16.08 -0.34 8.16 0 0 Z " fill="#160F01" transform="translate(76,52)"/>
<path d="M0 0 C1.65 0 3.3 0 5 0 C5 6.93 5 13.86 5 21 C3.35 21.33 1.7 21.66 0 22 C0 14.74 0 7.48 0 0 Z " fill="#050100" transform="translate(76,53)"/>
<path d="M0 0 C0.804375 0.4640625 0.804375 0.4640625 1.625 0.9375 C4.3984957 2.17827439 7.00042837 2.5909675 10 3 C10 3.66 10 4.32 10 5 C9.360625 5.12375 8.72125 5.2475 8.0625 5.375 C7.381875 5.58125 6.70125 5.7875 6 6 C5.67 6.66 5.34 7.32 5 8 C6.98 8 8.96 8 11 8 C11 8.33 11 8.66 11 9 C5.80136436 9.31191814 2.38397423 8.92264949 -2 6 C-2.875 3.8125 -2.875 3.8125 -3 2 C-2.01 1.34 -1.02 0.68 0 0 Z " fill="#1C1601" transform="translate(89,74)"/>
<path d="M0 0 C0.515625 0.165 1.03125 0.33 1.5625 0.5 C6.07708398 1.42606851 10.59363721 1.41003609 15 0 C15 0.66 15 1.32 15 2 C11.29598872 4.46934085 8.29412135 4.44928433 4 4 C1.5 3 1.5 3 0 2 C0 1.34 0 0.68 0 0 Z " fill="#E6D33A" transform="translate(89,81)"/>
<path d="M0 0 C0.33 0 0.66 0 1 0 C1.22515501 3.95756644 1.42727348 7.91597588 1.625 11.875 C1.68945312 13.00292969 1.75390625 14.13085938 1.8203125 15.29296875 C1.871875 16.36933594 1.9234375 17.44570312 1.9765625 18.5546875 C2.02893066 19.54968262 2.08129883 20.54467773 2.13525391 21.56982422 C2 24 2 24 0 26 C-1.04616643 22.8615007 -1.04169366 20.94961697 -0.87890625 17.67578125 C-0.83056641 16.64775391 -0.78222656 15.61972656 -0.73242188 14.56054688 C-0.67634766 13.48869141 -0.62027344 12.41683594 -0.5625 11.3125 C-0.51029297 10.22904297 -0.45808594 9.14558594 -0.40429688 8.02929688 C-0.27458784 5.35257409 -0.13962067 2.67622112 0 0 Z " fill="#E0CF42" transform="translate(82,53)"/>
<path d="M0 0 C5.75 1.875 5.75 1.875 8 3 C8 3.66 8 4.32 8 5 C2.25 5.125 2.25 5.125 0 4 C0 2.68 0 1.36 0 0 Z " fill="#F5DD1F" transform="translate(91,70)"/>
<path d="M0 0 C0.66 0 1.32 0 2 0 C3.2077558 3.62326739 2.54311128 4.64146369 1 8 C0.34 8 -0.32 8 -1 8 C-1.04241723 5.66705225 -1.04092937 3.33297433 -1 1 C-0.67 0.67 -0.34 0.34 0 0 Z " fill="#060201" transform="translate(102,68)"/>
<path d="M0 0 C0.99 0 1.98 0 3 0 C2.34 2.97 1.68 5.94 1 9 C0.34 9 -0.32 9 -1 9 C-2.0326802 6.21176345 -2.04509293 5.1322726 -1.0625 2.25 C-0.711875 1.5075 -0.36125 0.765 0 0 Z " fill="#F0D834" transform="translate(86,53)"/>
<path d="M0 0 C1.32 0 2.64 0 4 0 C3.67 0.99 3.34 1.98 3 3 C2.01 2.01 1.02 1.02 0 0 Z M1 3 C3.97 3.495 3.97 3.495 7 4 C3.5647952 6.29013653 2.014669 6.17842973 -2 6 C-1.01 5.67 -0.02 5.34 1 5 C1 4.34 1 3.68 1 3 Z " fill="#2F2301" transform="translate(71,77)"/>
</svg>
