<?xml version="1.0" encoding="UTF-8"?>
<svg version="1.1" xmlns="http://www.w3.org/2000/svg" width="160" height="110">
<path d="M0 0 C16.83 0 33.66 0 51 0 C44.25 7.875 44.25 7.875 40.6953125 11.40234375 C39.57382813 12.51899414 39.57382813 12.51899414 38.4296875 13.65820312 C37.66914062 14.41037109 36.90859375 15.16253906 36.125 15.9375 C35.34125 16.71673828 34.5575 17.49597656 33.75 18.29882812 C31.83561419 20.20154085 29.91891966 22.10186171 28 24 C29.72418074 28.85228622 32.36064582 31.4948211 36.1875 34.8125 C48.32913344 45.65826688 48.32913344 45.65826688 51 51 C34.17 51 17.34 51 0 51 C0 34.17 0 17.34 0 0 Z " fill="#E17556" transform="translate(54,30)"/>
<path d="M0 0 C4 0 4 0 5.421875 1.28515625 C6.07929687 2.16494141 6.07929687 2.16494141 6.75 3.0625 C8.92910129 5.79320337 11.1306405 8.07317398 13.8125 10.3125 C18.66829217 14.43569683 22.94099866 19.09537338 27 24 C27 24.33 27 24.66 27 25 C10.17 25 -6.66 25 -24 25 C-22.35 23.35 -20.7 21.7 -19 20 C-17.68544112 18.19025499 -16.49790289 16.346143 -15.30859375 14.453125 C-14 13 -14 13 -11.97265625 12.546875 C-11.32167969 12.36640625 -10.67070313 12.1859375 -10 12 C-8.93170216 10.11368805 -8.93170216 10.11368805 -8 8 C-6.30859375 6.3671875 -6.30859375 6.3671875 -4.4375 4.875 C-1.78974334 2.79096366 -1.78974334 2.79096366 0 0 Z " fill="#5A7ADD" transform="translate(78,56)"/>
<path d="M0 0 C8.91 0 17.82 0 27 0 C20.23833314 7.88861133 20.23833314 7.88861133 16.51171875 11.62109375 C15.32932617 12.80541992 15.32932617 12.80541992 14.12304688 14.01367188 C13.31931641 14.81353516 12.51558594 15.61339844 11.6875 16.4375 C10.86443359 17.26443359 10.04136719 18.09136719 9.19335938 18.94335938 C8.41154297 19.72388672 7.62972656 20.50441406 6.82421875 21.30859375 C5.75820435 22.37291626 5.75820435 22.37291626 4.6706543 23.45874023 C3 25 3 25 2 25 C2.020625 23.88625 2.04125 22.7725 2.0625 21.625 C2.26380718 18.16784079 2.26380718 18.16784079 1 16 C0.855625 15.01 0.71125 14.02 0.5625 13 C0.27284006 9.89638412 0.27284006 9.89638412 -2 8 C-3.65 9.32 -5.3 10.64 -7 12 C-6.52570343 7.73133091 -3.96478822 5.89066852 -1 3 C-0.67 2.01 -0.34 1.02 0 0 Z " fill="#F4880E" transform="translate(78,30)"/>
<path d="M0 0 C7.92 0 15.84 0 24 0 C22.84797722 4.60809112 21.50757877 5.78409903 18.125 9 C14.49068262 12.45857078 14.49068262 12.45857078 11.3046875 16.3125 C10.87414062 16.869375 10.44359375 17.42625 10 18 C9.34 18 8.68 18 8 18 C7.7525 18.61875 7.505 19.2375 7.25 19.875 C5.79371361 22.35068687 4.62187494 22.95125002 2 24 C2 24.66 2 25.32 2 26 C1.34 26 0.68 26 0 26 C0 17.42 0 8.84 0 0 Z " fill="#268BC3" transform="translate(54,30)"/>
<path d="M0 0 C7.92 0 15.84 0 24 0 C22.84797722 4.60809112 21.50757877 5.78409903 18.125 9 C15.13163967 11.86245536 12.37638147 14.60067287 10 18 C9.34 17.67 8.68 17.34 8 17 C9.65 14.69 11.3 12.38 13 10 C10.2981424 6.8509288 10.2981424 6.8509288 7 6 C5.64567325 4.68799596 4.31266518 3.35368596 3 2 C2.01 1.34 1.02 0.68 0 0 Z " fill="#3C83D9" transform="translate(54,30)"/>
<path d="M0 0 C0.33 0.66 0.66 1.32 1 2 C1.99 2 2.98 2 4 2 C4 2.66 4 3.32 4 4 C4.66 4 5.32 4 6 4 C6 5.32 6 6.64 6 8 C6.99 8 7.98 8 9 8 C8.67 8.99 8.34 9.98 8 11 C7.34 11 6.68 11 6 11 C5.7525 11.94875 5.505 12.8975 5.25 13.875 C4 17 4 17 0 19 C0 12.73 0 6.46 0 0 Z " fill="#0295D5" transform="translate(55,34)"/>
<path d="M0 0 C0.33 0.66 0.66 1.32 1 2 C0 5 0 5 -3 7 C-3.9219691 9.30492276 -4.1044142 10.58234321 -3.5 13 C-3 15 -3 15 -3.5625 17.125 C-3.706875 17.74375 -3.85125 18.3625 -4 19 C-3.34 19.66 -2.68 20.32 -2 21 C0.60280568 20.67958603 0.60280568 20.67958603 3 20 C0.24323652 24.5946058 -1.20475719 26.12285431 -6 29 C-6 21.08 -6 13.16 -6 5 C-5.34 5 -4.68 5 -4 5 C-4 4.34 -4 3.68 -4 3 C-2 1.375 -2 1.375 0 0 Z " fill="#C06A97" transform="translate(60,51)"/>
<path d="M0 0 C4.95 0 9.9 0 15 0 C13.84797722 4.60809112 12.50757877 5.78409903 9.125 9 C6.13163967 11.86245536 3.37638147 14.60067287 1 18 C0.34 17.67 -0.32 17.34 -1 17 C-0.33871094 16.32453125 0.32257812 15.6490625 1.00390625 14.953125 C1.84824219 14.06109375 2.69257812 13.1690625 3.5625 12.25 C4.40941406 11.36828125 5.25632812 10.4865625 6.12890625 9.578125 C8.27949722 7.21304773 8.27949722 7.21304773 7.77734375 4.671875 C7.52082031 4.12015625 7.26429687 3.5684375 7 3 C4.69 2.34 2.38 1.68 0 1 C0 0.67 0 0.34 0 0 Z " fill="#8577B1" transform="translate(63,30)"/>
<path d="M0 0 C8.91 0 17.82 0 27 0 C27 0.33 27 0.66 27 1 C18.42 1 9.84 1 1 1 C1.33 2.32 1.66 3.64 2 5 C-0.64 7.31 -3.28 9.62 -6 12 C-6.33 11.01 -6.66 10.02 -7 9 C-6.57847656 8.60167969 -6.15695313 8.20335937 -5.72265625 7.79296875 C-5.17480469 7.26316406 -4.62695312 6.73335937 -4.0625 6.1875 C-3.51722656 5.66542969 -2.97195312 5.14335938 -2.41015625 4.60546875 C-0.76480908 2.94187802 -0.76480908 2.94187802 0 0 Z " fill="#DD8B39" transform="translate(78,30)"/>
<path d="M0 0 C1.485 0.99 1.485 0.99 3 2 C5.64632287 1.6878236 5.64632287 1.6878236 8 1 C5.46636932 5.22271781 3.43379675 7.78310162 -1 10 C-1.125 2.25 -1.125 2.25 0 0 Z " fill="#A767B4" transform="translate(55,70)"/>
<path d="M0 0 C0.33 0.99 0.66 1.98 1 3 C0.34 3 -0.32 3 -1 3 C-0.34 4.65 0.32 6.3 1 8 C-2.3 8 -5.6 8 -9 8 C-6.14723863 5.06799526 -3.34920216 2.35684596 0 0 Z " fill="#198CD2" transform="translate(63,73)"/>
<path d="M0 0 C0 0.99 0 1.98 0 3 C-0.99 3.33 -1.98 3.66 -3 4 C-3.268125 4.5775 -3.53625 5.155 -3.8125 5.75 C-5.5763914 9.09211003 -7.98041507 10.7353113 -11 13 C-11.66 13 -12.32 13 -13 13 C-13.33 13.66 -13.66 14.32 -14 15 C-13.67 13.68 -13.34 12.36 -13 11 C-12.34 11 -11.68 11 -11 11 C-11 10.01 -11 9.02 -11 8 C-9.35 7.67 -7.7 7.34 -6 7 C-6 6.01 -6 5.02 -6 4 C-3 1.8125 -3 1.8125 0 0 Z " fill="#C0728F" transform="translate(77,56)"/>
<path d="M0 0 C3.81684226 1.55500981 6.19195732 4.03595495 9 7 C8.67 7.66 8.34 8.32 8 9 C7.401875 8.835 6.80375 8.67 6.1875 8.5 C3.88655664 7.8885876 3.88655664 7.8885876 1 8 C1.33 6.68 1.66 5.36 2 4 C1.01 3.34 0.02 2.68 -1 2 C-0.67 1.34 -0.34 0.68 0 0 Z " fill="#8A79DC" transform="translate(88,64)"/>
<path d="M0 0 C0.33 0.99 0.66 1.98 1 3 C0.21625 3.268125 -0.5675 3.53625 -1.375 3.8125 C-4.28114923 4.84814432 -4.28114923 4.84814432 -6 8 C-7.32 7.67 -8.64 7.34 -10 7 C-9.09827532 5.82174642 -8.17798498 4.65768423 -7.25 3.5 C-6.73953125 2.8503125 -6.2290625 2.200625 -5.703125 1.53125 C-4 0 -4 0 0 0 Z " fill="#7E70CD" transform="translate(82,56)"/>
<path d="M0 0 C5.75 0.75 5.75 0.75 8 3 C7.75 5.0625 7.75 5.0625 7 7 C6.01 7.495 6.01 7.495 5 8 C2.27573689 5.64722731 1.1858237 3.37503669 0 0 Z " fill="#5E77E0" transform="translate(64,31)"/>
<path d="M0 0 C1.65 1.65 3.3 3.3 5 5 C2.69 7.64 0.38 10.28 -2 13 C-2.33 12.34 -2.66 11.68 -3 11 C-2.505 10.67 -2.01 10.34 -1.5 10 C0.88179561 6.82427253 0.19168226 3.89753934 0 0 Z " fill="#248BC5" transform="translate(63,36)"/>
<path d="M0 0 C0.66 0.99 1.32 1.98 2 3 C-0.64 5.31 -3.28 7.62 -6 10 C-6.33 9.01 -6.66 8.02 -7 7 C-4.69 4.69 -2.38 2.38 0 0 Z " fill="#EB8429" transform="translate(78,32)"/>
<path d="M0 0 C2 1.375 2 1.375 4 3 C4 3.66 4 4.32 4 5 C1.69 5 -0.62 5 -3 5 C-1.125 1.125 -1.125 1.125 0 0 Z " fill="#F47C34" transform="translate(69,43)"/>
<path d="M0 0 C2.02054804 1.64169528 4.02043058 3.30911778 6 5 C6 5.33 6 5.66 6 6 C3.69 6 1.38 6 -1 6 C-0.34 5.67 0.32 5.34 1 5 C0.67 3.35 0.34 1.7 0 0 Z " fill="#7D71DD" transform="translate(99,75)"/>
<path d="M0 0 C0.33 0.66 0.66 1.32 1 2 C0 5 0 5 -3 7 C-3.66 7.99 -4.32 8.98 -5 10 C-4.50769231 3.47692308 -4.50769231 3.47692308 -1.9375 1.0625 C-0.9784375 0.5365625 -0.9784375 0.5365625 0 0 Z " fill="#C7747F" transform="translate(60,51)"/>
<path d="M0 0 C1.65 0 3.3 0 5 0 C4.1875 1.9375 4.1875 1.9375 3 4 C2.01 4.33 1.02 4.66 0 5 C0 3.35 0 1.7 0 0 Z " fill="#1090CA" transform="translate(55,48)"/>
<path d="M0 0 C0 3 0 3 -2 6 C-3.32 6 -4.64 6 -6 6 C-5.67 5.01 -5.34 4.02 -5 3 C-4.01 3 -3.02 3 -2 3 C-2 2.34 -2 1.68 -2 1 C-1.34 0.67 -0.68 0.34 0 0 Z " fill="#467FDB" transform="translate(71,66)"/>
</svg>
