<?xml version="1.0" encoding="UTF-8"?>
<svg version="1.1" xmlns="http://www.w3.org/2000/svg" width="160" height="110">
<path d="M0 0 C1.22332031 -0.01933594 2.44664063 -0.03867187 3.70703125 -0.05859375 C8.65616452 -0.03154931 12.38806209 0.04742095 16.81640625 2.34765625 C19.53526181 7.64027764 19.10048883 12.83588155 18.9375 18.6875 C18.93169922 19.87150391 18.92589844 21.05550781 18.91992188 22.27539062 C18.77700102 32.36560332 18.77700102 32.36560332 16.5 35.625 C13.34574203 37.82600984 10.56074083 37.88210715 6.78125 37.890625 C5.68425781 37.89320312 4.58726563 37.89578125 3.45703125 37.8984375 C2.31621094 37.89070313 1.17539062 37.88296875 0 37.875 C-1.14082031 37.88273437 -2.28164063 37.89046875 -3.45703125 37.8984375 C-4.55402344 37.89585938 -5.65101562 37.89328125 -6.78125 37.890625 C-7.78220703 37.88836914 -8.78316406 37.88611328 -9.81445312 37.88378906 C-12.61687465 37.61373753 -14.19782311 37.23143614 -16.5 35.625 C-19.88908163 30.77372355 -18.90977506 24.34646779 -18.9375 18.6875 C-18.97037109 17.50736328 -19.00324219 16.32722656 -19.03710938 15.11132812 C-19.06722719 10.27331118 -19.04686778 6.68955235 -16.81640625 2.34765625 C-11.39522702 -0.46829197 -6.01088877 -0.09500878 0 0 Z " fill="#EC533B" transform="translate(37.5,35.375)"/>
<path d="M0 0 C4.30892933 2.15446466 5.10430787 2.75726047 7 7 C7.38396475 9.372498 7.62236504 11.71210673 7.7890625 14.109375 C7.80194042 16.01005404 7.80194042 16.01005404 9 17 C9.04063832 18.66617115 9.042721 20.33388095 9 22 C8.030625 21.979375 7.06125 21.95875 6.0625 21.9375 C3.10968821 21.91359059 0.35263876 22.23293599 -2.5625 22.6875 C-6.89118623 23.19545808 -9.3457124 22.54950297 -13 20 C-14.32 18.35 -15.64 16.7 -17 15 C-12.38 15.66 -7.76 16.32 -3 17 C-4.093125 15.7625 -5.18625 14.525 -6.3125 13.25 C-8.67078138 10.58024749 -10.89570785 7.87478682 -13 5 C-11.68 5.33 -10.36 5.66 -9 6 C-8.67 5.34 -8.34 4.68 -8 4 C-4.7 6.31 -1.4 8.62 2 11 C1.34 7.37 0.68 3.74 0 0 Z " fill="#FDFDFA" transform="translate(41,43)"/>
<path d="M0 0 C1.02480469 0.23976562 1.02480469 0.23976562 2.0703125 0.484375 C3.875 1.25 3.875 1.25 5.875 4.25 C5.875 5.24 5.875 6.23 5.875 7.25 C4.555 7.25 3.235 7.25 1.875 7.25 C1.400625 6.734375 0.92625 6.21875 0.4375 5.6875 C-0.078125 5.213125 -0.59375 4.73875 -1.125 4.25 C-3.77966049 4.48043864 -3.77966049 4.48043864 -6.125 5.25 C-6.125 6.24 -6.125 7.23 -6.125 8.25 C-5.43792969 8.49234375 -4.75085938 8.7346875 -4.04296875 8.984375 C-3.14191406 9.31953125 -2.24085937 9.6546875 -1.3125 10 C-0.41917969 10.32484375 0.47414063 10.6496875 1.39453125 10.984375 C4.16563515 12.39829258 5.34014058 13.56399602 6.875 16.25 C6.80662168 19.60053788 6.48090442 21.49261947 4.375 24.125 C0.00586444 26.091111 -4.86704133 26.08291832 -9.359375 24.42578125 C-11.125 23.25 -11.125 23.25 -11.875 20.125 C-11.9575 19.17625 -12.04 18.2275 -12.125 17.25 C-10.805 17.25 -9.485 17.25 -8.125 17.25 C-7.465 18.24 -6.805 19.23 -6.125 20.25 C-2.54142759 20.50015873 -2.54142759 20.50015873 0.875 20.25 C0.875 18.93 0.875 17.61 0.875 16.25 C-0.28128906 15.86908203 -0.28128906 15.86908203 -1.4609375 15.48046875 C-2.46382812 15.13628906 -3.46671875 14.79210938 -4.5 14.4375 C-5.49773437 14.10105469 -6.49546875 13.76460937 -7.5234375 13.41796875 C-10.125 12.25 -10.125 12.25 -12.125 9.25 C-11.92964992 6.1243988 -11.6662935 3.99750055 -9.8125 1.4375 C-6.56926739 -0.8447748 -3.77229948 -0.94666071 0 0 Z " fill="#040001" transform="translate(78.125,41.75)"/>
<path d="M0 0 C1.65 0 3.3 0 5 0 C5.66 2.97 6.32 5.94 7 9 C7.99 6.03 8.98 3.06 10 0 C11.65 0 13.3 0 15 0 C16.31626692 3.61973402 17 6.09567131 17 10 C17.66 10 18.32 10 19 10 C19.144375 8.72125 19.28875 7.4425 19.4375 6.125 C19.70642746 3.74307106 19.92226346 2.15547309 21 0 C22.32 0 23.64 0 25 0 C23.68 5.61 22.36 11.22 21 17 C19.35 17.33 17.7 17.66 16 18 C15.01 15.03 14.02 12.06 13 9 C11.68 11.97 10.36 14.94 9 18 C7.68 18 6.36 18 5 18 C3.35 12.06 1.7 6.12 0 0 Z " fill="#010000" transform="translate(85,49)"/>
<path d="M0 0 C0 1.32 0 2.64 0 4 C-0.99 4 -1.98 4 -3 4 C-3 4.99 -3 5.98 -3 7 C-1.35 7 0.3 7 2 7 C2 5.35 2 3.7 2 2 C3.32 2 4.64 2 6 2 C6 3.65 6 5.3 6 7 C6.99 7 7.98 7 9 7 C9 7.99 9 8.98 9 10 C8.01 10 7.02 10 6 10 C6 13.63 6 17.26 6 21 C6.99 21 7.98 21 9 21 C9 22.32 9 23.64 9 25 C6.625 25.125 6.625 25.125 4 25 C2 23 2 23 1.8046875 19.9609375 C1.82789063 18.77757813 1.85109375 17.59421875 1.875 16.375 C1.89304688 15.18648437 1.91109375 13.99796875 1.9296875 12.7734375 C1.95289063 11.85820313 1.97609375 10.94296875 2 10 C0.35 10 -1.3 10 -3 10 C-3 14.95 -3 19.9 -3 25 C-4.32 25 -5.64 25 -7 25 C-7 20.05 -7 15.1 -7 10 C-7.99 10 -8.98 10 -10 10 C-10 9.01 -10 8.02 -10 7 C-9.01 7 -8.02 7 -7 7 C-7.061875 6.21625 -7.12375 5.4325 -7.1875 4.625 C-7.125625 3.75875 -7.06375 2.8925 -7 2 C-4 0 -4 0 0 0 Z " fill="#000000" transform="translate(127,42)"/>
<path d="M0 0 C4.30892933 2.15446466 5.10430787 2.75726047 7 7 C7.38396475 9.372498 7.62236504 11.71210673 7.7890625 14.109375 C7.80194042 16.01005404 7.80194042 16.01005404 9 17 C9.04063832 18.66617115 9.042721 20.33388095 9 22 C8.030625 21.979375 7.06125 21.95875 6.0625 21.9375 C3.10968821 21.91359059 0.35263876 22.23293599 -2.5625 22.6875 C-6.89118623 23.19545808 -9.3457124 22.54950297 -13 20 C-15.375 17.3125 -15.375 17.3125 -17 15 C-11.06 15.99 -11.06 15.99 -5 17 C-6.32 17.33 -7.64 17.66 -9 18 C-9 18.99 -9 19.98 -9 21 C-8.47921875 20.83628906 -7.9584375 20.67257813 -7.421875 20.50390625 C-4.3243125 19.85941341 -1.41158906 19.90588411 1.75 19.9375 C3.50570312 19.95103516 3.50570312 19.95103516 5.296875 19.96484375 C6.18890625 19.97644531 7.0809375 19.98804687 8 20 C7.34 19.01 6.68 18.02 6 17 C5.74239721 14.30547479 5.91099947 11.71451625 6 9 C4.68 9.33 3.36 9.66 2 10 C1.34 6.7 0.68 3.4 0 0 Z " fill="#F9DED4" transform="translate(41,43)"/>
<path d="M0 0 C1.32 0 2.64 0 4 0 C4 5.94 4 11.88 4 18 C2.68 18 1.36 18 0 18 C0 12.06 0 6.12 0 0 Z " fill="#010000" transform="translate(112,49)"/>
<path d="M0 0 C2.60158864 2.4715092 4.85869608 5.12031542 7 8 C7 8.66 7 9.32 7 10 C7.639375 10.268125 8.27875 10.53625 8.9375 10.8125 C11 12 11 12 12 15 C10.37536158 15.05395478 8.75021459 15.09277195 7.125 15.125 C6.22007813 15.14820313 5.31515625 15.17140625 4.3828125 15.1953125 C2 15 2 15 0 13 C0 12.34 0 11.68 0 11 C1.32 11 2.64 11 4 11 C4 10.01 4 9.02 4 8 C3.01 7.67 2.02 7.34 1 7 C0.67 4.69 0.34 2.38 0 0 Z " fill="#E35C49" transform="translate(26,45)"/>
<path d="M0 0 C3.75563429 2.20919664 7.38776679 4.56384272 11 7 C10.01 7.495 10.01 7.495 9 8 C8.34444881 10.52733235 8.34444881 10.52733235 8 13 C6 13 6 13 4.37890625 11.390625 C3.77949219 10.68421875 3.18007813 9.9778125 2.5625 9.25 C1.96566406 8.55390625 1.36882813 7.8578125 0.75390625 7.140625 C-0.89081098 5.13326411 -2.46126108 3.08929688 -4 1 C-2.68 1.33 -1.36 1.66 0 2 C0 1.34 0 0.68 0 0 Z " fill="#FDF2E9" transform="translate(32,47)"/>
<path d="M0 0 C4.35797811 2.17898905 5.14378838 2.66883956 7 7 C7.53593734 10.658803 7.81250117 14.30821268 8 18 C7.34 17.67 6.68 17.34 6 17 C6 14.36 6 11.72 6 9 C4.68 9.33 3.36 9.66 2 10 C1.34 6.7 0.68 3.4 0 0 Z " fill="#FDE4D7" transform="translate(41,43)"/>
<path d="M0 0 C2.5 1.3125 2.5 1.3125 5 3 C5 3.99 5 4.98 5 6 C3.02 6.99 3.02 6.99 1 8 C-0.65 5.69 -2.3 3.38 -4 1 C-2.68 1.33 -1.36 1.66 0 2 C0 1.34 0 0.68 0 0 Z " fill="#FAC8C3" transform="translate(32,47)"/>
<path d="M0 0 C5.94 0.99 5.94 0.99 12 2 C10.68 2.33 9.36 2.66 8 3 C8.33 4.32 8.66 5.64 9 7 C4.58110387 5.64978174 2.65654657 3.73884332 0 0 Z " fill="#FBD1C7" transform="translate(24,58)"/>
<path d="M0 0 C0.99 0.33 1.98 0.66 3 1 C3 3.97 3 6.94 3 10 C3.66 10 4.32 10 5 10 C5 12.97 5 15.94 5 19 C4.34 18.67 3.68 18.34 3 18 C3.020625 17.195625 3.04125 16.39125 3.0625 15.5625 C3.29633621 13.06645115 3.29633621 13.06645115 2 12 C1.79160764 10.54704215 1.63246419 9.0868369 1.5 7.625 C1.24478838 4.82678686 0.8972983 2.69189489 0 0 Z " fill="#E97058" transform="translate(46,47)"/>
<path d="M0 0 C2.91488977 2.6234008 4.88503898 5.71816394 7 9 C6.01 9.495 6.01 9.495 5 10 C5 9.34 5 8.68 5 8 C3.68 7.67 2.36 7.34 1 7 C0.67 4.69 0.34 2.38 0 0 Z " fill="#EA6B58" transform="translate(26,45)"/>
<path d="M0 0 C0.99 0.495 0.99 0.495 2 1 C2.4140625 3.50390625 2.4140625 3.50390625 2.625 6.5625 C2.69976562 7.57441406 2.77453125 8.58632813 2.8515625 9.62890625 C2.92503906 10.80259766 2.92503906 10.80259766 3 12 C2.01 11.67 1.02 11.34 0 11 C0 7.37 0 3.74 0 0 Z " fill="#D56656" transform="translate(40,42)"/>
<path d="M0 0 C1.98 0.495 1.98 0.495 4 1 C3.67 2.32 3.34 3.64 3 5 C1.68 4.67 0.36 4.34 -1 4 C-0.67 2.68 -0.34 1.36 0 0 Z " fill="#020001" transform="translate(112,42)"/>
<path d="M0 0 C2.0625 0.4375 2.0625 0.4375 4 1 C3.01 1.33 2.02 1.66 1 2 C1.33 2.99 1.66 3.98 2 5 C1.01 5 0.02 5 -1 5 C-1 1 -1 1 0 0 Z " fill="#EB5747" transform="translate(45,40)"/>
</svg>
