<?xml version="1.0" encoding="UTF-8"?>
<svg version="1.1" xmlns="http://www.w3.org/2000/svg" width="160" height="110">
<path d="M0 0 C21.78 0 43.56 0 66 0 C66 21.78 66 43.56 66 66 C44.22 66 22.44 66 0 66 C0 44.22 0 22.44 0 0 Z " fill="#037ACB" transform="translate(46,22)"/>
<path d="M0 0 C21.78 0 43.56 0 66 0 C66 21.78 66 43.56 66 66 C44.22 66 22.44 66 0 66 C0 44.22 0 22.44 0 0 Z M1 1 C1 22.12 1 43.24 1 65 C10.24 65 19.48 65 29 65 C30.101173 61.69648101 30.03109831 59.48612828 29.87890625 56.01953125 C29.83056641 54.85615234 29.78222656 53.69277344 29.73242188 52.49414062 C29.67634766 51.27919922 29.62027344 50.06425781 29.5625 48.8125 C29.51029297 47.58595703 29.45808594 46.35941406 29.40429688 45.09570312 C29.27451599 42.06354982 29.13954569 39.03171706 29 36 C35.15234375 36.5859375 35.15234375 36.5859375 37 37 C37.33 37.66 37.66 38.32 38 39 C38.99 39 39.98 39 41 39 C41.268125 39.763125 41.53625 40.52625 41.8125 41.3125 C44.20457143 46.72613534 47.71185337 47.90469662 53 50 C53 51.32 53 52.64 53 54 C49.53058454 53.54177532 46.32604951 53.10868317 43 52 C42.01 52.66 41.02 53.32 40 54 C41.46151929 57.85309632 43.31277435 59.24018776 47 61 C50.19395026 61.71401232 50.19395026 61.71401232 53 62 C52.67 62.99 52.34 63.98 52 65 C56.29 65 60.58 65 65 65 C65 43.88 65 22.76 65 1 C43.88 1 22.76 1 1 1 Z " fill="#0E79BE" transform="translate(46,22)"/>
<path d="M0 0 C3.28151257 0.78626341 4.93049074 2.91994937 6.97265625 5.47265625 C5.32265625 6.46265625 3.67265625 7.45265625 1.97265625 8.47265625 C1.31265625 7.81265625 0.65265625 7.15265625 -0.02734375 6.47265625 C-1.01734375 6.47265625 -2.00734375 6.47265625 -3.02734375 6.47265625 C-3.1554974 8.85792955 -3.1554974 8.85792955 -2.02734375 11.47265625 C-0.07657547 12.68423206 1.93420895 13.57408945 4.02734375 14.515625 C6.57956321 15.77123497 7.75888318 16.89338848 8.97265625 19.47265625 C9.47265625 22.41015625 9.47265625 22.41015625 8.97265625 25.47265625 C5.75596407 29.28189699 3.71101781 31.3055061 -1.27734375 31.78515625 C-5.69074565 31.41737276 -7.71833181 30.37813015 -11.02734375 27.47265625 C-11.02734375 26.15265625 -11.02734375 24.83265625 -11.02734375 23.47265625 C-9.21484375 22.84765625 -9.21484375 22.84765625 -7.02734375 22.47265625 C-6.03734375 23.13265625 -5.04734375 23.79265625 -4.02734375 24.47265625 C-1.40202851 24.63979194 -1.40202851 24.63979194 0.97265625 24.47265625 C0.97265625 23.15265625 0.97265625 21.83265625 0.97265625 20.47265625 C0.4415625 20.24191406 -0.08953125 20.01117188 -0.63671875 19.7734375 C-5.11993334 17.70363223 -8.6128782 15.98665705 -11.02734375 11.47265625 C-11.02734375 7.58683349 -10.56302171 5.30831387 -8.46484375 2.03515625 C-5.62781155 0.21654586 -3.36203549 -0.14453611 0 0 Z " fill="#E3F6FC" transform="translate(98.02734375,51.52734375)"/>
<path d="M0 0 C0.98484375 -0.00128906 1.9696875 -0.00257812 2.984375 -0.00390625 C4.02078125 -0.00003906 5.0571875 0.00382812 6.125 0.0078125 C7.67960937 0.00201172 7.67960937 0.00201172 9.265625 -0.00390625 C10.25046875 -0.00261719 11.2353125 -0.00132813 12.25 0 C13.16007812 0.00112793 14.07015625 0.00225586 15.0078125 0.00341797 C17.125 0.1328125 17.125 0.1328125 18.125 1.1328125 C18.16563832 2.79898365 18.167721 4.46669345 18.125 6.1328125 C15.155 6.1328125 12.185 6.1328125 9.125 6.1328125 C9.125 14.0528125 9.125 21.9728125 9.125 30.1328125 C7.145 30.1328125 5.165 30.1328125 3.125 30.1328125 C3.125 22.2128125 3.125 14.2928125 3.125 6.1328125 C0.155 6.1328125 -2.815 6.1328125 -5.875 6.1328125 C-5.917721 4.46669345 -5.91563832 2.79898365 -5.875 1.1328125 C-4.22105883 -0.52112867 -2.27184587 0.00281567 0 0 Z " fill="#D2F0FA" transform="translate(65.875,51.8671875)"/>
<path d="M0 0 C1.32 0.33 2.64 0.66 4 1 C4 8.26 4 15.52 4 23 C2.68 23.33 1.36 23.66 0 24 C0 16.08 0 8.16 0 0 Z " fill="#F7FEFF" transform="translate(70,58)"/>
<path d="M0 0 C3.3 1.65 6.6 3.3 10 5 C9.67 6.65 9.34 8.3 9 10 C2.68004723 9.40377804 2.68004723 9.40377804 0 7.8125 C-1.52262484 5.05274248 -0.72429919 2.96304212 0 0 Z " fill="#147CC0" transform="translate(90,67)"/>
<path d="M0 0 C2.38564077 0.57584432 4.66682784 1.22227595 7 2 C7 2.66 7 3.32 7 4 C5 5.625 5 5.625 3 7 C1.68 6.34 0.36 5.68 -1 5 C-0.67 3.35 -0.34 1.7 0 0 Z " fill="#1E85C2" transform="translate(95,57)"/>
<path d="M0 0 C6.27 0 12.54 0 19 0 C19 1.32 19 2.64 19 4 C16.69 4 14.38 4 12 4 C13.32 3.67 14.64 3.34 16 3 C16 2.34 16 1.68 16 1 C10.72 1 5.44 1 0 1 C0 0.67 0 0.34 0 0 Z " fill="#EDFDFF" transform="translate(64,53)"/>
<path d="M0 0 C7.26153846 -0.61538462 7.26153846 -0.61538462 11 2.5 C11.66 3.325 12.32 4.15 13 5 C10.525 6.485 10.525 6.485 8 8 C7.34 7.01 6.68 6.02 6 5 C7.32 5 8.64 5 10 5 C7.93243723 2.2027092 6.85559629 1.97307727 3.3125 1.3125 C2.219375 1.209375 1.12625 1.10625 0 1 C0 0.67 0 0.34 0 0 Z " fill="#C0EEFC" transform="translate(92,52)"/>
<path d="M0 0 C1.98 0.99 3.96 1.98 6 3 C5.34 3.66 4.68 4.32 4 5 C3.34 5 2.68 5 2 5 C1.67 5.66 1.34 6.32 1 7 C0.34 6.67 -0.32 6.34 -1 6 C-0.67 4.02 -0.34 2.04 0 0 Z " fill="#1482C6" transform="translate(90,67)"/>
</svg>
