<?xml version="1.0" encoding="UTF-8"?>
<svg id="Layer_2" data-name="Layer 2" xmlns="http://www.w3.org/2000/svg" xmlns:xlink="http://www.w3.org/1999/xlink" viewBox="0 0 16 16">
  <defs>
    <style>
      .cls-1 {
        fill: url(#linear-gradient);
      }

      .cls-1, .cls-2, .cls-3, .cls-4, .cls-5, .cls-6 {
        stroke-width: 0px;
      }

      .cls-2 {
        fill: url(#linear-gradient-5);
      }

      .cls-3 {
        fill: none;
      }

      .cls-4 {
        fill: url(#linear-gradient-2);
      }

      .cls-5 {
        fill: url(#linear-gradient-3);
      }

      .cls-6 {
        fill: url(#linear-gradient-4);
      }
    </style>
    <linearGradient id="linear-gradient" x1="4.15" y1="11.98" x2="9.55" y2="2.63" gradientUnits="userSpaceOnUse">
      <stop offset="0" stop-color="#2f2f82"/>
      <stop offset=".78" stop-color="#9b72b2"/>
    </linearGradient>
    <linearGradient id="linear-gradient-2" x1="8.49" y1="14.3" x2="13.31" y2="5.96" gradientUnits="userSpaceOnUse">
      <stop offset="0" stop-color="#2f2f82"/>
      <stop offset=".8" stop-color="#925ca6"/>
    </linearGradient>
    <linearGradient id="linear-gradient-3" x1="14.64" y1="8.26" x2="14.64" y2="4.47" gradientUnits="userSpaceOnUse">
      <stop offset="0" stop-color="#f37121"/>
      <stop offset="1" stop-color="#93288d"/>
    </linearGradient>
    <linearGradient id="linear-gradient-4" x1="1.82" y1="7.35" x2="3.68" y2="4.11" xlink:href="#linear-gradient-3"/>
    <linearGradient id="linear-gradient-5" x1="2.61" y1="11.53" x2="13.72" y2="3.41" xlink:href="#linear-gradient-3"/>
  </defs>
  <g id="Layer_1-2" data-name="Layer 1">
    <g>
      <rect class="cls-3" width="16" height="16"/>
      <g>
        <g>
          <path class="cls-1" d="m6.74,10.65l-.84-2.75c-.02-.06.01-.11.07-.13.06-.02.11.01.13.07l.81,2.65c.6-.54,1.21-1.11,1.7-1.59l-1.07-3.44c-.02-.06.01-.11.07-.13.06-.02.11.01.13.07l1.04,3.34c.36-.35.64-.63.81-.8l-.97-3.01s-.03,0-.05,0c-.27,0-.5-.22-.5-.5s.22-.5.5-.5.5.22.5.5c0,.18-.1.34-.25.43l.94,2.9h0c.32-.31.62-.63.89-.94l-.25-.82c-.02-.06.01-.11.07-.13.06-.02.11.01.13.07l.21.69c.31-.37.58-.74.8-1.06l-.04-.14s-.03,0-.04,0c-.27,0-.5-.22-.5-.5s.22-.5.5-.5.5.22.5.5c0,0,0,0,0,.01.21-.34.33-.56.33-.56-.27-.33-.65-.56-1.08-.65l-3.59-.68c-.64-.12-1.3.11-1.72.61l-2.42,2.83c-.42.49-.55,1.16-.34,1.77l1.21,3.52c.06.17.14.33.25.48.53-.3,1.29-.93,2.08-1.63Zm-.42-6.06c.27,0,.5.22.5.5,0,.18-.1.34-.25.43l1.12,3.56c.02.06-.01.11-.07.13-.01,0-.02,0-.03,0-.04,0-.09-.03-.1-.07l-1.12-3.56s-.03,0-.05,0c-.27,0-.5-.22-.5-.5s.22-.5.5-.5Zm-1.94,3.13c-.27,0-.5-.22-.5-.5s.22-.5.5-.5.5.22.5.5c0,.18-.1.34-.25.43l.89,2.81c.02.06-.01.11-.07.13-.01,0-.02,0-.03,0-.04,0-.09-.03-.1-.07l-.89-2.81s-.03,0-.05,0Z"/>
          <path class="cls-4" d="m13.14,7.98c0-.27.12-.52.32-.69l-.54-1.56c-.25.35-.49.69-.72,1.01l.6,1.91c.02.06-.01.11-.07.13-.01,0-.02,0-.03,0-.04,0-.09-.03-.1-.07l-.55-1.76c-.28.38-.55.74-.81,1.07l.58,1.93s.03,0,.04,0c.27,0,.5.22.5.5s-.22.5-.5.5-.5-.22-.5-.5c0-.19.1-.35.26-.43l-.53-1.78c-.29.37-.57.71-.83,1.03l.16.49c.02.06-.01.11-.07.13-.01,0-.02,0-.03,0-.04,0-.09-.03-.1-.07l-.12-.36c-.28.33-.54.64-.8.92l.53,1.72s.04,0,.05,0c.27,0,.49.23.49.51,0,.27-.23.49-.51.49-.27,0-.49-.23-.49-.51,0-.18.1-.34.25-.42l-.5-1.6c-.53.58-.99,1.05-1.38,1.42.05.08.09.18.09.28,0,.27-.22.5-.5.5-.12,0-.23-.04-.31-.11-.38.33-.58.47-.58.47h0l2.94.56c.64.12,1.3-.11,1.72-.61l2.42-2.83c.32-.38.47-.87.43-1.36-.45-.05-.81-.43-.81-.9Z"/>
        </g>
        <path class="cls-5" d="m15.73,5.71s-.45-.89-2.31-.78c0,0,2.53.28,1.99,1.8,0,0-.06.39-.98.68,0,0,0,0,0,0-.12-.08-.26-.12-.41-.12-.4,0-.73.33-.73.73s.33.73.73.73.73-.33.73-.73c0-.01,0-.02,0-.04.41-.15,1.85-.8.99-2.25Z"/>
        <path class="cls-6" d="m3.12,4.87s.91.04,1.29.13c0,0,.61-.4-1.62-.2s-1.52,1.79-1.52,1.79c0,0,.65,1.03,1.79,1.34,0,0-1.56-.97-1.66-1.89-.02-.22.09-.43.27-.55.39-.25,1.28-.65,2.68-.31,0,0,.1-.14-1.24-.3Z"/>
        <path class="cls-2" d="m10.63,1.68s3.87-1.46,2.09,2.63c0,0-.95,2.44-7.01,7.41,0,0-3.31,2.53-4.13,1.55,0,0-.52-.63.59-2.21h0s0-.06,0-.09c.12-.24.02-.55.02-.55.21.15.11.49.08.6.61-.14,1.09-.72,1.06-1.38s-.59-1.23-1.28-1.26c-.76-.03-1.38.58-1.38,1.33,0,.2.04.45.12.62,0,0,.32-.56.69-.45,0,0-.38.14-.52.43-.02.04-.05.07-.09.08h0s0,0,0,0h0s-1.27,1.73-.73,3.1C.14,13.5,0,11.89.9,10.81c0,0-1.27,2.2-.22,3.6,0,0,.71.72,2.16.39,0,0,4.61-2,8.9-8.07,0,0-1.94,3.51-6.53,6.89,0,0,3.51-2.19,6.84-6.89C15.37,2.03,13.15.05,10.63,1.68Z"/>
      </g>
    </g>
  </g>
</svg>